<mxfile host="Electron" modified="2024-02-27T08:00:30.756Z" agent="Mozilla/5.0 (X11; Linux x86_64) AppleWebKit/537.36 (KHTML, like Gecko) draw.io/23.1.5 Chrome/120.0.6099.109 Electron/28.1.0 Safari/537.36" etag="qsVpZZmwb-Wl90595XSb" compressed="false" version="23.1.5" type="device" pages="3">
  <diagram id="ZVyomWuRRaxMyKH_zGSC" name="Title">
    <mxGraphModel dx="596" dy="740" grid="1" gridSize="10" guides="1" tooltips="1" connect="1" arrows="1" fold="1" page="1" pageScale="1" pageWidth="1169" pageHeight="827" math="0" shadow="0">
      <root>
        <mxCell id="0" />
        <mxCell id="1" parent="0" />
        <mxCell id="rKWRCQO4ZL9lfZoeli8y-1" value="&lt;font style=&quot;direction: ltr; letter-spacing: 0px; line-height: 120%; opacity: 1;&quot;&gt;&lt;font style=&quot;font-size: 48px;&quot; face=&quot;calibri&quot; color=&quot;#5b9bd5&quot;&gt;Test workflow to demonstrate TRICC&lt;/font&gt;&lt;br&gt;&lt;/font&gt;" style="verticalAlign=middle;align=center;vsdxID=5;fillColor=#ffffff;gradientColor=none;shape=stencil(nZBLDoAgDERP0z3SIyjew0SURgSD+Lu9kMZoXLhwN9O+tukAlrNpJg1SzDH4QW/URgNYgZTkjA4UkwJUgGXng+6DX1zLfmoymdXo17xh5zmRJ6Q42BWCfc2oJfdAr+Yv+AP9Cb7OJ3H/2JG1HNGz/84klThPVCc=);strokeColor=none;spacingTop=-1;spacingBottom=-1;spacingLeft=-1;spacingRight=-1;labelBackgroundColor=none;rounded=0;html=1;whiteSpace=wrap;" parent="1" vertex="1">
          <mxGeometry x="137" y="480" width="896" height="14" as="geometry" />
        </mxCell>
        <mxCell id="rKWRCQO4ZL9lfZoeli8y-7" value="" style="shape=image;verticalLabelPosition=bottom;labelBackgroundColor=#ffffff;verticalAlign=top;aspect=fixed;imageAspect=0;image=data:image/png,iVBORw0KGgoAAAANSUhEUgAAAZEAAACrCAYAAACnt6EoAAAgAElEQVR4Ae2dhXuUR/f333/k9wAJXtzdLbiW4lZK8QJFWrSUAiFACO4OBYoGDx4hWHB3d9fa85z3+sxmlnvv7G52o5swc12be3Pv6Bn5zpE58//EBEMBQwFDgWxAgX///Vc+/f2PvP3wSV68/SBPX3+Qp28/ypM3nz/P3nyQV+8+yPtPf8lf//yTDVqd+U34f5lfBVMDQwFDAUMB/ynw5NU72X/mhkRsPyY95kdJw9CNEjJlpzScsV8az42VZouOS7PFCdJ0wVFpPDdOGs2OlvrT9ki9ydulbmikNJ60UbrP3SWhmw7LzoRr8uDZK/8rYVKIAREzCAwFDAWyDAXuPXst6+MvydCVB6XNtC3SZsZ26TZzqwxffUAios7K/L2nZfn+kzJv3zmZufu0jF69X3rN3ynfTN8utcdvkAYRexXIhEzdJfWm7JD64bvV/4BLo7DNMnTlAdmZcFXevv+YZWiS2RU1IJLZPWDKNxQwFPBKgQ+f/pJDZ2/ItK3xMnrNIZm584TsPX1Dbj18Jv/886/XtPrHt+/fy+V7T2Rj/AUZ+fshaTZ5s9SfFiX1I/YorqTOxM2KQ2kwfZ/iVtrM2CELohLk8XPDnWgaenoaEPFEGfPeUMBQIFMp8Pr9R9lz4qLM3Roraw+dlsv3nsp///vfNKnT05dvZOuxyzJg2X6pO2mr4lDqhm6ROhM3SZ2JWyRkqkMs1mLaNll24Iy8e/c+TcrNjpkYEMmOvWraZCiQhSnw4eOfcvzCVdkWd0pOXr0tf/2dvgrwo5fvyI/L9wsiLsRbcCX6o3Us3ebtlthzN7IwVdOv6gZE0o+2JmdDAUMBPynw5NkLOXvlutx99NTPlKmPvvf0dek4e5c0nHFA6k6KdAIJgILYq17YNpmx/ah8+vQp9YVloxwMiGSjzjRNMRTIyhT43//+J+8/fMjUJrx8804mbY6XkPDdEjJlh9SZgHgLzmST1A3bJg1nHpB+i/fKg6cvMrWegVS4AZFA6g1TF0MBQ4GAoMCmuHPSICxS6odHWYDEIeYCSNrN3CHnbz0IiLpmdiUMiGR2D5jyDQUMBQKSAsev3JVmUyKVKOszR+LgShpM3yso3c/fehiQdc/IShkQyUhqm7IMBQwFshQFLt1+KF9P2+YWSDhb0iJ8q1y4/WUDiQGRLDWkTWUNBQwFMpoC527clyaTIyVk6m5X0daETQJH8vW0rXLvyfOMrlbAlGdAJGC6wlTEUMBQIFApEHv+hoSEbVUHErX5r1a442blu7nb5eMXarVlQCRQR62pl6GAoUBAUWDl/pPCifY66lDi57MkgAnK9t/+OBRQ9c2oyhgQyShKm3IMBQwFsjwFhq3YJw1m7E882f4ZSDj1jiXXzuMXs3wb/W2AARF/KWbiGwoYCnyxFHj84rU0n4p+ZKfLYUS4EU68N58SKU9evv6i6GNA5IvqbtNYQwFDgdRSYGPcOeWkMalYa5MSa41dezC1RWSp9AZEslR3mcoaChgKZDYFcAL53dwd0iBiTxJuBLEWJ9sTrt7N7GpmWPkGRDKM1KYgQwFDgexCgZhzN5T4yh030mDGPum3aFd2aWqy7TAgkiyJTARDAUMBQwFXCuDnq8/C3cqFvKvJ72bBpTzef+Mu3HRNlE3/MyCSTTvWNMtQwFAgfSmw79RVxwFENya/mAL/sDgqfSsQILkbEAmQjjDVMBQwFMhaFPjzzz+lXQROGl3vIIEzwZU8HMmFL8C3lgGRrDVuTW0NBQwFAogCC6JOqDva7SIt/udektCNsQFU2/SpigGR9KGrydVQwFDgC6DA9XtPJCR0s9QN25rEUgu9SLPJm+T12+x9ta4BkS9goJsmGgoYCqQfBXrM2+k4N2K5VtfBmWxRoq59p6+lX+EBkLMBkQDoBFMFQwFDgaxLgYVRJxw+tZKAyGblIuWXddFZt3E+1NyAiA9EMlEMBQwFDAU8UeDE1btSL2yrUqTbdSOItFpN3SzvMvnaX091T4v3BkTSgoomD0MBQ4EvlgKv372X5lM2qbMhdhDBQosT7NySmF2DAZHs2rOmXYYChgIZRoGBS/c4bj90J9Kavk+W7DuZYXXJ6IIMiGQ0xU15hgIBSIEXt27K7S0b5PS0MIkfMVhO9P1WTnX5WuK/7yQxP/aVmPFj5Mz8WXJ18wa5duiAvLpyWV49fiR///lnALYm46s0a+cxZdJr50T4n4OHQ1fsz/hKZVCJBkQyiNCmGEOBQKTAy9u35MTQ/nKgWik5XrWEnKxWUi7XLC17q5aSoz8NlEsrl8jjg/vkweFYeRgXLXcPx8qDI3Hy4HCMnDt0QG4ejpUbZ07Jg2tX5fnjR/LP338FYjPTvU7bjl6U+lN3ub2wCr1I62lb5eOn7Am4BkTSfXiZAgwFApMCbx49kgONa8m56qUktlIxOVCxqBypUlyO9uoibx8/8rnS//z9t3x8+0ZeP38uf36hV8SevvFA6oVtk7qhkUnOi6ATqfPberl277HPNM1KEQ2IZKXeMnU1FEhDClyYM13OVi+lwAMAOVSxqByuXFyuH8q+opc0JJ9LVvefv5b6EzcoIHEn0uLCqpiLd1zSZJd/DIhkl5407TAU8JMCp4cPklPVSjpBBCBBpHVhyXw/czLRX71+I62mbHR746HSi0TslVX7E7IloQyIZMtuNY0yFEieAuenTVI6EMBDf+BEohvVkLdPsqfoJXmqpCzGv//+K93m7pIQN84YNYhEbD+esswDPJUBkQDvIFM9Q4H0osCDY/ESV7mYHKr0GUT2VywqJ6uWlPje3eSff/5Jr6KzZb59lx5069FXW2iN+SMuW7bbgEi27FbTKEOB5CnANa/RXdtKQtWSAnhoboRnQtUScnTYQGGHbYJvFPhx6R63V+YCIvUj9kr/hTt9yyiLxTIgksU6zFTXUCAtKfDoVIIcrFjUaZ2lgYR3mPseHdxXPmVjlx1pScuhywCRvUmssxSITIuSbrO2ZktQNiCSlqPI5GUokAUpcHZ2hFKwAxwaRHjyP4r3oz06yot797JgyzK2ykO8gAi6kk4zt8rff/+dsZXKgNIMiGQAkU0RhgKBTAHEWvEDesppm6WWBhQ4kugmteV+fPaU6adV33gDkXpTdkibGTvk09/ZT89kQCStRpDJx1AgC1Pg49u3EtPp6yQmvwAJ+pJjVUrIwcrF5ZIx//XYy0OWRXkUZ9WbvF2+nr5TPvxpQMQjAc0PhgKGAlmbAu+fP5eYDi09Akls5WJyomoJOT6ol7y8l3290qa0Fwcu2+fhcqrNAoi0mr5TPv5lQCSl9DXpDAUMBbIABd49eyaxHVu5BRKrniSmYXW5sX1LwLbo30wwT+61+IBHE996k3dI6+k75JMBkYAdM6ZihgKGAmlEgXfPn8nhnp2VjsSubNfiLXxs8UkYOVhePbifRiWnXTbPHz6U2+fPCW3JiPDXX39Jp5nbPR42RLHe0SjWM6IrTBmGAoYCgUCBjx8+yImRgxVHElOpWJJzJIAJhxSx3oppUF2url8TCNV2qcObp0/kysH9cnH3Dnl9P32ty56/fC3Nwza4vZgKE9+Q8Cjpakx8XfrH/GMoYCjwBVDg7Kxwiavs4DrsBxI1VxJfpbgcq1pCjvT5Vp6cPxtwVHly9bKcXrFEzq5cKq/v3k6X+t199kbqTdwkdSdtdX9OJGKP9Jm/I13KzuxMjXVWZveAKd9QIMApcHNHpByqVV6dYgc43H0Qe3Hy/UDVknJ++mT58Pp1wLXq/pHDcnjcSDk5Y4q8S2MR3PErdzy6gtduT4b/fijgaJIWFTIgkhZUNHkYCmRzCjy9fFHiOrZSepJoD+ItOBUsuDhXEtOinlzd9EfAUYUzMdcjN8qBnl3kXESYfEwjncmW+AsOpXroFrecCLcbTtl6IuDokRYVMiCSFlQ0eRgKfAEU+PDunZwcP1rivYi3NJdylMutqpSQoz27yIOj8QFHnT/fvpELs8Jl3zdN5PL8WfLxzZtU1XHWzuMer8dVnEjEXlm8+2iqygjUxAZEArVnTL0MBQKUApj2YuILx+HOeksDiUPEVULFOTFyiDy/diXgWvTy+jU5MbivRLcMkWu/L0+xW5Ihy/d6dL6ofGdF7JGoU9cDrv1pUSEDImlBRZOHocAXRoHnt2/JsYG91SVWcCbulO6ACe8Rf2HFdbBGGTkfHiqvHj4IOGo9OLBXYlvVl/ivG8qdKP8U4B8+fJS2EVuF2wsBDPun7qRIqT1hk5y5+TDg2p0WFTIgkhZUNHkYCnyhFLj8+3KJrlNRcSVcr6u5EHdP9CXqJsV6leXSgtny7tXLgKLap48f5eKMqbKvYhFJ6NFBHp/07RKpq/ceS90JGz1aZnFaveGkTfL4eWC1N62Ib0AkrShp8jEU+EIp8Oz6NTk+qLfyr8UBRHcAYn3H7YnKqWOzOnJl5RJ5n0p9RFqT/cmlC8pz8dGqJSRhxGCB6/IWth69KPWnRUmdie6V6vXDd0u3OTvkv//7n7dssuxvBkSybNeZihsKBBYFrm/eILFNank9oGgFE3XivWoJiW4RItfX/y5/fvoUUA26tv53ia1RWmKqlJAri+d5vFdl/IZYaThjfxIxlhZrYZk19o+YgGpbWlbGgEhaUtPkZSjwhVPg7dMncvq3UUoPgrNGb4p3DShYchE3tnVjub5+jXz6+CFgqIhLl4Qh/eRSjdJKX3Jr726XuuHupN30rRIS7l4fApA0mL5X1kSfcUmXnf4xIJKdetO0xVAgQChw/0icHO7WVoEDJ9o1YHh7AibHq5aQmFYNAk7MdWPbZomtXUGBScJPA+VFoojrwp3HUm9SpKA815yH9Vk3NFLqhm6RU9cDz79YWg0VAyJpRUmTj6GAoYALBf755x+5tnaVxDZ2iLhQrHuy4rKCi+ZMYlqEyKVFcwTuJhDCi3t3JWFwX7lWq4zE1C4vd9aukIW7jkrI9H1uAQQwCZmyU1pM3iTv3gcOd5XWtDQgktYUNfkZChgKuFAAEDg7ZYIcrFbKoVD3cOLdCiR81zqTQw2ry8WZU+VlMgpul0LT8R8s0mKrlJAL1YpLp59nSbXJOz2CCPqQ4asPpGNtMj9rAyKZ3wemBoYCXwQFcJ2S8NMApS9J8FFfAphgzaXOmdQqL6cnjJFnF89nOr2enj0j2wb+IE0nb5Vaoe5FWUofErFXNsRlfn3Tk2AGRNKTuiZvQwFDgSQUuB8fK8d6d1WcBjoQX5TvgElcol+ufRWKyIkf+8i9uOgkeWfki/kHzkqD6Z6tsupN2qbOj9x8+DQjq5XhZRkQyXCSmwINBQwFoMDt3TskrtPXSpmu7nBP5rCiFndxvwmcDKAS37WNXFu/Rt5m8MFFrLI6zNjm8RIquJD60/ZIz/k7s31n+wQinz59kmNHj8qqlSvlt3HjZPTIkTJ61CgZNXKkREybJpFbtsjNGzeyDbGuXLkiy5culY0bNsj7d++yTbvSqiGMByZRWnz+/PNP+ffff5Ot2t9//y3E9bVM4pImNeF///uf6LaSX1oE3QbyJf8vPaB8v77pD4lr10yBCU4bfeVMuBQLTkZZdDWrI5fmRMiL61czhKTRZ687LqDy4LVXKdUj9srvRwLPX1haE8griDx69EgmTQyV6lWqSnCOnJI3V5Dk8fApkDevfN2ypaz/4w+fFoW0bkha5bd3714pVKCg5A0KVp9G9RvI8+fP0yr7LJ/P5LAwqVapstSoWjVNPtWrVJHGDRrKs2eerzG9cOGC1KpeQ41DX8tlzNasVl3at2kjI34eLju2b5e3b9/6Rf8hgwdLtcpVHO2sUlW2bN7sV3p75HVr1kqNKg66ke8P/frbo3yx/7M54MBh7NeN/OZM4FDw38Up+H1VSsjxIf3kzoG9AkClVxi2Yp+gNAcs3H1qh0ZK49BNciruSHpVIWDy9Qgi27ZulfJlyqqFNE/OXApEABI+uXPmcn6s7zTAtGjaTE6dOhUwjfS1IuxcQ+rUVW3W7QJM5sya5WsW2T5e7549JX9wbo+bCT0GfH1C36D/yyG3b3u+ce7A/v2O8nJ63sQkKc8S17H5ySXVK1eRxQsXCXdK+BKaNWki+RLbSptnTp/hSzKPcdiQadqRL2PNBFcKfHz/Xm5s/ENi2zVTblT80ZkAJg5RV0mljD/coYVcXbpAXt6+6VpIKv+7fv+phIRukbph29wCCKBSZfIu6TNsmhyrWUqurF2VyhIDO7lbEFmyeLECCSamXkwBEv0/E6Bg3nxOQNHvddy8uYKlSMGvJDo6a93kxU61TImSkifn53azAI0cPjywezEDa/f9d985F8IkC3cil6rHgX6y6fAUV4HIf7yDSEx0tHMc6jw95Wd/T9nWNIzNju3ay5MnyZ89aNO6tXPMMw7mzZmbKkpPmxquuHnqQz2bNW6Sqvyyc2I2dDc2r5fDnVsrBTwn2g9VKubToUXABJEYojFuW9xXrbQcG9xPbu/dLR/ev0812UI3xHh1c1J74mapFh4lizt0ljPl8qv6n508PktLaLwRLQmIHI6LS8JlMODhSsJCJ0n0oUNy6+ZNefTwoSBm2LRho7Rv21ZNCvuELV6kqNy7d89b+QH1GzLqzh06qN2nmuiJi19UVFRA1TMzK7N82TLp3KGjdGrf3u2ndctWLpwcY6JG1Wpu45IH9O79fU959eqVx2a5A5HmTZp4zFPXrWWz5lK0UOEkYxPgql+3nrx86d2rqgERj12SYT/ANd7Zu1uO9uqquIyTVUuqp1ay+/KMTVTEI/KKblFfzk8Pk2cpvAv+0fNX0ihsi+CZ150Yi3f1puyUb+ZEydHJE+VYpSLKAAAT5aODesunbKhjdQERlH51atZy7pZYSNmB/dC3nzx75t1MbcG8eUnAJ3/uPBI+ZUqGDbi0KAiARBwHcJYsWkymhYenRbZfTB5M+gply4oWgTJ+Nm/alKr2W0EEUCqYL79PnASFPnz4UBYtWCAlixV3HddBwdKrx/de62VAxCt5MvzHh0cOq3Mm+xLPjXB+xBcQ0XHgTjjAiO6Ed8e6t5dryxfJy5u+GwVFRMZLw5kHPAIIINJwxgGZvdPhRv7MtEmKG4KLAkjiu7WV14+y170iLiCybes2tXha2f/kJpp1JG3auFEBSb6gYCVC+L77d3L+XNY7aKPuYb5+XR4/fmxtnvnuAwU+fvwolStUcAERrNxSE+wg8lX+AnL/vn++iG7evCkN64W4jG8AKTra81kDAyKp6bX0S/vk4nk5O2mcRNevqkx9/bHo0oDCRVmYFWMqvL9aKTnap5vc+GO1vLrjWTd39/FzaTBps3cuJGy71J+0We48+mwocrj/96ocygZIsER7HYAXc6W0x1xApHfPXs7dGhMM/cCLFy/8ynvlihXSt1dvOXok+1sl+EWYLyTy+/fvpVL58i4gsmH9+lS13h2I3L171+8879y+o7hLxrbmsrt07OQxHwMiHkkTED+8efJYLi9bJLFtmghOHtF/oFjXQOHrkzTaVPhAjTLqIOT135fLqxvXXNo5dsNhaaC4kE0eORFcwv+61lUX/ObhAzlUt5LEJXJOJ6uVkNi2zeTN40cu+WfVf5wggq0+JpGIcfQEGztmTFZtl6l3JlEgkEEEksycMcOpswFMCuUvIJiyuwsGRNxRJfDecQ/Jg0P75diPfeRAlZJKXIXYytfzJlawQX8CoCgOpXIJie/SWi7PnibHt22XpmNXSo3w3VJpapRUnbxTakzaJrUt50Tqhm1VHnsv3Ep6/W/CpHFObkRzJDGdv5GP2UBH4gSRp0+fKiWk3qXx3LFtW+CNGFOjgKZAoIPI/Xv3pGC+fErsymYJ3c2hg647R03gLxlE/v33v/LshXfDA02nQHo+u3JJzs+YIoea1VX6D8AA78FWoPD1OxyKEnlVKSHxVUvIrtoVZXGLljL2u0HSY2i4NB+3WmqFbZUqUx3AUnN2rIzeGO+WHCenTlSckrXs09VKypGfBrqNn5VeOkHkzp07gqxZgwgTLC42Niu1xdQ1ACgQ6CCCBV7dWrWdHDec9+pVq91S7ksGEeh08fot+euv1J36d0vYDHjJDv9u1E45ObS/HKhRVnEBx7hFMQXiLhZ+uJrocl/J4TL55EjpPBJbvqDsqlleVjVpJBHtu8nI3j/LgGHhcuJgrLx8cF9ePXsmLx8+lBcXz8vFhbMlukaZJGVz4h6Qu7zO/fjLADKlSRFOEHnw4IE6qa1BhLMSqbWqSZMaZoNMUDbj5uLDhw/peooWUlEO5fFJK1cd/nRBoIMIbWnepKkLiCxdvMRtE79kEIEgF2/clccvPJteuyVaAL58efe2XFq2UA53+UaBAcptxF0s4lbOwJ/vBysUUaASVza/ApUjZfLK4XIF5WClorK7RlmJqldFompVUPenKLcsHtzfY3a8v2Z5efPAP0ORQCKzE0RY4MqVKu3kRDDN7PV9zzStK8rQyC2Ryn0EABUXF+dX/ofjDitgw1fXlk2bBe7J18BBwu3btqmySbtv7163i+y7d+8k/vBhiY2JkZjoGLl44YKvRTjjJZw4IZMnTZIO7dpLSO06UrVSJalWubJ61q5RQ1o0bSrDhgxRLmK8uftwZujlCybJixctEizhGtQLUW46KIsP5zOaNGwk/fv2lWVLl6rzPV6ySpOfsgKINAyp7wIiK5Ytd9v2Lx1EsDBKuOS7+atbIgbYy0enEuRM+EQ51KqhEnNh7ptaQHGCD8BSqZhSoGN+zMcXzgex1qnJ4wOMUr5XxwkiJPm6RUsX6ywOZWEZk1ZBndgNClZApU+FH4l3L0O0l3n06FGl8EeGDbdE3WpUq6Z23Pa47v4fPHCQSkNaRBhBHk5Jb960WeWv45UtWUo+ffzoLssk786dPSddOnZMNEwIVuVQlssn0R0H9ed96eIl5JfRY9R5hiQZenmB+fHPQ4dJ4QIFVD6AvirH4u4DGvOOU9o8USL36dlLzp875yXn1P0U6CDy/PkLKV64iHOzxHjau2eP20Z/6SDy/tOfsiXmpFvaZPWXzOl7cTFyOvRXOdgixHGQkQOBVVIu8nKCiY/eiHV8QOxA0zryVwDdLe9P/7qAyIyICCeIaKVjmZKl5OTJtBlI7PBZnPkoC7CgYPlxoG+Kpf59+jqtakir6pcrSLZGbk22vVjffJUv/+dycwUJjhXdeY/FgaSuH8/SxUr45Mk3cvMWp+NG3UbHAu4KInqxt5YBoHBAb89u307GX758WXEcpHMtKylwUZ69LGixYP78ZOmWkgiBDiIbN2xUgMr4gS648Ll965bbpn7pIAJR1h04IY9evHZLn+zy8uOHD3IvPk5OTw2VmPbN5WDlYnKsbD6l/4guXyjFIi8NEsk9OYjItcEZ5YE4rfvNBUSwXLEr11kIixUqJGvXrE112cjoq1Ss6JzE5F2hbLlkd/qvX7+WUsWKOxdDDSIskAP6/5BsvbZs2uQsk7SkmzJ5stt0HIyzLrpwIsn528FNPm3ho8GtcMGC0rVTZ5k0caLMnjlTZs+cpRw5Tp4UJh3atnPG020hLeXuiXK/K9aVxYquUvkKirvQZZH2m1at5NdffpGZ06c7ywqfMlXwdYUfM9qsy6Ic0qTHafxABhE8xdar/VmpDk3wTuApGBAROXTmmkTGpx/n6on2mfUeg4JbCSdkYu+hsqpVK4mqXkYOJ+o90H8cSgdQwXpsb6Vi8uZ+1nERZe0fFxDhh3lz5ybd8SdyDxzMOn7smDW9399/GjrUZUFjYTuVDKezf99+58KuF0K9gLKgJiduGjp4iHPR1ek9cVf+gghl165R09kmFue+vXolq685fvy4NG/a1JlOt6dEkaLy/Jln1/M/9Ovn7B/Kwo36yYQEr/2ALop0xLcCJN8TkknrNWM3PwYqiLA44HrdCqbQ449169y0wvHKgIjIi7fvZfza/T57PvZIzCz0Q+i241J9VrTUnLxDWoxdIf0HTpCpnXrImkb1ZW/VUomgkluOVCikDjliCpySMylwKCj3L9QoJUeG9MuyNE4CIvS1WnQTRSV60dWLHM/uXbulWFcStWu3cyHTeeKe21sYP26cy+TXC6Gu22kvbudxYVLPatKZM0i5BGdX6i74CyJbIyNdOBD0Sr4GLKm6de6iQAH9BeKpUsVLyM0b7l1Xc/GXVYRVvnQZefLEu08za13QSaED4EM+fDAwSMuQESDCfS9v3rzxudpnzpxRnnutAIKeCAW7t4ur7CCybOkyn8t0F3Hu7DnOcQyAZRUvvpM3xkrMefdj0l07s/K7lQdOSYOIvVJ3UqTUnrhFHSisMmW3VJ4aJbUnRUrrMUul38AJMvm7AbK2dSs53LK+RFUqppTzWGGhqMfjMHoOTqhz+yKchvXDe3QvyiljleJy9Ifv5X0WvrPILYgwCFD2arGHXqx58o7JyJNJtnPHDr/GDN5acWyogYC8+vXu4zEPdpB4bGXS6XrkSfTNxf+8X7hggcf0+EzKlzv35/KCgtUlRZ4S+Asi/fr0cXI5LM5YjvkTADM4PHRPLPKIqzwFwFYvhABASjwKIF6D2/lxwEDlhdlTWSl9nxEgQp9P+O03wcWOpw/XGRCnbetv1BjRdGPM8L3IV4Xk0qVLXptpBRHGK3l5Ks+X94jO9LjPSiASf+m2DFm62yutssOPu45flHph26RemHsPvZxOrz5pm1SL2C/VIvbK8VuP5d+//5ZnVy/Lnf175OzC2XJ23Eg51LOrRLduJDGNasiemuVkd9VSsrtqycRPKYlpWF1iO7aS07+NlnsxB7M86TyCCC3jYqrKFSo6d796EddPJiMLJy63t2/b7jMxMEfVk5rJVLt6DY/nJ3C0x90lTD4+FcuVU7J/62Ts8W13j2Xv2LbdBYBIt3/fPo/x/QWRhiGuTv2SEy25Kxgg8cXUd+jgwU7AAkQWplA5jmfb9ArpDRfQy2cAACAASURBVCLWsQc34f3j0FPpscITumHKfsQH325WEKFcxcElW6bnOul6qLyyECfC6fVvZ0VK7AX3BgjpNZYyMt8jl25J/bBICZm6U+pM9Owbq27oFnWj4aoD3o2NMNrB7fvz+/fkyY3r8uTmDXnK5/Yt+fA6exkqeAUROpGrYVHY4iqCCWidCHpCAwS8x7z1wvnkvfau+f1358Kem51hULDcuH7d7ZjhWlMmr5543bt2VR5csaqhTH6rUKasR1Pf33791QlYxEdchKLeU/AHRBCFYCigaUJd/OVEPNXD3Xvu3WDRhBbQbPTIUe6iZeq7jAKR3Dk+364J/b19GJ+abpg43/Fyi6KVeHYQge7eyknuNz1f9FjOKuIsaPJH7HnpOH1LtrwX/syN+9I0fJvUnxYldSZ4BhDcvDeaeVBG/X7AOky++O/Jgoim0PXr15UY6Kv8+dWEZMJYJwXfWdg4i7B0yVKdzO2Ti6o0d0G63LmCPN5fjViNfFX+FtFVg7r1FBDpepw+fdptWa1btXICFgtJcgco/QERh9PKas78WaxaNGvmVc7utpI+vuzbu7dzMaTdZUqWlFsezFN9zDLNo2UUiATlyKHGBTR394E+vOdSKnQfY0eP8dtU3R2IuCvLl3d6nOo5Q5qsBCIfP/0pDSf+IasPup9naT6QMijDszcfSHOfAGST4kC6zdkub9+l/nbEDGpehhTjM4jo2jjA5GcFAizu9smhJ++k0FCdxO3zm6+/di6+LO7jxo51G0+7qFD55szl5HQmjh/v5DCYkJzItgdurkP+r+tIPM6BeAv+gAj5tPm6tbMeLBCUwc16KTnp7q1e/Dbht/FOQNVlcW84d5AHSkhvEKEvC+TJK3Co6DQuXrzo9sOtm/zGoUz0aikJVhChX4cNHiIXL17wWq67+lBP6jOgX3/nmCe/rAQi0G9N9FnlAv3eE/+uh0gJ7TMizfHLt6V5+PbkOZAJm6R+xB5pGb5Vbj/2bDmZEXUOxDL8BhHdiGvXrsmIn3+WAnnzuSyiLG4aSBYtXKijJ3nOneNqqdKqeYskcVgAChco6MgvZ5C6dVEfEIyJiXEBB8xq7YHT8HrnR504ZJecPsBfEFHtsCj69eKOuI0LvTjchnsWrMRSG3CIicgMEaBulzr5nzOnfN2ypTpAiDgxM3xm6bZlBIhgneXvPTe6fv48rSCCDs+Tjy1f85wza7ZzrmRFEPnzr7/kmxk7pNfCKLcHdX2lQyDE23vyijSa4oMIa8ImCQnfLQ0nR8rJq/7fYRMIbU3vOqQYRHTFrly+rBZLtbhZRFz8XyBPHrl27aqO6vJksWNh1x9cUbx44YryUbs/mwPD9fwyerQzD3xhcWmWBqyqlSqL3WyXK3uZrCy4LALtvmnjTO/pi78ggn6lepWqLhwC5VEvZXiQK0hxbfi1wiJqxfLl6lzMp0++uVKx1pMddc/veoi+OVIDCaBCO/UHn1noT+bPmyeH4+K86oCs+afF94wAEQ7EpuRSKn/bZweReXPm+puFS3zl9sdyIDWrcSI0Zv/pa9JkfrxM23LYpW1Z6Z/Vh05L3UlbJGTqrmR0IJuUoj0kbKscPO1+HctK7U6vuqYaRHTF1q1Zo067a59YauEOChZMYN0FdX6jdh3nIh+cM6da8Kxxf/v18/kQFmX7aW4WVBZqDUSXLl60Jlfgxu/UhQUWUEku+Asi5Hft6jXl6FAv4ih99QLPUwOdBhXeVa1YSYk3UMT7c+aBRbpnjx5OwCDvJGU5fWYFKa4FsOU8CiI/vBKkZzAg4pm62QFEaN2Q5XulyYIjsubQKc+NDcBfPnz8KGGb4pRoqt7k7ckDyJQdyuR3+3HvpuAB2NQMrVKagQi1RnyEYl0vbDxRoD/wcB+24xChVpoHy6yZM10az4luFmbyQUGKpZg1/L56tROEiLdq5Urnz3AleM+11gWfU8mFlIAIeXJwEG+6mPyyqFMfBRqJ3JbLQs/vieamxONO8hkR0z1amLmrMx6J27VpI3mDc38uK5FW1rL4Dg00gBUrXFiJIdPr/ngDIu56y/Euu4DIg2cvpcnUbdJgxn7ZGHfWc4MD6Jerdx9Jn0V7hOtrOUiIpZXHDyKsqTuFmwq3HnHdmAZQkwKmKmkKIrSK3S4Lo17I+L5h/Qa3DUbUEpy4k2aR69alqzMeThMLFXAAEnl0aNvW+Zv+cvv2beVAj0WSOLi10AHFNu/0b1jo+KKXSCmI6HIROXGCHvk3J/s5ZwMtqIteyDWwOWmUeFqd8zbPvBw21GVYn1evXFXgiYPKOjVrOunhqSwFKEHB6rzN2bNpvwAYELH2juv37AIitGr7sYvScOYBCQnfJetj034cuVIudf9tPHxemgJ60/d5Bg4NKijRp0VJ/bAtsufkldQV/IWkTnMQ4exEtUpVnEDC4sk5E3eBi5Mqli3nWOhz5pJypcsI93kQ9kRFObkIFsTZs2a5y8JFjIQuQLuxWLP681kU0nNS25eQWhCxl8Giiuv1TRs3yuiRI5VFDvodDXAaSHii68BpY0qtieC+OG/DIVEcPaIDKvpVIVUW5VnLog6VypdPc32JARH7CPj8f3YCEVoVuiFaGs+NU7v2ebsTUjxuP1Mobb9dvfdYflp1UOpP2yMhU3YmI75ycCYNpu+VplO3Stz57HWPStpS1jW3NAcRsh80YIATRFjAvbk1QdmsD4KxyCWccDgTxOSXtHrh83QSPHTCRBWPHTafy4muLAYPGuRMz/ujPpxQpu5pDSKu5Hb8d/XqVQmfMkVKlyjhpBPtREFOXU+cOOEuWYrecWPl8qXLpGb16i5lUR70XbrE/a1+KSpMRAyIeKZcdgORv/7+R/ovjpJGc2KUmIgF+8HTzDf/ffX2nSyISpBGkyOVyK1O6JbkOZDQLYqz6jRnl1y49cBzJ5pfklAgXUDEekqchQp35J4Cvre0Mp64C+c7/GDhnVbv1nF1AtfiLmD2qgAkUWT0++pVKlrt6jVVvuge0Dmgs/AlZASI6Hrcu3svqV+wXEEyf27yBgA6D1+fcHgDfxjgpDUgAn1xQZOWwYCIZ2pmNxChpc9fv5XOs7arBRhxUevp22XbscxRRL9++06dZWk/a6cCD6U89+LCxKET2aSU5+hKBi/fJ09fevZm4blnv+xf0gVEcPeuxScAA64mPAXs/YsVKqyAgLh9e/cRDglqBT1cSh83Z0B0flwogxgMIKLMIT/+KE+ePLHoBoIFn1O+howEEeqEtZTLTXu5gpTzS1/r6088xGSNGzRwcSPTqllzf7JINq4BEc8kyo4gQmvvP3khnWZuV9wIZrP1w6NkwNJ9cvxK+loCako/ev5KVh48I+1n7pAGEfscprtax5HME/0HCvR5u477pDPVZZrnZwqkC4hg/65BhCe6AG9BuUNPVIJzaRAeUeEu9G55xfIV3pJL3169VXmkaRRSX3DZrdPz3LVzp9f01h8zGkQou3OHji70Gjf2V2uV0vR7RHi4S1mtW/ruut6XihgQ8Uyl7AoitBiLre/m7VYcSd3QSEG3UCc0UoauOij7T1+X9+8/eCZMCn55/+GDxF24KeM3xEqTyZtVeercRzKgoS2y6k7aquraYdZOiTln9B8p6AJnkiQgglUUp7DPn0vekaIzF8uX06dOq4N3+qwEIILDRW8B0IALATQ4VV6zWjWniAoFcHIuuzesX+8EEU64o2AHPBBllShaVHA/72tIKYjcvXNHElKoy+jaqZPLwr5ogeeT/rTj3ft3ypza1zZZ49lBBABOy2BAxDM1szOI0OqXb97K0JUHHEAStlWZ0gImmMu2n7FNpkXGq4X/2Svf74LR1ISLvvP4uew9dU0mboyVdtO3KjEUIrR6k3ckr/NwgssWaRCxRxB1hW2Olxev/a+LrpN5OijgBBHESjNnzFDKXlx2VCxXXjCh9SdgQov7Es2FsJDj5wjZv7fAHdf5c+dx4R40F1Krhmc38TpP8qccK/dBeoDJm5t4nd769BdEcFU/cfwEdY6FMv3heigXgCtdvIRL3T0ZAbx88VKdRalVvYai8eSwMGvVffrOpVm6f6DPvDTWvxgQ8dwN2R1EaDlrwJydx9QirbziopMIdZwObzB9v3rfYmqk9Fm4W8K3HlViqJ1Hz0vs+Rty7u4zufTgpRy9fEcOnL4qG2LOyIK9Z2TU6v3Sdc5OqT9xo3JBAnDAdcDxaM7ClyfmyFw41XPhHgVmnnvK/OIPBZwgwulw7V5dL+DVq1SRK1d8s5VG8T2g/2cHc2oRDwpWp7J9qZB2tEg6/WGRQ7/iS7Aujjo9i+Xvq1b7ktwZxx8QwY9X3Vq1JF+Qwy09IMbZlkMHDznzS+7L8GE/ORd16gsXZXffovMYPHCQ5A/Oo/Q/itNCCe/DKXydfuXy5S5gBZfHbYlpGQyIeKbmlwAiuvXR525I57kO8ZZDwe0woeU+jnpTdqizGA1nHFCnxzG/5R0cBXF5hhAnfLdSkCvQCN+tOA+fLK2cXIejTAAHxXmb6dtlbczZTPUtp+mTnZ5OENm3d5/DuZ/FjQaLWqlixWX5smVJTotrInCZ0tbIrdKofgPnYsgiTlrOKPjq44gT21qk5QSBnLmEk9m+hIhp01zK95ULsuftD4iQFkW+1ZcV7YYrWrJosXz44FkOjAv3QQMGutSZtGvXrLFXyfn/6lWrXHx00UY+Y0aN8nqpFRzM9IgIBc7Eh74AyE9DhznzTqsvBkQ8U/JLAhGogKntnN0J0jBsi1rEuTXQLceACa6njw0Q3KZ3EwcuhfMhANA307fLkr0n5dUbxxk0zz1kfkkJBZwgQuKxY35x6DMsQMKiw+JWtmQp4XrPDm3bKXcbPHFLYnWC6Fz8E/Ub/lyde+b0aZcFlXLRb/hy4x91P3XypGORTORkqDN3ifgb/AWRF8+fC+bIViDRNKtWqbICiojwaTJ9WoT6cP6lY/v2UrjgVy7tZVHv7cWKjXYgF+7Pdbw2F/y0lX7Ap9aUsMnOsiZNDJXvvu2u+o44VgCpU6OWX7oiX+loQMQzpb40ENGUuHb/iUzaHC8NwiIdFlzhiKJ8OLvhBhy8gQh5aq4Djub7BVGy8fAFeW3u/9BdkS5PFxChBBa8fMHBSRYqvTCyGFk/emECQPjOAseC5g+AUO4///wjtap9PhCHaW/3bt18brTDV1Zl58IMV2P3xeVLZn+sW+dcbGkPnNj7xFP0ntIDdFiYabo4wTTRZxU0sX6sC7pOgxm0p7Mw1nKROeMBIHdOh85H01/RHtcqXsrS/dOkYUPlnt6ab1p9B0TKl8HkOpHjyRUk0DQ14dDBg04RJ23g+gHc66d3cL3QLEi5sklNmVMnT3Fy2/R7k4aNUpNdlkt78+Ezmbv7hFKyI75CxITISnEoKQAVJRqb7LgPhLwAjm+mRSqF+bErd7K8u/qs0sFJQISKczqcQ2hYSjHYWZjUYmdx3c5k1mczWPD5vUjBr9SZjNu3U3YX86+/jFU7evJiIY6NjfWLjiOHD3dJn5KLoXAZQttU+3IFKR9T/hxUbNa4sUNcZPOVZc1T05R3tapXVybNfjVURKKjo5VpsO4b3Qcs3s6ynN58Hf3D1cBhoZO8itn8rYc9PkBYoWxZtVhSD+q3edMmezS//o8/HP+5TYniQqwI0zu0atFC1Z92wGnqg7ApLRdulHw0Xb40ENF0e/f+vcSevylTNh+WbnN2SggK86m7lJkuYIDym7MmWHWpzxSeu5T+BPGUAp9pUQp8mk7ZIn0X75XZO49L3Pmb8sZwHZrMGfZ0CyK6dOT2uMxAoYvVVZ2ataRmtepSs2o19axbq7a0btlKAQcedLn2NjWBuzkAsJMJJ1N0M+Crly+d6VNqogxgIFrT9bh586ZfTULkdOzoMcGUtkf37sKuHw5L0yykTl0lEhwzarRwXwo799QE3LwsXLBAfujbT1o2ayZYbqk+qlZd9dc3rb6WYUOGyLq1a9UhzNSU5Wvaq1euqD500DBBuPslNYFLtk6dPJXYJwly/vz5DPHThB8yxqJuhz+m4u7aiwWkzot8yf9LD3DWtx49l4NnrsnifacldHO8DFq8S3rM2yVd5u+VLvP2Spf5++TbeVHSb8FOGbFyn8zcdVLWRZ+WE1fvyePnvpvvf+m0Tq/2ewURd4WySOqPu9/Nu6QU0PTimd4hI8tK77aY/L9sCjBb0n/GfNk0TovW+w0iaVGoycNQwFDAUMBQIHtQwIBI9uhH0wpDAUMBQ4FMoYABkUwhuynUUMBQwFAge1DAgEj26EfTCkMBQwFDgUyhgAGRTCG7KdRQwFDAUCB7UMCASPboR9MKQwFDAUOBTKGAAZFMIbsp1FDAUMBQIHtQwIBI9uhH0wpDAUMBQ4FMoYABkUwhuynUUMBQwFAge1DAgEj26EfTCkMBQwFDgUyhgAGRTCG7KdRQwFDAUCB7UMCASPboR9MKQwFDAUOBTKGAAZFMIbsp1FDAUMBQIHtQwIBI9uhH0wpDAUMBQ4FMoYABkUwhuynUUMBQwFAge1DAgEj26EfTCkMBQwFDgUyhgAGRTCG7KdRQwFDAUCB7UMCASPboR9MKQwFDAUOBTKGAAZFMIbsp1FDAUMBQIHtQwIBI9uhH0wpDAUMBQ4FMoYABkUwhuynUUMBQwFAge1DAgEj26EfTCkMBQwFDgUyhgAGRTCG7KdRQwFDAUCB7UCAJiLx//15ev36dpq3773//m6b5BXpmf//9d6BX8Yuq3z///PNFtTcrNvbPP//MitU2dRYRJ4gcOXJEOrZrL0ULFZZCBQpInRo1ZdHChZIaAGAx7dKxo4TUqStv375NV4JH7d4trZo3l69btpT2bdvKd99+K+3btFX/t2reQqIPHUrX8nXmZ8+elRpVqkr4lCn6VZo9jx07Jt926So3rl9PszxTktGnT5+kX+8+MmfWLI/JE06cUHXVfUC/tG7ZUn795Re5ceOGx3Sefti6JVK+7dpVHjx44CmKer9k8RLp0b27vHvnGG9Pnz6VWtWry8AfBnhNl9yPly9flm5dusjJhIQkUakTddu+bVuS39LixZrVq6V7127y8uVLr9k9e/pU1YO54G+I3LLFUcaLF/4mTXX8PbujpFrlyrJuzdpU52UyyHgKKBA5dvSo5MkVJCWKFJXJkybJ7JmzpF7t2lIwT14ZNmRoimv1119/Sd1ataVMiZJpzt3YK3XwwAHp0qmTdOvSVerVqi15g4KlQb0Q9X+Xjp0kPj7eniRd/j969KgUyJNXRo8Ymeb5b1i/XvIH5Zb4w4fTPG9/MoRTDfpPDunYrp3HZFs2bZb8ufNIg7r1VB907dRZ2n3TRoJz5JTihYvIqZMnPaZ198PE8eNVn144f97dz853fXr2UmU8e/ZUvXtw/77aFLFBSk2IiY6WvEFBErl5S5JsLl68qOoWFhqa5Le0eDFs8BDJnTOX3Lt3z2t2d27fVvWYHhHhNZ67HyeMH6/KuJ9MGe7SpvbdH2vXyVf58svihYtSm5VJnwkUUCDCBCuUv4DcvHnTWQVEAOPGjpXNmzY536Xky5s3b+TVq1cpSZriNHAdgOKJEydSnEdqErJwpYcIhd1inpxBcvzYsdRUL9Vp6dPCBQqqHb+nzLZt3aoWtLjYWJcoVy5fkaJfFZKGIfXl33//dfnN2z9wdiykly9d8hZNfhw4SHL933/k+fNnznhwIx8+fHD+n5IvAHfunDllx7btSZJfuXJF1W36tGlJfkuLF2NGjlKgbeXCoqJ2y6wZM12yv3f3rqrH3DlzXN778s/UKVNUGQ+T4fR8yctTHObE2DFj5OrVq0miPHr0yOXd//73Pxk/bpxA25QGJCHjxv6aIs43pWV+iekUiJQvU0a+afV1tmn/3j17FIjExcVlmzbRkEABkXfv3vkMIvv37UvSB0xsOJnHjx8n+c3TCw0iVy5f9hRFvXcHIl4T+PhjIIDI/fv3VW1PHD+uuDxEhdagQWTO7NnW1z59T28QARR+6NtP8gXnlpM+cKE/DR0qeXMFydkzZ3yqv7tIgwYMkPzBueWaG9ByF9+8SxkFFIjUq11HSpcoKc+efd69WbO7feuW9OnVW3bt3Ol8zaCYOGGCDB08WFhUdEAWjrz8xHEHF8Cu6Ldff9U/q2fCiQTp1rmL1KpeQ2pWqy5tvm7tluOZP3eeEofUqFpN6tSsJcOGDPFpQOyJilIgEmvZBTOQGFTsfs+fOyeDfhggC+bNc9Zr/R9/KCBFn9G0UWNZvGiRy0751q1b8uPAgUosdzguTnr37CU/DR0miNGs4cmTJzKgf38ByKxh965dSvxTvXIVtQufOnmKvLDInxG3Mcnq1Kwpjeo3kGnh4UlEgL6ACCKPcb/+qkR50Iz+ob3W8PHDBxny42C5e/euXL50WX4cMFAG9OsvcA/uAm2fFBqqOI/VK1cpuhQrVFjpndzF553mRPbt3ZskyoTfxisQQSy2ZPFiGTNqVBLdGxzw4EGDnByEA0RyKpEOMv9ePb6XX0aPkXO2ttlBBIUt/bRs6VKXepw+fVr69emj9CWIXEePHCnXr11ziWP9JyUgcvbMWfm++3fC+KVPaas90KeI+pgLX7doKStXrLBHEc2JwNEfP35ciUsR15YtVVoQ1UaEOzggRFFwa6tWrVJ9y3xhTG3zQVfjDkSYf9ANGiKqQ884c8ZMefjwYZI6Ru3arXRezGfa0uPbbyU6OlrFgyPo+d13kj84jxI1tmjaTOnLNFeJjq9/376CqJJ1ZeAPP6i4uXPkFBW3a1dnPyNW/KFfP2GeWcO1q9ekf5++gu4Kjof5CYBAD3Si6BJvWnRxS5csUX1CfRlLjAcTUkYBBSLz581zyK9DQuTokSNJcmLHSGc0qFfP+duVK5fVOzpq544dzve9vu+pdhunT51S75o3aSrFixRx/n7q1Ckl5uD9zOkzFEveuGFDVT6LiQ4jfh6u8mdHgqwUNphdDDL1M8l0uDsQiY2JUcAyZfJkKZg3n3yVN5/06dVLFccEIW/A9Odhw6Rls2bq/769ezuB5Eh8vATlyKGUjyWKFpXmTZpIyWLFVVusIHn+/HnJFxQsU8Im66bI8qVLVbyqFSspIITrQ19QpUJFtUiuXrlSlVcgTx41gRAvskg0btDQBUiSAxFERYiZ8gQFq4UJMKNdBfLmE+qvw6uXLxUde3zbXcqVLqMmU+UKFSVfcLD07NFD0GXpQD+iw6D/AddqlauoxaR4kaJq8ul49qcGEbv+ht102ZKlFK1Jo2ltLZP3gF9wzpxOZXJEeLiqA3qvKpUqSYumTVUbcucKEiu3YwcRpb/JkVM6WPQ31An6FsyXXwFV927dJG+uYJW/HZR0uzSIHNzvumngdxZV6GMVZ0FvaF+hTFlhDHfu0FGVCVizUBIAtwK580jFcuVUPZo0bKjS9OvT1wVUNYggRmSsoFvKG5xbiQW/adlKJvz2m8qPDQRi3E7tOyhjliYNG0n50mUkX1BuGfLjjy55qgSWP+5ApF2bNlKlYiVlsFK9SlU1Tsi/QplycvHCBWdqAJ/2M57mzZ0r4VOmqjbR/vXr/lCbTAwP6taqpeIxz1q3auXc3AAMjnVkpwIAgLdBSIiKC8B/06qVAk8KnDNrtppfGoB0JQ4dPKTyYCywqQWYQ+rUcSnvWuImYcigH1Vf0Cfom8qVKq3i7Yly3fjpvM3TOwUUiIDcLOBMLD5MVLssGysrfnueyK2wQ8mTM5f6jBg+XJVCPuyO2G3ridKhbTupUrGisxYsUijw7eG3ceNk3VqHdQbyUcBi2tRwl2jsqIf/9LPcsuhuXCIk/uMORFB4q4Ujbz61S37/7p1gznz3zh01gDq2b++sM9lQDpPvcKxDJAYLTp1KFSvulMtjcUZ7yDf+sGORvnTpksoPgCQQh4WdiWOVy08JC1OcDe+2bd0mndq3d9kJL1qwUE0KAF6H5EAEqycWkHVr1+kkSqaM0rJ54ybO9rGwopegPYcOHlRxscJDec1kXrP6d+c7FiLSa+BmV6rBiZ2fp7B96zZFl84dO8rI4SNk1MiRauf/Vf4Cki93buf4wpKudPESLsBFnmo8Bgc79WnTp0WoukEn6k9Ah1e5QgW1CGhu2A4iLLyU+f133zmr2rJpM9UnViuxTRs3Cos3XLe7ACigE+nQtq1qz4iffxY+o0aMUFw6i6vucwCxaqXKUrNaNXn//jOXTl+ysO7Y7tCrhE2apHbMjEMdhg4eohbJuMRxx3sNIlqcxTs2MHAh1oA4CzAsUuArwZKPQH/9PHSYytMqSbCm47s7EIFTYzywgdPzmXWB8Q7460A72e1bw9s3bxR3d8ACuliZQSc2ktYAQPPeuhndvn27Gp9nzrqKs9hQAlh2ERX0Ig+rBABw451VBMp4553VshBLPqxRy5Qs5TJHrXU03z1TQIGI/hn2s03r1mrAMVAQ3/yVaL/9++rVavDExsao6IijGtYLka6dOyvzPF7evn1bdTDiCh3sINK29TdSuMBXcu6sq4hFx+cJe8uE7durt1rorb/58t0diGCBxgRmR2sNDqubYJcBzO+w1gy2ubMdSkpABNBkJ2QNLGS8nzwpTL2GnWaQ6wWFAYxs1zporem9fYej6PldD2eU5EDEGdH2BVEC/YkYi8AiDIAgNrAGFhy4tK6du6jXT588UfEQ9VjD61evFC0BUE8BBTTtrlqpkjRr3FhxVXAyiKisFla+gsi0qVNVf1jTUjbiH9qmOejkQATRCgD6fffunqru9j35QzO4R90eOMVmjZtI7eo1VB1mTp+u0jImGAOzbSbQHz9+VHlAA08BYGPczbMoxzWIaMU6IFWiaDHF3VjzAURIy4bMGhCbUh8AylNwByI9un8n+fPkTTIHoTG00GDOxhGxkK6fpzJWLl+u6seGzhrcgciWzZtVGXbjGH9ABBE19LCKzF1G3gAAIABJREFUczEWCsqRU9hcWMOSRYsccZOx/rOmMd8dFHABEU2UA/v3K9EFrPbwYT+p11gcIV7QiyMTccb06WrxDc6RQ96/ey+7du1SHcGCrYMdROA2mPQM6tYtW0nEtGlqV2oVZ7CYATbsgkqXKKF2viwWV68kterQ5Vif7kCERYABtWvnLmtUVTbvrTsYIsCuU8cZEY6FISEhQf2/LdJVb/Di+XMl3x+fKFKwgwj5sJjOnzvXpVx3/yBK4bwO9NPghsmqDr6CCDqMI/FHhMmKJRfiD7iJD4k7Xg0ius46f3abiK7oMwKWOijA4QKsgZ1zkYJf+WSdpTkda3rrd19BRCvW7TvQvVF71HjSZyN8ARFEccjg/QlanIXs3x5u3LyhxoYWZ2lutELZsmoeYYkG4CBeQdSJvF4Hxj0bFPqdvtq4fr3Ka+rkz+JQO4hwTgcQgeu0Bq1YXzB/vvW14oZZ9Af0d900WCO5A5Hu3b6VwgW/SgIi6POshhFhoZPUpoJ5xKYSjsvdeZoVy5apOUhbrcEdiMBFUGd0QNbgD4j8sW6dKu/c2bPOLABYLBzr162r+oS+YXMDEFJ/5rkJ/lHALYiQBQOVA2IspI8Tze84NAgHcufOHUcHHzsm7EpB9pjoGJk4foLa5QECOthBhPcoo5ns7OrIH1BBGYfeQgfEE4h0ULojjqCDidu3d58kuwidRj9TAiIovq2B3QvlaTNKDSIcerMGDngxoTAyINhB5BJnCBRH48rBWPNATNGiWTMpXLCgVCxXXiqVryDly5SVPLlyKYW3jpsciCBORLzCORXSkw+6Dv7nrI4dRH4dO1ZnrZ6kR2GuF6dHDx+qtiHjtgZ2cb6CCBsSbwG5O3WzbiKI/8vo0ZLXIs7SIGKXhe/euctvEGEBRt/lT9AgsmvHZ+MSnR5ZO2PFCiJwp991+1ZWrVgpq1asUJ/fV62SbZGRTtEgC2S1SpWlZNFizr4qW6qUGi9W4PYXROwmvijkWZAHDRioq5zk6QlEChUomOSgMKBhBREy27Jli+KaEU1CC+YrSnHmgw4pARFPnIj9wO3hOIdIzLoZ1CBi5UQUiOQKFmik+4U+Ii5zO6OPI2jaZOWnRxChUZs2blID+ngiZ8FErlCunCDLZWHXcmhOBA/9cbA0bdTIZZdFHu5ARBMMOTwiMNh+Bh1A4u6EPDtfrL26d+2qFNL2nZbOTz+9gchO2yLAjp+y7VZELFaOhcGxC9cgwmCzBs4jMKGwaSfYQURzIosWLLAmc/mOdUiBvHkV240Ohc/z58+V8rT39z2dcZMDEX4HkNFXwW2Qz6ePHxXHgCLfXxBR3Od/cjitf3RF2GDA2XAy3FPQinU7Xe3xARH0TFrmrn8fO+YXyRMU5JzUGkTsi4cGEa1c94UTKVa4iLLw0WX58tQg4ss5EcYAG4cVy5Z7zBqxGkYKWG6hENf9fubMGTXuaK8OdhBhkwY35U4nwpjNDBDRdaVucGKjR41SkgSU7TosXbxYzTU7MLjjRDZu2KDoYDcHXjh/gRIf2y3p0Ekyj60gsnbNGvXOKgIdPWKEYIxhQtpRQIEIpm/ulNWTw8JUJ+jd3/lz55VSFGurzh0+s9KTJk5UsnTEXfZF2g4iAI9VoambgjKf3S27YQKiFJRz1sBEY6BYraGsv+vv/oAIbDcLr+Y4dB5wJogefl+1Wr3SOhG7HoDFEl2LNiHVogwt9oNrY2L/ZDv5D/eBvoTFE6stWGpr2Ldvn6oX5ow6JAcik0MnKZGjllWTDsU9FkK4s/EXRKA/YIHY0RpQMqPA1dZt1t/0d19BZMRPPyv66DGm09evW08dgNU7Q61YX/u7Q+mv42H5xJjQYq7kQAQTb6zDMLm1BsSx7Fg9HYD0B0QwDIE7t+/8GdO0kz7X3AFGB9bAuMEU1hsnQnwUwXCZ1qDFWRkNIi9fvhCr0l/XqULZcoLFmQ6MX+YURgzW4A5E2BQwL7FGswbmNnksXeJqLs2aQHzrpgVFPXGxENMBc2jGi1XExW/oaPVY03HN0zcKKBCBvUfHgZiJnQSLEDJJ3DxgncOuiQCXgMkdupLFCxc6S4AtZ+eFOMa6gBEB3QYmjDrgDoRFdeOGjQowAA10ACxW2oIGH0Eseo3q15cb12+ocgEQziowAKznP3S+1ifycQZUjEU8pha+oGDZsf2zOTJp2FWzG0Tkw2/Un3MgmEYWLlBAHj50+GoCRBAJFPmqkAz/6Sclelu1cqUUyp9fLdIvnjt8DuECgzrqRQCaQQMWXeKj5MRyBrEF8eCysOeHfvyOXJyzGKWKl1B9wpkbHVA2ko9V56R/40m7mTSDBw5S+hD6k0mMnoPdvhVE6INfxoyxJlf9AZAD/DpAc7gYLLGgCwYWLF6MFyuXpOPr59bISAWu1p2h/s36VAYMQZiNlhXah0gTm37yRzSi/UVNmxKu6sF5JvRLhw8fVn64AHA9bsgXH1lBlhPriN7oW8446PDbr+PULnnShInqwCPcjaOPgjzSlrYjXsTqzB7gPOhLlP86dOrQQY3B5cuWqT4/ceK4Ellxmp4T9I65VEttnBh3jAks9mhzgTz5lJmszmvU8BES/J+cLgv1wgULVBuQAODuhKAV63aFPosj/e1NJ8KGkTKsJ9ZxIYR5uF0JHTphooqL4QUBnRv9BY0AYdYL/IhBE0zqdYC7ZlyXLFZMGB96XSEd81VbrRGf+V6pXHlFnw1//KHmKe8xTqhbs5biRtC9kBYAoXzmECCjA2OHDQPiQqQqlKclBRxXAEiYjxgxqHnjxeBB52meSSmgQITdHYsMnASLJAOHQYf1lZ1tVBMwdx7hcI8OWtGHOac9tG/bTplh6vfsvrFoIX86GIUWizPnRrTrAwYi4h8WNH5jR8Mg4Xv41M9svs7T/mQgkb8VbFCs887OKZH2woUL6pAfv2ONoupWqrRY7ca1OAvDAKyVOAiF3BvFnNXSjEFKPTUnQv6IKzjXwCKEfT+/o3tYuMABxBycYiJSLjtY2r17927lEBP7eh3YyeXOkcuj2xN2uIjVWFjJhw8L04rly9VC+uH9Z+ssRHDudCIAjtaJUC4Tj3MILMTUD3NlFgDidOnUWVctyRNOhEUkOZ0ICffsiVJOK8kfIw0OyEFnOF59IBNut3L5CsowQo3VHDkVHbEgtJrIwonQthcvnqs6sQByHsQKNMSHi6J+iub/yaGemBWzSLkL7JapmztxFm486FOtEyE9okDMXlHi0h/8zhhGHKO5HQ64cXaCeUfe6Ag5l8NTW/uRF+IswMd6yI88sLaCa9HeJhhnlGPnRNgY0U47Z2RtJzoRVYbF7YknxTo6EeLqA3+Y8VavXFmVXa50aSlTsqRqEzS205NNAkAJaAAABAeXx9x03eCxoapUroKinxUc4O7bt3HMF9qLrzwkB1gW2s2YyRvTXco7fdphWoyvLr22MB8ZB2yWU3M63krLL+27UycCatNRyBGZwNhda9GSlSgMSBZKe0BEpQeV9Td0Hldt/m9Y7OAMOI/AB72EO13Is6fP1O6E3S/melpkYc3f3Xd2MSzs1nMZfOcdv7kLKHbxuUVZ0MG++9Igogf6rZu3VLvs9YaTY4fDbtMaiMeAXvP77wrI9C7OGuf69etqEWHHRsDKigmjA3XiFLR9Yurf9ZPDoSxGcHGEd2/fKrNaXVcWIEQ3GrR1Op74KqLP7IE6od/Ri7q9bvb41NXeB/Y41v8BKzYYWtTJxgRw1wsubeIwJQEQoC7u6o9YhXS6rTz5n9P59sAijo4LrtvqN84ej/8d4+dsknHBb4wdd32uxzmbNLiNp09cxwRpafeli5fUAkabCXgR0GOA/x89fKT6y918PHb0mJo/Oi/61ZqW99QDDhlg8xQYr6S1lqE8GriZ68xze1zqDueL+Jc5BAB4CtRvx44d8iTR7Q20ZVy7m5uMIywq3ZkPMwYRH9M+Agd93eXBmGXzaPWn9uTxE7UhYD4yL/U481Rn894zBZwg4jmK+QUKaBDBO60JhgKGAoYChgIOChgQ8XEkGBDxkVAmmqGAocAXRQEDIj52N2aJyE43bXC1LPExuYlmKGAoYCiQLSlgQMTHbsXfD4o7+4l1H5ObaIYChgKGAtmSAgZEfOxWlKcoua3Keh+TmmiGAoYChgLZlgIGRLJt15qGGQoYChgKpD8FDIikP41NCYYChgKGAtmWAgZEsm3XmoYZChgKGAqkPwUMiKQ/jU0JhgKGAoYC2ZYCLiCyb+8+dZsgV7tyQlyfTvan9bgasXve9Cd9auNy4nnBvPnO07Cpzc+X9JzAxU2LryfqfclTx8GXES4dtMdk/T6jnup08fbtyhcSLiU4zU998HOEaxPrifqMqlN2LIexg/NATrC7Cxh2cDfLzp07Fe3xTUV/cNo9JYFT5/Sj9k3mKQ/c3O/Zs8fpqv/vv/9RPt6iDx7ylMSn94ybqKgot94XuKOHutlP3vuUcTKR8GDAyXpfXJzgFQG3PSk9zc7pefzZufOskEw1U/0z13fgWwwvGOkdFIjgRoLLZDgHgRlr0UKF1Hec3eGewJ+AY8GvW7T0J0maxh09cpQUyldAli5Zkqb5essMNw+F8uX3enOct/Teflu9apXqC18Gvbd8UvobEw4fXPh3yvWf/zh9TeGziDvnlyx29aaa0nK+9HRDfhysfLE9S7x+2k4P3H5wvwp017THRxg+sbivXDthtKfz9D/uPvAnRf96CzgHDf5PDqfzR/yEcVkc996kJuBbjnzduZsBTKmbdu+fmnLsaVnYWee4Xz25wF3vOf/v/5I4lU0unf6dYwGUBa0zOnAXU+F8+cV+8Vx61EOBCBcq5QsOllkzZyoTVpAXXzNcSIODO38C96m3b9PWnyRpGpdLoHD3bHVWl6YFuMkMv06Uyc4lrQMDkIXC7ro6rcvxlB8+kZjo3D2+Yf16NSlwNIh/Lbg+u48xT/mY994p8POwn1Q/ewMRQGPk8OGK9vQH9Mf3HAsVF8Zp31veS3L8qu/aSO7mSe6Rp1zt6h2OiKue4RRSE7hmmnzxf2UPgAdt8sV5pz1tcv8DItyF1L1rN5eocFx2yQu3inKnjd0zuUtCL//ou2HwRZieAZ9zdq7t7p07ak2yX/GB1+yUtke3AR9lf//1mWNWIFKtcmU1CHUk/WQh9sRe6zj2J3dqW12J2383//tHASZ7ZoKItbYnjh9Xk9t+MZc1jvmeMgoMT7xXJTkQmTnDcV2ztRS4bnbucbGx1tdev7OwsVDjdNRbALSsIOItrj+/zZ09xyOIAB7ULTkuyZ/ydFxAhCt/uXVSB7wJ42EZT9/W0LdXb3V/UkoXXQ0i6Tlf8IrMZt96K6y1DdbvUbt3KW/cqdnsAv54ereK+BSI4LfffkmPtXDrd2SKsTGxsmzJEuH2MTsbDYhoV+Ls0PGgar/sBS/A9h0IHQVK2j3UcomP9uyq6xGXWD67IfvhvzevXyuO4GOiR1TYb7zJ4nWUS7UogzrxTt8BovNld83Ojotw3N3njldT7eEWWfKF8xdU+QCtu3YigkC3xI1ueHL1JJ9EHr729zXqJjwWamvQIKJv9MNrqfbOa42nvyOahC7Llix1cYWvf+eJp2FktUsWLVaXadnLtMa1fmeyMbkRselAf+EhVgd2RVY9CZc9cacIl3bhAdk+FthBae+8uKpnl2NNr/PVT2jFvStwaPYxxNiEPnpHzu4SnYH+X+fh6/Pjh4+qX+3cFp5u6W+rp2Z0V7o+L1+8lHPnzrn1PKvLZtxCN91WxLBsFpIDEeudJTovyqJfcA5KXambffPHexYPPb80iGhvu3gOhl72YAcRaEzcB/cd9+xY43MnCv3MoulprOv4KQERuCB0cqw9eP7W3nt1njxZcxj/cM3uxrUdRPDkjFt4fZ8PfaL1jxpEKIcxxNjUHJm1TE/f3YEIY0bTmXLoO3cepnWerLXMU9YQuEZooAPt45ZOrhpYvnSpIIWhfQQ1vi5ccEoK4O64F4irCbjLiTGi1070Y7Tb6sGZPNQad+GC/JV43TnXCDPOUHkciT/i9OauQAS//1zKkty1s457MZop2S07H2SzNGDypEnOQVu9ShV1befKFSvU3RNMjGKFCzvzpkO4xY97K6wLChcp0chwy8U+LAj5cueWgf1/UISB3eTOdfKk3Nw5c0qVipVc3E5rHYK+grN8mTIOGfJ/ckiuRBky6ZEvW0VEtN0pb/5PDgnOmct55a0qPPGqXy43YuJxr4aW28I6khbA0IE7N9ghMEC5N6VAnjwqDouF7jzicsEP9VH3f/wnh+ok2oi4ggCIkDd3ibRq3lx9Jz6XHj188FAXp57IYKtWqmyhTy51pwVKNh24xZKLxbhHoXSJEkr/RX7cSWHfEOg0+ukORE6dPKnEA4Azl1QhL2/ZvLlKwpXG3AFC/vly51FP7lO33tMSMW2aug8eoOFeeNpKfO7/sLPoGHwE5+DOEYdegOf0CMf1xRTIAskFayxkwwYPcebFhVeRm7foZvj8PJlwUtVl88ZNLmlYCNidTxw/3vmexZZ7cjZv2ixFv3Lcg0P9qIe+DExHxiiBS88UXYJzKzEyF08xQZMDkVkzZuhsnE/GLmMRN/4YlVCuXqh0JMYj999wgRwBEKF89HmIn0nD/9+0aqXuv9Hp7CDC2GXXruck8VhsOrRrp+pPG3Reo0aMdBnrOk+eGkTcKZ31OLNyItxrxGVU1JExxrNZ48Zy/949lS0L4Ly5c6VwAQft+d3Rnq/l0aPP80SDSK/vv1cghPgdAKHOzEHuSYmOjlZ5ciFcka++ksgtkepCMdWuHDnVpXRsxJIL7kCEy+q4Bhx1AfeqkCdrTZ+ePeXlC8fFduQLwHD9Mb+XLFZcjWvuEqpdvYbyKA6Y6IvtVN1Zs3LklP379qtqwWHSLq6PJq9CBQqo/tFx0W8mnDih4nLvPO/tY0+vPWxgEWkz5hlDxOXDuk5QIMKugYlG53A50t49e9WP9j8MNirGAGTHC4rWqVlLDWA9GLikCTBgIQT9YE1bNmuuFn3ubSAAFICAHiTkxcUxpGvcoIFzh6Fvb8MKiIAyjIGBVQqDmQWsepWqUrJoceddJiwgTCjuKyFw/W1cXJy6MwDkHvLjj6ocLpbSgUt1aBeX9iDCY/H69Zexqo7Wu9GRo3IhEhdp/TJqtJqw7EzY4VEv6EKgM2gf+bEDZPdGnv369FHspN6lbY3cqmjeu2dPtWtlMnI3NXXBsoLA1Z5MTIwc5syere55YSBywyEX6eidCYDM5V1caESboQ904nbKZk2aONlP+rdS+fKKo4IlZYfFDoPdRXLGCHpyWzmRM6fPSJ6gYKlYtpzqZ+rIIsnApT5cvsWkpD70SZkSpRQA6/GCfJ3dUYmiRVWbKYPxQR8yhvTuCK6XjQ4gzCIOMKL05R2/EWgLgM044jIvdqtwPzWrVVc01GNCRfbhT8KJBJVu43pH/joJ5TOJrNc0Txj3m6oL84jJx5hjAaYuXJSlAxwxcnZEyBitxByKlt49e6mbPQvlL5BkIut0cLWMsZ+HDVMXxQEYcPRcOMb40JKEqZOnqHj2O38ct2IGqRsUyXPDHw79VokiRYX73Kmvur88V5Cag3pcuQORwvkLqIvDdN1oH+MdMOPumuvXrkuLps3URVueDELmzZmraMg10EgLqC8fOE3mMG3S6wNjp2a1auqGwqNHj6qxxNoCverVrqPmAOMJAGCBZvzTR3AsjCPWLeYgQYMISnMCCykbGTak1J+7RTTnOWjAADU/ka6sW7NWcfZcc01bmf/JBXcgMn/uPFUnAARpASLIUKWTzq3WN11P3nEXPKDPHODDWkp/cRkZm3E2s1xexnoBKFvrDu2YG2yemOdHjxyVn3/6SYEAG/z4+HjnZW6//vKLAgg7iLDBYMzBgTGfmT+IAekbOEINQgpEIAa7ae4Ph+gU3rZ1axcZIYOYiWNXtMMdaBEP+XDLGAsCherAd4jWsH599YpFl4ZPTbw6E1kklj4sitygR1mEHt27qw4jPYs1lZ89c5bOVj0ZpNQZlo+gJ5W7BQMWv1qlygqwrFwQu3qu7bSHpo0aqR2jlv/16vG95AvKra5xtcYFzKCNln2eOHbM0YFbku5+uQxHh2+7dlM7BC1i0O8RCenFkzz1BNW/8wwLDVXt1u3k3mqARXesjgtdABLNdeXPndfttbaIAXQ7dVr70x2IkC/9Yr+Hnbj08crlK1yy4XImxpemFYOf/7lG1hqYRPSrNhdvGBKiwMAah+/cT89VpwT6l90RC4k1cG0siznj25+gORG752bNiXDjow5wJdTXrqju8e23amzoMc3VytDLzikw1khvn8g6f9JjNcmkZrFkVwhnzbjr2K6d88IpFhXeATLWACdr5UTYnDCu9DXOOi5XxVKPgwcPqlfuQMTKiTA3mbMd27XXWagnYIIY2p3IiQhsEKGDox2O9qjvtI1bQy36GhYs6rR/v2OXrQuCQ2TsQHPKQZzDOLYGOCYAgjFA0CBi1Ymw4BKHi9ysYUC//moMa5Gf/g1xPfV77sGSTsdzByIAFXTX41/HZXNAnrSBwFoIeNkD48MqnkV0B23sV2ZDE+af9f4jLCkZA4C8NbAZYszYxx4iY94j8tNh7JhfVP31/zydIKJfHjlyRLp16aIqxoDVogd2Cfzvjp3WaXnScHa79tC1Uye1eOv35UqVdi48WPuwq+A2RSq9e9duFQ3gadO6tfoOFwEB4BB27dipdpiwhEsWLVIL+7ixv6p4oCydoRdXXR5PLGC4TnSDbWdZr3ZttTunQ9i58uF7g3ohqs1aHMHd3wXy5nWK7nTeDD7qrQcGIiNoxa4BFpuBYe14nY7dWgXL/fP6vfXJrpa82MFag6JHLuSbjl0ydCAeA8VKn3Fjx6oFVN91TlsBFejI5PBHaegJRCjXbsbIromJaV9ULyTeQc9OlMCmgMHObtQatIWO5kJrVq0mIbXrqH7RfcSNd5UrVFDsPmkBwa88mFpXLl9RTUxdBjtXFjk+mivSv+mnPyACnRkDdnr+vmqV6hcWFAKm9HCV9gAHCh3tE1nHA0TgYOBm4eygKx873Rwiv+RBROtE2L1aA7JyFiXGEyE5EAFQqfeI4cOt2ST7nR059Fq3bp1qD+IX9YmOlojwcDWH9dhBX8icZi4x5x39v1OmTnFINNB/eAqOeZHTeYbLHYiQH2OV8W0NWicCJ2QNs2fOVPXRN7aih2UcIfJBx6U3Y+5AhKuLabfWhel8tTEB456guKDcudU1ztABOrsLSHfoL00rHYf/7SBC2ayhSA+sITkQ0WOXNCOHj1AggvRIhyQgon9AFILcv1L5CvLvP/8IpmIMFneKPZ2GJyBi35Xwvse33QX9hCYwpoMAB+wb1lz6bAliLSYkHA7lwdoSYFEhPhOwdo2aalfKjpMPu1QtYvEEIijSGYi6HJVp4p/GDRoqwuj8EH/wQXfArkPLP7t17iKFCxZU7LQ1vR1E+I36IFqiTDoOMRgDQ9/zTBzu4IYmmoW15qm/ewKRM6dPq7wRUxB0uxFV1a5Rw0kfaIWIUcvCWRiRJat65QpSOidAH04mueANRDSA6jwYxExMbP6tgQFJ2cjuCRpE7OIXFP/EQzRGQMyZP08eqVW9uupz3UeAYp9evVUcuDdPIMI4bt6kqYrHHzYImgbk4S74AyKIBBiviCStATEI4xbRL6F7t25SrvTneaDj+mqdhfjPW/AXRBD5WQP94w+IAHq0+6ehw6zZJPtd60SeutnNI5mgb7Q4C5BgQeRsSp2arnO/QUiIxMQ4rNLu37svPw0dqnSu9C+6V8Ss5KUNU1ICIvaNwYyICJUnojfClLAw56YbLlFzgd5AxCq9IQ8A1NrmRw8fCnfcQ1vec6amacNGMn/uXOd6RLqABhEqOGP6dNV5oCz3M9MguAZvARBxZ+KLPsEKIhCNyRUTE6NESbNmzFTZDvxhgFJQsjjyu7Z40ZwIix2LLmDEBzbWyjJ7Emehl6Ez7Dt6Cq1VrYbUq1NH5aPzdbewAyIoqKwoTHp3IMJ7wIfFe9HChUpJRvkscpplhROpWK6cS/0VESx/NIhocZT+CREa+WkQQf4LvTBGsNKH+Fb66PTEQ9aPXgF9CGI6gMhb8AYi1NMatIhALwT6N21JZOdE7OIdOCfapzmR6pWrOGXbnvoIbg/6cnDPHuwggviMHdhvv45TsnN7fP7HMIAxv3VLpMvPbHAQvVjFWRpE+M0asPazgghcPiBiD6NSYZ1lzWvSxFBV3jXbSWXAmM2M3kxoTsRuFnw+kRPRukBfOZHhP/vHiWgQ0fPb2ga9K9djB06EfmBR9jS2X796JdUqV5FypcrI1ClTlJ4DqQn0Zhx5AxFow4bHVxNf1kDy1CCCea0aS+PGCfTXCnJvIGJvN20lT91mTQ/ABk6JjTXGGIhl0cvooMTYQcFJTHzdcSKzlf4RqcZ5nVw9x/3yixoz9g0QG0PGLu3QYcTPw9WG2ypZ8ciJkAhRCTsALG+ePH6sOpKdjrfgK4iwEMNVtGvTRu0wtdxt165dyqKpeZMmUr9uXWdRyPqpi9UCyvmj5Ys7EEH+i9GAFnlZoquv7FrQlSQX/AURe37sqJCHLl7oEBVw0hjLC2/BVxCBbWeRsIs3vOWtf8PChcUXCxtvwV8QyZMrl0TtjnLJkn5mp7s4UVyC3Tm6HLv4kX62sunoPqychEumif/4AyLu0tvfnU3U97DgWQObKmgdOnGi87WvIIJVUMF8+ZOIN7EEYqH0Js4CuJKTBEBPFiPEUtawYtlyFxBhgUCfwAJlDcrIBJ3V2nXqdXIgwsLDQmPXlVrzdPfdHxAB8Jj7Wj/mLr/dyogk6Qn80PETFEB4AxFoQP6AlzVocZadE7GDiDWN9XtagIg1P8Z3/br1lLGKfo+ui3lir7s7EFHYYIxfAAAHM0lEQVRGR9Ax4aROrp6TJjosRLXeSP8IE8GYZB7ogDiL8WXdLCkQGfjDDwLCWANyQNjBAnnzyes3r9WuH/NMrKGsiIUlTbfOnZ3mur6CCGUN6N9fLaosEFpkhMIb8192xjRCByYXCjwUkFZFNGKxH/r1d76zgwh1RbcCSFjRU+fLkzzoCKvoJSY6Rtp/00ZZMei4voLIq5cvlehK6yt0eq0E0/oJOg9QwfxSByYK5eq6+AoiLMK0YZhll4KVCWJEvfCwi2OnZAdT+tpuRaTrY336AyLsoBiAiDbhHHT4oV8/NWHhLAkocunrRvXrK4sr3t25c1uJrFAk67GG+TCgZFUgwqW0bf2NU/GX1iDCOMPsmHGvRRSMz/Zt26lNiTYMoc6+gsjGxI0EHJA2nmBcQCs4wtSCyNmzDnEhlozaeIS6O0yKczo5EbhQ6I4IF9N9AnJ3rLwYR/rsQnIgwpjitDxz9u4dh/KavJYuXqL6XpvgqgIsf/wBEQ3mAK0O9A3m9uzQCezgaQ8Kex3wzQVdWfS8gQi6DMxn2US9f/9Z/5EZIMLiTwA4EX/bpR6ACCI9Ha5fv6ba2KVTJxcxuzsQ0UYw6NWs54jQi9Hn33fvrqzryBuDpZJFi6m8rSCC+Iw1C4s+HRSIIJsvkDuPkhODNMg3EbOQsVawkQDRCR3CpEIMgkUOO3zM77RZXPEiRdzuGJnsX+XP77KgICYomCevi7kg5XRo115VlAlhDcgD2T0BOsg+WXioN/b5GiAQHaE812w6QEUZABDx69aqpT7oCkYmAicTBnkru0sWq/59+zoGX85ccshyopezFNhXWy3PqB8LIjsZDsEROLyDqSfvWDSxgNFWOYiw/vzzkzMeCmPiYcXDbo5dHTRGJ0UAFGmz3XKEMmmn5swQWfXt3UfRjR370MGDBeMF6DN6hMOcmTg9v+uh+gzxHgNh/Lhx6iwHCzZWYd5C9MGDqkyrKTD1on7U0x4m/DZe/YZtOyy40msE55bBg350RmXnzESn7SjJMdnEUo93OBnUgYUQQwXEDmx6en//vaIT8RISElQ0xgB9qHUkOi1PTtliju5vQGeAXzTKQXfC4S4MLNDnjbKYiWNdQ99hym0Ny5cuU/2rOW2Ag8UQmrGws4gz9vr37adAkrHjLrDQ0zbr2RR38XiHzJ65i06TOnNWiY0WYxcHqQQOp8HZsKDwO3RncaAMDtvqwELGOw0qLGrI/b//1mEiSzzmCGMWdyJDBv0onTt0UAs6+k377lbni5sg8oWrs4c9u3ercaY3W/wOfakfc5i5X7lCRTW2GQsE+l6LrJnb9DXm3mNGjVLjSW8CWKewamv/jatrpvBEJT1zhgPOBDaNjEUNxuqliLD5Y+7pePq9/cm4pJ/1usDvmBMz3+3tpq3kuW/PHpUN55/y586tzn2x8UMC1KRRI0VnjAusYVJoqJrT6H/0aXQ2oQVYH9Z9PrtGGjbMbBg5T2Z1iYI4jrpikg/tihQsqMYGYxp9tA6ADxsU8tDnwRSIwAUgXmjRtKlSjNeoWk1NFJDcHtihY3pLHBTSM6dPdwIIcaeFhwsTxx4g5OSwMBclMjv2sWPGJPGoyaDkAIzeqVnzgvWkEXBE1BfQ0FwM8RB7jRoxQu2uWDSRW3MmBOJxbsP5+WGAsvbQeTPYOYPAgSYU00N/HJxEdoh8G4dmVhQnPfoiDlZZ2W0WE9rLzoEOY5JOHD8hifUOlkHsYjGNZkEZPGiQc2et2pOQICNHjHCaPVvryy7RuktgV7h0yVJ1LgT5MKbLVi5Hp8WS6puvvxYOhlJm/z59nXoaHcfdE4sSaKsXbeJgNUT9OOjoLrBzQWRJfZjkq1d+Pu1OfK1Y5+Bk/OF4dY6HAW2Vw+p80ZuwmNSqVl3q1KipaK7l0sShX0hLmfbAosU5iJQEdrFMYjYk2tADB4JwEDowLlmw7DtHxiMbM23iq+PDRf08dJiyfmInzCI9ZtRoeW8xjddxebL4MY7tYgtrHOt3zn2QH5uJAwcOqLMUcKBaFp+QcELGj3OYKG/ZvEXQRQL6GGxYA+2iXL1J5PwI6ewWUbSTzRfrAmOehc2TRRH5o0dgLFnFIrpcRLKMbW39pN+vWrFCjSHGEnpX+wKJ0pzzVQAmtL140XFCf8zo0c66sFYwhzkDYQ8Yw7Rs1sx5lmb9unWK09EbVB2fXT40eebBYkrH41gCc0NvIHjvaPfIJO2mrarNFitFzuvBbWFEUqNqVencsWMSKyxd1prVq9XZHKQFBMYs+dl1qfzGWo+6wP6bbhe0Q7KBFIA1kfXNGpBcAKTarN+rTsSa0Hw3FEgPCmgQQdFvgqGAoUDWo4ABkazXZ9mqxgZEslV3msZ8gRQwIPIFdnogNdmASCD1hqmLoYD/FDAg4j/NTIo0pAC+nlD+68N4aZi1ycpQwFAgAyhgQCQDiGyKMBQwFDAUyK4U+P+TcT4HDxk/lQAAAABJRU5ErkJggg==;" parent="1" vertex="1">
          <mxGeometry x="384" y="140" width="401" height="171" as="geometry" />
        </mxCell>
      </root>
    </mxGraphModel>
  </diagram>
  <diagram id="U06xAuhg1nrcPxDUVI5P" name="Mood">
    <mxGraphModel dx="2815" dy="592" grid="1" gridSize="10" guides="1" tooltips="1" connect="1" arrows="1" fold="1" page="1" pageScale="1" pageWidth="1169" pageHeight="827" math="0" shadow="0">
      <root>
        <mxCell id="0" />
        <mxCell id="1" parent="0" />
        <mxCell id="8IkuCKn6u_tp1W1tsJ4O-53" style="edgeStyle=orthogonalEdgeStyle;rounded=0;orthogonalLoop=1;jettySize=auto;html=1;fontColor=default;" parent="1" source="8IkuCKn6u_tp1W1tsJ4O-54" target="8IkuCKn6u_tp1W1tsJ4O-81" edge="1">
          <mxGeometry relative="1" as="geometry" />
        </mxCell>
        <object label="Start" odk_type="start" form_id="test_cdss" id="8IkuCKn6u_tp1W1tsJ4O-54">
          <mxCell style="ellipse;whiteSpace=wrap;html=1;aspect=fixed;fontColor=default;" parent="1" vertex="1">
            <mxGeometry x="-2270" y="42" width="80" height="80" as="geometry" />
          </mxCell>
        </object>
        <UserObject label="How are you today?" name="select_mood" odk_type="select_one" filter="" id="8IkuCKn6u_tp1W1tsJ4O-81">
          <mxCell style="swimlane;fontStyle=0;childLayout=stackLayout;horizontal=1;startSize=30;horizontalStack=0;resizeParent=1;resizeParentMax=0;resizeLast=0;collapsible=0;marginBottom=0;fontColor=default;rounded=1;fillColor=none;strokeColor=default;align=left;" parent="1" vertex="1">
            <mxGeometry x="-2140" y="22" width="225" height="120" as="geometry" />
          </mxCell>
        </UserObject>
        <UserObject label="Good" name="opt_1" odk_type="select_option" id="8IkuCKn6u_tp1W1tsJ4O-82">
          <mxCell style="text;strokeColor=default;fillColor=none;align=left;verticalAlign=middle;spacingLeft=4;spacingRight=4;overflow=hidden;points=[[0,0.5],[1,0.5]];portConstraint=eastwest;rotatable=0;fontColor=default;rounded=0;dashed=1;" parent="8IkuCKn6u_tp1W1tsJ4O-81" vertex="1">
            <mxGeometry y="30" width="225" height="30" as="geometry" />
          </mxCell>
        </UserObject>
        <UserObject label="Bad" name="opt_3" odk_type="select_option" id="8IkuCKn6u_tp1W1tsJ4O-83">
          <mxCell style="text;strokeColor=default;fillColor=none;align=left;verticalAlign=middle;spacingLeft=4;spacingRight=4;overflow=hidden;points=[[0,0.5],[1,0.5]];portConstraint=eastwest;rotatable=0;fontColor=default;rounded=0;dashed=1;" parent="8IkuCKn6u_tp1W1tsJ4O-81" vertex="1">
            <mxGeometry y="60" width="225" height="30" as="geometry" />
          </mxCell>
        </UserObject>
        <UserObject label="I don&#39;t want to say" name="opt_4" odk_type="select_option" id="mo14MjrGfyoIkOrfefcO-1">
          <mxCell style="text;strokeColor=default;fillColor=none;align=left;verticalAlign=middle;spacingLeft=4;spacingRight=4;overflow=hidden;points=[[0,0.5],[1,0.5]];portConstraint=eastwest;rotatable=0;fontColor=default;rounded=0;dashed=1;" parent="8IkuCKn6u_tp1W1tsJ4O-81" vertex="1">
            <mxGeometry y="90" width="225" height="30" as="geometry" />
          </mxCell>
        </UserObject>
        <object label="End of Workflow" name="next_" odk_type="activity_end" id="Gzp0Gp85LDhMjWFTzvWT-3">
          <mxCell style="points=[[0.145,0.145,0],[0.5,0,0],[0.855,0.145,0],[1,0.5,0],[0.855,0.855,0],[0.5,1,0],[0.145,0.855,0],[0,0.5,0]];shape=mxgraph.bpmn.event;html=1;verticalLabelPosition=bottom;labelBackgroundColor=#ffffff;verticalAlign=top;align=center;perimeter=ellipsePerimeter;outlineConnect=0;aspect=fixed;outline=end;symbol=terminate2;fontColor=default;" parent="1" vertex="1">
            <mxGeometry x="-1260" y="360" width="26" height="26" as="geometry" />
          </mxCell>
        </object>
        <mxCell id="Re2Ldd-73TKsz-UwvtZz-4" style="edgeStyle=orthogonalEdgeStyle;rounded=0;orthogonalLoop=1;jettySize=auto;html=1;entryX=0.5;entryY=0;entryDx=0;entryDy=0;entryPerimeter=0;" parent="1" source="cwH-YQBPK_zhQBdjSrPG-13" target="Gzp0Gp85LDhMjWFTzvWT-3" edge="1">
          <mxGeometry relative="1" as="geometry" />
        </mxCell>
        <object label="Super! I hope you continue to be happy!" odk_type="note" name="label_" id="cwH-YQBPK_zhQBdjSrPG-13">
          <mxCell style="rounded=0;whiteSpace=wrap;html=1;align=left;fillColor=none;fontSize=12;strokeColor=default;fontColor=default;" parent="1" vertex="1">
            <mxGeometry x="-1610" y="44" width="152" height="46" as="geometry" />
          </mxCell>
        </object>
        <mxCell id="cwH-YQBPK_zhQBdjSrPG-14" style="edgeStyle=orthogonalEdgeStyle;rounded=0;orthogonalLoop=1;jettySize=auto;html=1;entryX=0.027;entryY=0.449;entryDx=0;entryDy=0;entryPerimeter=0;" parent="1" source="8IkuCKn6u_tp1W1tsJ4O-82" target="cwH-YQBPK_zhQBdjSrPG-13" edge="1">
          <mxGeometry relative="1" as="geometry" />
        </mxCell>
        <mxCell id="Re2Ldd-73TKsz-UwvtZz-6" style="edgeStyle=orthogonalEdgeStyle;rounded=0;orthogonalLoop=1;jettySize=auto;html=1;exitX=1;exitY=0.5;exitDx=0;exitDy=0;entryX=0.5;entryY=1;entryDx=0;entryDy=0;entryPerimeter=0;" parent="1" source="cwH-YQBPK_zhQBdjSrPG-16" target="Gzp0Gp85LDhMjWFTzvWT-3" edge="1">
          <mxGeometry relative="1" as="geometry" />
        </mxCell>
        <object label="Okay I will not ask you further" odk_type="note" name="label_" id="cwH-YQBPK_zhQBdjSrPG-16">
          <mxCell style="rounded=0;whiteSpace=wrap;html=1;align=left;fillColor=none;fontSize=12;strokeColor=default;fontColor=default;" parent="1" vertex="1">
            <mxGeometry x="-1645" y="460" width="150" height="67" as="geometry" />
          </mxCell>
        </object>
        <mxCell id="Re2Ldd-73TKsz-UwvtZz-9" style="edgeStyle=orthogonalEdgeStyle;rounded=0;orthogonalLoop=1;jettySize=auto;html=1;exitX=1;exitY=0.5;exitDx=0;exitDy=0;entryX=0;entryY=0.5;entryDx=0;entryDy=0;" parent="1" source="mo14MjrGfyoIkOrfefcO-1" target="cwH-YQBPK_zhQBdjSrPG-16" edge="1">
          <mxGeometry relative="1" as="geometry">
            <Array as="points">
              <mxPoint x="-1890" y="127" />
              <mxPoint x="-1890" y="494" />
            </Array>
          </mxGeometry>
        </mxCell>
        <mxCell id="xrPfY3_glvH9nTNCWl0v-3" style="edgeStyle=orthogonalEdgeStyle;rounded=0;orthogonalLoop=1;jettySize=auto;html=1;exitX=1;exitY=0.5;exitDx=0;exitDy=0;" parent="1" source="8IkuCKn6u_tp1W1tsJ4O-83" target="fIT_NPDLRujONlAfivsf-1" edge="1">
          <mxGeometry relative="1" as="geometry" />
        </mxCell>
        <object label="cat" odk_type="goto" name="lko_ds_c" link="data:page/id,_Nzp-5h9OdmDPzvWDYIv" id="fIT_NPDLRujONlAfivsf-1">
          <mxCell style="shape=offPageConnector;whiteSpace=wrap;html=1;rounded=0;fontSize=12;strokeColor=default;fillColor=none;fontColor=default;" vertex="1" parent="1">
            <mxGeometry x="-1803" y="348" width="50" height="50" as="geometry" />
          </mxCell>
        </object>
        <mxCell id="3xWEU8wQVxm-Odqyczsk-3" style="edgeStyle=orthogonalEdgeStyle;rounded=0;orthogonalLoop=1;jettySize=auto;html=1;" edge="1" source="fIT_NPDLRujONlAfivsf-1" parent="1" target="Gzp0Gp85LDhMjWFTzvWT-3">
          <mxGeometry relative="1" as="geometry">
            <mxPoint x="-1200" y="373" as="targetPoint" />
            <mxPoint x="-1753" y="373" as="sourcePoint" />
          </mxGeometry>
        </mxCell>
      </root>
    </mxGraphModel>
  </diagram>
  <diagram id="_Nzp-5h9OdmDPzvWDYIv" name="cat">
    <mxGraphModel dx="1845" dy="925" grid="1" gridSize="10" guides="1" tooltips="1" connect="1" arrows="1" fold="1" page="1" pageScale="1" pageWidth="1100" pageHeight="850" math="0" shadow="0">
      <root>
        <mxCell id="0" />
        <mxCell id="1" parent="0" />
        <mxCell id="kj3Qjq8MGdwHvv3RqtLf-1" style="edgeStyle=orthogonalEdgeStyle;rounded=0;orthogonalLoop=1;jettySize=auto;html=1;exitX=1;exitY=0.5;exitDx=0;exitDy=0;entryX=0;entryY=0.5;entryDx=0;entryDy=0;" edge="1" parent="1" source="kj3Qjq8MGdwHvv3RqtLf-2" target="kj3Qjq8MGdwHvv3RqtLf-7">
          <mxGeometry relative="1" as="geometry" />
        </mxCell>
        <object label="&lt;div&gt;Here is an image of a cute cat to brighten up your mood!&lt;/div&gt;" odk_type="note" name="label_" id="kj3Qjq8MGdwHvv3RqtLf-2">
          <mxCell style="rounded=0;whiteSpace=wrap;html=1;align=left;fillColor=none;fontSize=12;strokeColor=default;fontColor=default;" vertex="1" parent="1">
            <mxGeometry x="-820" y="348" width="160" height="65" as="geometry" />
          </mxCell>
        </object>
        <mxCell id="kj3Qjq8MGdwHvv3RqtLf-3" style="edgeStyle=orthogonalEdgeStyle;rounded=0;orthogonalLoop=1;jettySize=auto;html=1;exitX=0.5;exitY=1;exitDx=0;exitDy=0;entryX=0.5;entryY=0;entryDx=0;entryDy=0;" edge="1" parent="1" source="kj3Qjq8MGdwHvv3RqtLf-4" target="kj3Qjq8MGdwHvv3RqtLf-2">
          <mxGeometry relative="1" as="geometry" />
        </mxCell>
        <mxCell id="kj3Qjq8MGdwHvv3RqtLf-4" value="" style="shape=image;verticalLabelPosition=bottom;labelBackgroundColor=default;verticalAlign=top;aspect=fixed;imageAspect=0;image=data:image/jpeg,/9j/4AAQSkZJRgABAQAAAQABAAD/2wBDAAYEBQYFBAYGBQYHBwYIChAKCgkJChQODwwQFxQYGBcUFhYaHSUfGhsjHBYWICwgIyYnKSopGR8tMC0oMCUoKSj/2wBDAQcHBwoIChMKChMoGhYaKCgoKCgoKCgoKCgoKCgoKCgoKCgoKCgoKCgoKCgoKCgoKCgoKCgoKCgoKCgoKCgoKCj/wgARCAJ9AoADASIAAhEBAxEB/8QAGwAAAwEBAQEBAAAAAAAAAAAAAAECAwQFBgf/xAAZAQEBAQEBAQAAAAAAAAAAAAAAAQIDBAX/2gAMAwEAAhADEAAAAfqE1y6IKBXOoNgDSJgqmgKGJsENDaokoJbAGCYxDQk3EumSMJAEIlbRDGUhlk2gGgSpUmwlUEOnCKKkcjpUkzckUCiYIYiAqVQSMjNzWdDbsBuyRiipCbCSmS2wVBKZAx0mMTYIYIKEqRLHANAmElCoagVBLCk2kE2qVJAHSbpMyhUgAbJGAMSBhJQsjQJiIASaoBxA3KmOgYiGKmMBsQ2klAhhFMUbZLYkqwltKwaSqSy2RI2IABhJQssIAVgFKlSRJgwKbBJYxDAm0JUEjQhgJyogEqEkoIdISaWaVAykkYqGCoYqTQBiBgqCSgKTAYIEIbAHUAQA1kpkthKoiBqVDBNUJoARTuNUyZVAyyWAAQMKSFCKdS6CC0SqUJORpAhhKoExK6VIK5EgWqGk0qqWOE2UgAYA2gGElIE2SNRINW0DJkqZnN0cBokCTABiTmUEytVW843NwA7EMJY6Q0IYAADQDCSpJmiILRKpKkxEOlLmkc0qgpRTHQxCYAmAFCGxAAqQAA3Ik0IJigJUmGY3myW6lkysActkjkTaNqjTec6moYypKSIaoVSA2JgIYIECpmZaEiYEwkYJy5apFUDshjKaQwYhhLAbQMAaKIYgpMQIFUkqplbShq4EUSoaBDlUjEXBNDGKrJ3yBubpiEYixp0S6kEOkUCVIltAAAAo0RmWokYY23KA6bHZIwaGDTGmEpqKaS0YBvWdFCLHKQyWORDiold51LUjShCpOYaCVpSU40E0yaz4Zezl5Ota7Od12TTuIt1YAWJUCGADoTQpaEMAABhKqRJoGOVDIGOxDVCoBAUASnMt51xZ15znbzemuiODefoDxPV68d2lvDJpE3mCHKUs11WJGqyUuhkS7GRGyyyXpXE83sz5ORdk+iaW8Y1rjnMvuaZbdvODNQGkAAAGMpTSEUEjCRoE0JVIkwbVSg2SObATGwEqQMCIvHN08z0vK5deHfn28nt68s9+nPlOvGz0OjxfS7cO15rryaecVLc1mtpzYpQXIK6GGe1p5/P6PNx6+d1nVjfHG87m9c96y0uaa2OPrr1duTft5tiTWbE6BskoRDKkYIAQ0IciGhJgkwsRK3LBAklKqaYJgmgjLbDOn5fpcHHr5WmG/k9y6+yunKNuaN405teXOvV6PG7OnPuictY3zjXOlaLM89KMs60zrQMNZ7KxdmWPThz3S5+iawNcrHz7ZLy493TnfN359PTlWmfR14PSdN4VDsVJ0laJGgTQJghoSciYyG2SNABK0MBiJUUmMQ0SKpZ5+nmzccug5dPDm/P8vt97LyfX1OenzXPVrG6cPTtz43e3L1XHVOnH25aZvszqNOXbWcurh7isd+npjyOvHrzrnnpzrz9N+Xl07c503jxuT6Oc78vTe5rW9568K0m+nK7zvedCKsBMJYIAGgacgmhDBDATkSaALzU2rBgCZSAQlzNNpwsNhcc+iMa8vwvq/m/N7OTCa83r9T2PjPpuvn7Ongeud8J08em2zrvy3H09+Ph+txejz35u3dhrPJq3L0b4a9efOxTWjfjJ7HHz9cuGPYZ1w10cudaaeF9BLtU6duC0jTphNq5qpdjE6BghoaECYJMEwEDEmyRhFqoE3STQSANhmFSjuRTSIi8865+Hu4vP35Pn/e+c8/s9P2fzj9FZjk9PHky9XDfpnqvl8zvx9+/jujc97fyPVk25u3hsejvUes6bwvE6N87+d9X08M66FxCQ75s678V1bx8r9LazvS5rrwVBvIho2qpuHZRINAA0gCVgAgAATAEANOGJ0pYJjAaM9FZDoiZcrnG3Nm48HbxcOx8l9x5XH0eB9bHbz2S/LZqPL9Xl291+Vr6fN6Wvj9nXHX8r9J5FevHxv1WNd98UduXozw9Fz859J5np8e2N9Eazy1G2bq6fbnwb6cmb2ZrWw1w21i5a3goAGgApgWDTAASpCZQJiIYKaSyqQCcDCgYAMSdAVKLPSVyeqlyx6c5fP5e3l49Hvy+jz6Y415/n7wun1Ma83q9A78vP5/T4prD0Y7tYjh9DDrjxn6vgcO/b1fK97p7mnhdHXl9BeXV38k1hqTy90y+fHTwc+npYzrvHN0+R6PLpttzdXbjSddOYwBJgACosAKTpAMJGhtNBNKkwmbQ2mCYDQMEOkwTEIcrKqZTK85cefoy5b4vR5a49cubHl8nr93p5zryS49cb26X09+NEHXnkOs61+d+lrT8n6vvfivP779jy/vOnPV0vZ8zC2pSNoOe9CXC25fHrt4OHXt7ODt68tAOvJkhQSU1VDCwYACBCGIG0wEikgEIHFQ2mAFMAGACZLGJWjKNc83n5O/k5743eHn7ea9q8fr7cc71NvQ5e7vxz1s7clUzpOmBL1nLlZt43V4PP0R9h+Z/at/Q6cOnp8G+aizSfM9Oa0k5YawXLptx68PPXr9XN09+NiOmKd1rOS0CaQlOSqQApg0JsTAEwQwSECEK89YbTAZSYAMRBKpJQ2lLebZnjtnnXDz9vD5+2OevR5PSuzlreesw26Y6jDbrz5uX0eWbs59ieKufHTysfpyb8TL6Lr1n5/wBrqXbg8u1deWd5ZZs893y6Rl3cUfPer53t+Tv2756e7y6OI6Y61z+ZNevfNprGwGsqpqwlUKgGhgCGmgTkJYJhCpBTTpiBtA2iwmnGRqlzdKIWilxnTPOsfL9Tl4dcF5r8fp9a8+zrnjXpFnG+nns6dOGt57Tm16ZtzdnJrpa8nbh0ayzHPWdOaVjUxtlnVp1HNwexz8enje3ydONdm/Hj6OfXn4+2Or6OLXn226vB9PfL2NvL9H1+JtLeHU3ZFgDAAQIkaHAmqE1DaKpyxiChA2hGAMUq5bM4WeNazGkvPh04cunh8Hv+N4fXwL2N+fXyvZnye/L7B/Bd+8fVc+fbrHLrpka6Yabzq8Tct51Ys7ylrfllO3nh0dJ0Szy9WSeZprjw7aeX3+Vnt248evPtrU9Osc/TlzV6nqeR1+vw+iI7+fQibLacAwQwQykAJNAgigKYmAAxMGmMAaYZuZh8/RnLF5aZ1HP18mNcOO0+P093Rx9W5ombznw+m5fBfrcXHpevP39OeWur64570VKNNNZ4Nep1jppOplWygmQeOhnXB5XR5fi9no49PzjXo4ecsd79jyaPV6/nfX3y9Lq8v3vX4ukR6PKnNFOaobaAkUQVakGhABDEDEUNgxMAAFMaVlVRh1YSuc1mjWGddPPpONeNpn1eP09WjrpmtM73nRU+mM52Zw7dDIunvMtuyHUFJzY5RKobzYshaXLnjXkdPnd3j9tfLe/yx42fvO3ytdMc9u7fx/c6cfU9PLT3/NtzW+aaunSaE1Im2S2UgCRhKpA0StjQclUoZZLBgQVnGvJ1ccsmWuNrG1mxWM8949ePTx69NTXXDIhequPbWdzKt4sgracma3jdjAsSpQTULOUc/Lp0eXrPHrydOK5b8vm9Dm59tXj2bxoZK46OXXtXk916ezzNxp243Q9YmptaE7AcgxAgGkwAEqQgJWiYaQU5VaPNpoo1qcaUpmyODp5ennvPK+fGllPZy63041pu+Cq7+bLts8/P08s6yillor1szratSOib6YaHrKVZiyFnUZ7Tz1hjvz8+nNzdnFw68c64Y326+R5/XPrYqsdPf9PyfY9Xk35tuT0effbn21ndKtZmhjcooFTkBCcMTAlVZAWnMKByiCVklCcRevNdbTeNkVm83n0i8ay5tI5dOT0Jrn0hKmsTqxrXpjPWNuryvR1HyejhvGPTx9ObvWV6mgnqFIScqxll56Y0k1m5cO/meft16R114L9TLG/M8n3Kmvnr97otXv8AH1ezx58jWsbdHPvvGt466zbirGIHIAmKMlKkgYIYhbgiKoCVVGa1a5GgmJqKs6zTNEZ2QZYsKNOPXfMub3nTDUxi983TDbk1F6Hmd+b13ybd+WuGulzhtiZvTWOm5cPNOesdMbVPKNsjPOvO8vs8jxer3fT8H2e3J5dUdMfNdnrRy6xutOvLqnU9PDwtebp5a6OnPbtz0qK1liY2gBoJKJpTQMG5YMCLGEUQqAGgaaoQoXP0YS5QzOufk7eflvh6+bfh26unn6tyubXFXo3Znh04qujKM00wUvX2c3R25a83Qt4x6OLeXpgneFncZ1plplEY6Y8uniY9XR5PT8/9N8V6W79jXH2+jyjyQazpXTGufo4eH04689dO2fR0wtMtNZYSW8xdjJ2VM0CoCRk0wbmUsTABQSGKYuc1Lq86p465xztPOss9ssa4N3l5+3ftz7aZWtFY1vOcaTm5RXPje+vNkejrjt0x03E9uXPZz516Kl7xMU5VlvGXPzb83Hrw+n4vu8enzHzn6F5135n0vh8+X11eTr24+pp5+nTHoci4uvPSseiTTs5tumKqL1HncSlpjliNooEFOGlS0qJIoyDYwa71hSapOlGiMKJzbhKXArPN1w0nN48tJ8/fr3w6dJIg1icq6TDUhVEsu3Kujn01nsfNv0wc3VGpSRcvSaonSDz+Tq4fN25vT51w69r5r6Y05euKx2e9irXHtz86F2YPoK78qtXrOlQ7KQgBq2hGgpkhTkKhMTcmTt5sNhm7QaYUbKXqLO85aw15sXXnuJomFiqHXPovR87ea6OffE4OTbweXT6Ts+W+g1Orn0xOp51vIlcuuvPes9Nzp25c60jU2qLsqKk5/nfovnfN29WL3zrk5/SxzeDp4tOfT0u3k6PTwry+7xrOns5+rWK0H151edWU1dibYIAaVMkGkwbaIJATWSZzaRC6VjUa5lIqlVWdyTnUZ1npnWXnm+XPonhPPfdOG00o6Ms68zyvouXnvwfc4cl+i05N9461lG89DNLLd79MK6O3PnzaNdc7svKgw8318ee/N7+Dp49Flt5edbLm9Lnvs15uj1cOHh7Vlpq9e3LWXXTEXNFEMpwi3AlEum0CoaNCAAEwyY5ZLa4vQjMCViBCgI0yliVOaSRjUcXZxcumnX53fjfQKq5+br8bnvi4OjF09b2/H9Bj0dM+j08J6S95esPpjRZTZkhzV6ZtLFNmkxrHFn1Y8+mXF2YcenB0cvn8O3098Onp4cuy6bno1zy7cey8r3m6l2Q6zlbw0ltxVlCLG06AAEFEiMQSZkuizUu5jRrAySSWstMwkcvORnjVYucajk3z5bx7vK9DHTuJ82p8rfTj25/UvqucuXTGM+v53n6v0WvB9Ltw9Feb2dMbyV0wrHLYqsSJFecRvyb8Wdac+y5dOLzfS5fP111V9efW30erzwams0S9TRxaObk5ys861aoVJWU4dlCVUSi1KLUhLblTYhlq1yZObpmwRIJVMvKavN58O2M3x8/V8/j14+/mrnvl4/c489J9CO+DlrIeXVnL4x6t28+17XN+tyd3r87avtyTZKNIMq5s2HyPl16+dEcfZlzcunoY5wh0897x2TjXblvXPes9WvPW89Vc1az0LHUjHaZUglq8qpzUoPNlEKrcMpIR1jMvSc9mhJVSKIa55eiZJXMTGjxyl6Z48867o4jNOfu8vl0Fyeny67VnlLqufDOvRywyrQ5G139nn+jcer0c+3u8mlYXrOqzzXZcpjW3ndmON82nVMcFY5cunZPP02cfN6Uc9Yd/Lv059Nrb0ccbHrN1Gmo9E9ZKl087zhicqGhuWICyCgGgALMDQzrKtUK5SWpqjm3zl5ynjWWPWpeE68c3IqZcePq5ue8+nl3xrS783O9Msufn2vS+quaPQ0s4+vq03zW606c+tC78qqJM+LrOXTz+nVZ3XPtyGl8JjXdnpr05+e+7mxoHlFac21z27c+/o456pbzpeF3O5k9TSpqlN5w2qECAENAAIaAaJszbM6dSxKsTVc2stNQhFyrmc83QzuXLk9DizrnyiOW338PVnWWOunPpxbdms3z7am8Z5Hnr07+Lcv0fZ4/r9+G6U9edrnM3aYiXXPKM76MdZjm5+mMbw9Lk6q1jSenPG9Ky8nfHHnr2OnzO708NJo6YdxtcxOsVd53Y7zsmXI5alCKKRI1mS6EJKrN1A5loiiqgKw2ZlSyl0imZO1CVRLAs868zg9zyuXSe7K8a11hY30bZ66ROirh4vZnOvGXrKXL1Mb7crzhpVZOry6NdZ8t+hGdEZ82NGJPPpt28PVvPZtjv24EvKuPz/S8jh09bt87s7cuhRXblrphprNImy6zF0vG0YipqHmp1IReRFS5pOaHaaRWYXm2Y1rxy9T8/qNs6VnKts86AuInXnleMxjW/n9GWNcno+Z62OivO8a124t7dnlnudLkQARxCU0jzpdzk2muzp4DePUyjO5cF51FaaWZ62azevNtvM8vVy51Pm9/Lx6Y9XD1XPX08PR6OHZrydPbnolNjVRGmmdWXMoDN510KK1lc++E0UTLbhpRQf//EACwQAAICAQMDBAICAwEBAQAAAAABAhEDEBIhBCAxEyJAQTBQBTIUI0IzYID/2gAIAQEAAQUC/Mv/ANSV+nr9c/8A5z6/SLsfyL0X5fr5y/SL8aF+lX6uP6FaP5z/ADx0+/3qH3V+JEhfvUP87QmXb+YvkX8GvwSyUepZbISvsXx6/K+1yRvRfZfc/wAdd8mkSy2csjA4E+f0v32zdLJdxk7bnAw9QppP8962WWWWWWPIkTn6ihZBUUNov3R8fp3r1MqjuEyrJRSlHLsljnuWl6vWxyLLNxZZZZZu4bLN1lm5ycYSFFnglKBtsjiqUP6/p3r1T5RF0eR+4cGzGvSMeWxd245KYo6UhxIwRtNptJInwrZiVmXxGIlo4ntRv53zuL/UPXrBFojIXuHFslARhnaL0sS0sYjw74TsXlsWiJojj3N1XB6iFNMbyU/8gfrEJ5LhZERZf6Vj060ofCjGUiMFAg3IbQ6JSUHimqW0lETL58SPJNk/ESF2Xz4Y/O737tx9S8qiUlAlvmPFkN3UohLMiD0j5F+lZIs6xWm2YscziJRKxxyREoMmthF7Y7uVkJ+V7irJKkif95IRXLW1EXcLPMpRpxltLFhJqYrgSyyT9VCyxPUizdSQtF+myaZ+cashUJxyq5vaSyinNEt9r3Qh7X9N8QbYlTxZLx5pO3e6HuxtjFySIwP+YK1W1slGp4mW5OTjjWTqNrj1bbj1cxdTuMdHDcdV+myISKsn7Hl5MXUUtycFihMlijicIpxhwpbGShU6clGt/LGvTV7jZxCVTHxLGf8AaROP+yP9chRKJ/WW6lGCHOBLaSx4JOODChQpbBL9S/OnVQ4bolyRnPE8PWKZiuUFh2k9jMiqPE8cP6yXuimZIkINTXJsrLk/rNW4+PszGIasrhxJQTPA9zE0irFigKG0ju/V0UNEla6mFCY2mOM8UsGa1LO4HqRyJtsiqlGByY5If9XxOHJI/wCSItMibMK2xlJKM/5DFBx6yDSyxZwzYj0yaSP8lb8MvUxoei/VMkZqmvQW3qV6cuhlGcXhSIjVSimQiRQ0cC4J4/fDg+o2L+y8vwkPg6zrI4W+k6rrH0/8f0+AuKHTJqUXGdi5MuNTj/itZMUah+nS7mSGvd/I5HjebJ6+PDuhkwybi1zOLZBOImreR7csurr1/wCTiR67qomL+QwyMeSM2/H/AG4iQyJ1+RqGDDDGt45IbEPkfmD0cbHxH9VRWjZJj4n1mL1YT6dxMWL3YoVHaOkZs0UuncpzWUeUjkTFNEowmdav8HL02eObG/7bjcRkmTnsMsnl6pv2ob0TEOFm3bJMTMhH9NXZuNw+SSGS8xOoh7sOLbpKVLJlP7yxvavJVG4i+KP5DH6uHopTwOEvbuoWQuyXuh6QvCROFiiyNCpG4mrUeBMfiPj9Q9KKJDZIwyZs5ZJ0pylJ/wCO5kOm2npUPgkJEIHgzy4WMvbGE9xWkWRVrbWsoWOBtkbqIO1OJEWi/SLX6orWRJDMTW76mzJOzDHcRgJFEiToxxsXAxxHH29TJEc7Ul1M69WTMOR3gluibhD0yMcG3j4MquMMlSTPuP5K+ZZYmxjGThaxxrIychrc4xouk8569G6ciEWRVE2cmOyrOq6We/qMXV4zBOUsP+x9P/H9A4rHBRUkza7rlm4tNjifWbF7oNIg7F+nfbIei/tJksq3Kfvx3tn42ybx42iKPBY4tjgmtntSodMz4VJZ4PHLo/c8apWOyrKXZwcaZFY0YuFH9WxjGf8AWV8ZNpgxo3bE8m4x7xNHLFE4GbUKKotEsnH8hGM8f8VJbYZLFIs5LURsUlo9N1EpOm1J4/10kSGT5JpQMcySlIjHaY1ORFV2We04NyJSSUmdd1G3H0WSXTmDKpKLLOSUlAU55JRVDJTo37hNom+IOOR4+xL8Tfzb0ekh6SFGyO0SitIrlaTybRdTEUlIaRJ0ZcqiTz5MhDprb6aLX+NkxvFmyxISs3DhvIRUUyUqHciMTJwsuSaydKtzgtUyxv8ARP8AAySJcNR3txIxosjMU0hT3CdjimSwI9HmmjJGciPTW/RUCcSMBRHiTI4qNq0lIctFplXDUXLBHakxIk+IEp0S6pboytWIfzmiiiiih6sn/a9onFEeTySimRii2iMxTE9aKKt7eMa5oRZKQ5WW9OB8Etxk3oh751SgWOVtyom3km8MPT6fLcJZFEi+P0r0ZNcZGzDOEEsuLdHbVI2o2jxnKLsUixMZEZHSyUiyrGqKFptkyXTpixqLXmJnzbI4/UcnK3Y8j2Q3RMuBSh00vauz6/QJkhj89ZDml6tO/wDJzQeP+VnEwfyWDKKaZuRKSHyU0XwtExss3Fj5FEQxrSMDwT5NjtRpp8ZHc4To8sij/pzOm/rHvv5j1ZIkZY7k8UtsOmI9OS6VMzfx5HD1WF4svUmKSpMqxoQu1tDkcnuFNl2QjpRKNjVE+Fj/AKZeJfWFlq/ComzE9kMGT1Nb/QS7H4+pia3QaqtKHCyWDmalEhKUj1GiN1qtJCVixii0Voo6tjZkdJ5Ny6Z8dRSE4szZFCOJSRCacVnju9sSMuOlX6Fl6NX2S9rkJU40LtnEluRGfKKKNptHESNhWlFUPWijrWYYtpR2r+QySuMaTFpjx7ZY17VyYY7Y/gsv48tL5JkWMy+HJ3HGm1wuBMXJWrhZ6XKXZX4G+yTpT92TDE6puJ1e7Mk5bY7lJEHbkYpqawwrtXwr/DejGMsfi6dj5WVe7HQtEWLSuyu1aXr5EktJSo9QySuOee2PSZFs6uXNWOPDxRaydPRCoEsjyPo8LxxgqXzqK1mJj0kRdpMyXvxiKNpX4fvvs3jnRlyNibRZ1kWzG5DlxDk+iycIyWDCjHCtUP41/gvTL50+2RF/Z/2ihaMc6N4mWiyzcjehS/DN2NElY4pFcyHy3YrYlxJNG9CTkQxEID1Q/nSIvjINi5UtL5X/AKRVtKtFzpKI0RlRdnJZ9qJ4Ii7WPTaNKKZ9yZJWlIxpDcUZ+rjAwv1XiRBaPzoh/Ks8asXmRJcx8Zv637d3vildocjfbeSiOTmxqLTxmzYfZFaV3vsfJM8vqE0Qe4yxI5KU8nqPpsML6hLDLBMxkyxaL4j/AAwZLy9GT8x8S5EcPKiQ/C8yRjg0eDdyiS0iLvYyXl6MlwpPjHyTiSxUyeO1lwURzSgRjkzZOnhREyPRC+dEfjs8KTo3EaGKNlbk+C3viZpe1eYeETx2Lhrvvm+H2ZJGaVRw1tY1zkjw/NGxMhjRjiS4JctISELnW/wXo/gp8PSxyLJMSsQ/c4j4eV847tGXiEXxjfFljRQhdjJPmXGn2SMrM0uOma2lUZFanvi8MtyUCMWRRl8OVuLEmRjou+y9fPc/w1pQ9HoxyoZYjyLhE+TaSftyytYUIvSMjhjVCkLWQ37r5H5skdQxc4+kSiR0ZtRsSEzHOxE+VOPuxqhMWi7K1r4z1ZIkfcHR5cESGRJGQ2mPgvi6FKyDbIs8kltaYtHo/KJVpI6i7yQrDiyKM8WRV9loasaIRZFUZfDk90RC0XfZei+JLzoyQyHJ5IcEvK5EuGMnLj6ulJezF5RHSStJib1s+7GMkS/9M2P/AFSuEul6hGOdyRKPNM5IWIycqUfdERWi1v4Fl62WWWXrLVjJrmPBERJ8YlSQxjVpkuFiFQ+VFl6S4kmIej41fA3/AKY85atdb07ZFShkx9RTx5U1KRYmixMyPmTsiRIj8/Frtvsl2PRcuAhoR9FC8T8O5RhxBXuj4WlmVWR8rxpQ+NMhN/6725YmRHoJvLgoUpRWLLvjDLypHKHOk8onuIoRH4dllll9rRerGLSRLyzD4XmXkiyTPqJLkaIx5oXDEyWjjzHwfejMviD348y9mCXtXOjRLDFuGHa/SVqIlRldyiuUhaIXw7LLLL7ZIWstLGS8sxDHwfVjl7oStiMj9yK9/wBWIvtXZ1Kfp9KntyL24eCb2kZXpuEJFE3Q+Zx+RRRWt9r0bpvw+GWSEKVOPiSskqHJmTJRhlUcbssf9ftaPlJiYihi7cnjHl3SoqiULVO95B2okRsyz5irEtF8qtEXo9ESIMyFll8jVuEjcTMro6udLp83txy4jyfQ+DwJ8yIci0l2syeNmzJj1krMyMLZAbpSfD/9IkSjwX8dll/gfn7lynaNxZfJEVmSdRn5yQc3jjTxS3RjKk/6fUnY+ZPwJcrSWi1YzNExeCRuo27iMalAkuJypbXKSxySjo0V8S/xvsRLy1Z4L5lLjH4HAlEaoycGHL/ti7Iy9z8P/wBRIURR1kxdrHEePbKPiXibdxzK1GxIulkcVKExCF2X8Wjb2X3PSWk0VQnuIm6yx+ZHUTTe5RXSZhL3R5k4XKMeUqHx2S8oXdNFMlRkjuFBQI5KcZWMy/3xsRdEfmPsYhj8PR6MyCe1Y/7eCuJMzZNxJwQoOUsOLZHFk2idCerIljlol2TdRxytGQ+mSTMkJXkk08D4v3yjzFJCL5h4Fqy/iXq+x6MvRjZZJc/eJpP7lKjLkJOUyEEYsVD8SPWcTH1aclK4xmbrIZC+e58i4LJC5GhyJ8kcWNtXGMXZs3iQuDbbRXYx/AvsvvejLL1lM8kpe7CXRlkxptrGYcZImzJxHJdq0dHm9vqR2rJZFCK7rJeFpPynZJEoCjRuo+48JOy0cnIn2yF8Ojld9DKNpRMkmXTnByyKSgs88sxKeMhJyMULJcFn3OPE8TMeEhDaRjRBEVx3sk7FJIsypsi6FMdSHE4iQqScqNzN7FJm9oU0Wiy9HyVqvhNavsfbLHZKDROVGODkNwiOC3Y47iLVTd6yEcaIgj67mZZcb+dxdiZkx2RbRvHKyxRpuxDI6r8N/CaL0fdesieM8DlRF2+RvRHkm6HlFkbFKzGYvwNmW2RgyUGOXuuxSonTJwKnEhNkHq12LsfwLLNwn2vRSsZZuN6HMcjcz1GLMbkzqItmOLZBcP2m4lNJet7nMc/dKHMeSEWQRi0vSxyPURvLK54QybqQptCaalEVMcKIC7l8aitL7JaWx0xxrtkSOSD3qFXKY5DkkTe8ihkYCxtGPGhRIoj/AFfJZZKRJkU2RiyxzPU4UrJKzYONaLxJHNIXjzH516saKKKHEcdGMkjlEVbl7VJtuRVkYChQoigJCWkdK0saK0as8E47iMWbtslNaUSVPaStEZkXbgeG1pYmX8hl63o+y9Jpm4bGfcVtMjt0bSOMUSilVjyNGHMpOPmPnuZyOxokuc5j4MfgyckRq03tIMiLxoiitF3v8d9skbhS7W+3NEs4N4uICRtEihkpEpkm7jKzHksho2Wbizeh5Iiy2W9HwPk4REktK06tbSDuMZEdUL899962WPk2F61pRRQzyssNrlZ08HuctxBaIWjJRHjNrIw92CBfFjl2NMnEimIbHLmxMT4u0tGZfEFtcSOq7F+B6y/BXe0XRfc2fedbo+XLiMBulHlrso2mwUCCpEmRiMQmtGjwSkTelcRXMUQWjEzKNtSxytbhPRfhei7H2Ja2WNWUy2jd2SQ1pyclm4bsk6E9ylw926UF7XyRFr99jfFm0k6TyCmRkKTEyXJJGw2mwjES50kNl2syp43zuZCdm7RfkekvxWeTIqISZF6vS9ZLSxcPKYFwh+IviL4Q2KXujqx+VplkRVqLk25NKDuQ5m7RPRERP3fUh6ZBcOHh8EFZfK1rRavVD/D/AP/EACcRAAICAQQCAQQDAQAAAAAAAAABAhEQAxIhMSBAQRMiMFEEMnGA/9oACAEDAQE/Af8AiGvz0UV6yVs2m1MlCvKiiiijabMUUh+ojT7KGqOycKKKKKKKyh4oSJKh+ojT/sWSnZViXwS0xRKrwooQ1hFv9Ex+oiJDklHacYuyQueDoaJF0S6Ey7wpL9Fw/Q2h+qjRl8Ynp10bWVQzpkzdeGfAouXRUkWLklFx5GP1UQZpttWNt8iZJm2xwHdERvEeFbLkzaI6JTcvXRE0pfBOd9EYtjjSocES0zT7JQ29G0ok1wbh47w/XWIIc9o9RkZE5ESP3j/jv4JaDSOhiYnfZ0xxJeuhckYlWxqKJS/R/paIajg+DQnvfZ/Km49YvwTtE/XREvgpImy87TSjUrRrx3fcNYaoSKIol7EROh8jRQtvyf4JL5FqV0S1mSmmWUdC5ZLoZRHScuhx9WBQ2by0xxKxZJlCWYtEuTZuZ9GjY/gnpqycafqRIM3RNkWfSOjsZWWJDYjs0V9xJVySkdmqub9JYREeFJoTslwWWWbsXnTj9tkFcjaOFk40a3HpVhCw8WOVl+agSX28EeEfVIys1ZJIm79FYRR8ZcSsV4pEUkPkUuKJMovaak9w/TQuMbTmJv8A2WWWPxQsbeRRo1eMP01mztk0Jj84IfZuLHqGpLc8P0kIWPgiTGjrySIImuSzfZJssY/SjhiGI7KJYeUIuiasfGG8MfpIWPjKKH4oiTFK+xxUjZQ0Vh/jrzREfgixjXjHo7RQmxyZY/VQxYaFlj8NMsUiuCRFEvVWF5ORfhF0MirHwMuhv1ERHhc4kNjfmmROySG/WWIqxDYhxQ4UNV5JCESG/VsTwhsSxY2TfglZtKo7KJFFFFejRRRHCKKxIl3ijaR4NzKKoskPxX57wsR5EWbhyG8p0brEbUdCeGP1VlG4sSNpNVisJYRLFnaJeshCzuNxLkrKkKOJDwiSw/zV5LCGvChKyihIsssYhEkND814f//EACcRAAICAQQCAQQDAQAAAAAAAAABAhEQAxIhMSBAQRMwMlEiUGFw/9oACAECAQE/Af8AmV+a/qF/UL2L+/Zfrt0jdybmiM78rLLLNxuN+LLfqs1OsJ2dEJ32WWXizjMkRXy8WWRYn6jJ9YjCixv5I6g5F34WWMTvNf6RF6jGS4E7OcPgj2dcnYnwRfJVkVyNDVY2lSKYvVaNRHQpm9IvcxC5RpqjbWEfI5KPZcZFD4IyUuBC9VkyS5JRURogqN1CkKrJdiWJcukfxRvGdkYbResyZqftCXyyUlEUrdi1GR1Cb4FPcKRdiTNohHQ+RevI7Jyojp7uWLSSJRo04EuSS2kdVfJHVTZViHFMaro7QpEfXZ0SdidIUpMjH9nxwJMlp7lyaka4NCN4rwlGnaIevIn0VzyW2aaEs7iTvgg9roTwnY2biciHrsmNWLjsTQmPd8C/0bfwbWR0yMWsOVHZJUiHMiJZLUS7E/UZqKzdyJWfTKaFMTwkRLG7zOLfRBUbtqPq2Jr5ITdEZWvUkaipiUv0KbXaPrH5HQmWJjYmNiRJFUaj4FKxIujTfHpPEiZHDgpDjtI8iRRRtKKzOXNHxWLIs0ufRZYxjVvkoWNooJFFZvHQ5oh+XJJ/y4EMguSKpei8MbPnHCFIsstC8HL9EpNi4KEhsS3Gnp7Rem2PkVG5HEj6f6KKs2kVljRIlhckuTRwvTeEUfiiDskrF4N5nIiuDYLgqzSjtWF6TY89sl0QYpHfixsnyzTfBR9NoikfAheg8SwiQuhnRbsidiwxjKsXHKE7xFc4QvSY+BCXOZF0LxaJGmfj0KW03oizdhfbvzZMj1iyxlCE/GfYuJCY6IxRVC5YvvXhjwxkeBnfAmN5TF4apVjgXzRAmyPqMbPkdnRdiY2UKNiXhONiJOhVIiVbEvvV5MmIZIRFiQkLyaJoToi+CK5OvUYxEnRYl8sZGxTFK/GyTHz0PsiJFenQ0SjWGJDZWEjTVeDdG4uy3EsiWWWXh/Ysvys3G4kUPwiR6LLNxLk2osuzaR4F4v7NZeKKw8MrCQoiWWmxRodm5lJjjhEfQvxY8M2iWEQxeG8MiM2nTIYRXpsYxY2lEeC8tDliIsS7IPC+70X4seU/Cy6EWN4oSESJEWRYvN+H/8QAORAAAQMCAwYGAQEGBgMAAAAAAQARIRAxAiBhEiIwQVBRAzJAcYGRoUIEEyNSgsEzNGCx0eFykqD/2gAIAQEABj8C/wDiTcW/0bKYWTffUCrLd+vWRSFJXmCuOnx9LaBYrFPpr0c2UBd15WUspf6UN8J5+kOlir2K5FMdllultE36s8Zr5DTWjmy0Ukt2CgfmnNf9LdwreHTrqFCuB/SrYV2U34T5TkmAm5BOVBAXdbuJvdQxX6sP9KnHtfjp00f6XfFot/AB+VJ/CeDhUi60UZDUaIog+y1fJ8LCmTUYryuowt/4rc8XY/pW9iGI99lNgxfhl/EIXLpgW6FtYvyt6TpyUBgm/T7suWz9ui26iMQ+E4pNAge9DN0O1GpplJpquZKbAwGhXMr/AAMa/l91+j7UYMP2oHTd2E5Jx4ls+XEp8TEpO0Pj+63dnFg0UBx2K2T8OjhMaI7P0gmK+ED8UGoqDzoyPshhT/KOtHUpsKkuU+I4oR2fDxn3db2Fl5cKt01qWlbH7SNvDyK8v7zw1uYtnRbmIYDqFf6TDEMWi3hslCVzD6c0FqsRHld/ZMoWAKaDI2QYR8qE5lMMLrehSAt1woPTnClQn8PFiwlbPijYxd9jdK/4LhE4cOH4hb4Hum82HVQ49+SB+xU9ihpTVOoQe+acjI7P2t4soKjEr9OIyYcXhts4lPL8Lfwg64Vulbt8KfCIKi3AC1zMcSckq2SUNnE/sp6hqt5aLYOPCR2W1Y9wt0vhPJdk4r2UrRbVTm2QDi8Q+XCE/wC0Y/3Xh/yhOMAOLuVFHqQyDWTdQCHZEK5GqD/SdciKWCfBh2vZfw/A+8S/ywb3X8X9i8X+mU2Inw8XbGGW6Qc4wYS2LGWUCe9J4I6eF3FNf90KxdPiMe9bU3mPusHi+DhYEtiwjmnUZdr+RDPfIOoNyUWKmrLVQrK9brVHDiMOwQe9XpEEc0K3yQykjqbFPXdKlaZJqwQPbKynPfrMk5YzME2FcldTW2W9ITHqU1hq3UrdU1hbxpixYea3QFtYwxR/dedP4uPFjKhQrq+XnSOqW+lbH/6rnTyhXrFJKYGpRwoDNC5fVbGswe6nqbrmuYXmjVdytFJNLrzK+R+YW0VGXmorelnCgtotepWdTCuFZTGe+QgXK3xCBBrejHBs1tSU4UKeovR4ATK2Wyk5JK3AtrFJo+A/CP73Cnek2rypNGdbX6v9+pzZbq/un5LsrqHz7yits1sl1s4hOdh0xk1H5UlRT/v0UUnFGqlm7hAVamzyVqAdKfmn5lb+IrZ2g6j1G9Kiuq2yfhTXZHNSd7pYIU2wD8qCnAX8TwcR9l5tk9sUeivlvlNCh02xclzTkpYrdCGwWCG2FvHixSynKU2RhR0wU9L8sq6vkgwrK8JsIJKnPOS2cmjmyguE2G5Xmlby2AnuelGkD88CyY+iICblQYeWV1KbpTLeL6Kytnj0Reg2VaQm2St/I+Hp1qW9Pqt66ccqSHVlEhStjwvtN0uFPqGFYo2K6OTl0s1jLf0DCjVOVx1CVGUrSjceKldkxpdNhlbXTWITyKxlgBR6NxWQfekrCcHM5J6QyNwu4VvldlFlNzyWvpTkY0fCvKUMWOwsK6dKtS60yFlFXHDjM4qSudJbJrS/R7KFNkwrNzTF6QKMnNTwJ6LJUFSaRQaI4qEJuICnzSvNlihcMaxx59V3ymgZYnU3OSaTwXNQR+mnZRm07VnpNo4OFFaegB7wmFGMOcs1hf26QMhQyimlNeK6OHvNNoJ2srrDqhmnpT0FGo9AgV8InizQGphboYLsUx5pjdaKFqrdNFHXutaFBYkAjxC9PnLqoTirdRcI1AHHxt2ZNi5CTRskdXdPQn9RQoaSmPBc2CixybvWC10MP2vjIE696a8IkX7ZNOqbRU3RbzIIfZQTJkAKYaDiOrvlvVlHPpcqKTmiydBMjoEERxd1TTtWaT+FusBp0wqE2QJgVzU2Qb0rqfqjdR1oU1gt2SpFNk0HEetsjmAv70lT06LqMmlHNboA+i7UZNhPsg/UAr5Ho1YutnHdX9HakU7rt62OKAtFqmwQt/H8KApq9HF1N/QOLqTk3lCjps0kpsKcrRRbLPFZRZWq4yvg6e4XakpkAMj8aKQmek2rd1vKOiRwpUKDSFJmulNFtCyjjs1JldlC7HpNlHAYpgPnINED6eKadThMMmlJUcNk+EogkI53ZR0KONrwXTJuI4lR0iFPDcV3VqeBu0ESsOSMscN+hxxXxW4MKUEMl+AeAybprplsir8NgpKhWysMo/0NC/4XZRWeDPTycpoeFtdkz5G9A/p//8QAKRAAAwACAgEEAgIDAQEBAAAAAAERITEQQVEgYXGBMJGhsUDB0eHw8f/aAAgBAQABPyHmE4XqfCY/BOVyuJw+J6X6L+bsgkQhBY5fM/GuN8I79D4nE4X+HPReGQnqQ+H6WQnE4evQ/wAU9SXM5Wh+vonrXpXDF6WQhCEJ+SEJzfSx/maYuV+GE9K4hCemE9a2P/BXLXMJz36J+ReqeifghCE4n46JC4hB+pi9K4XKGuXw+Z+OfmnpXK4fMJyuHxPzkvUheh6EuJ+KE4Qn5UvU+F6FxPTOX6oQYgvxpDEIf44QhCfiXC9S5QxDEvxMQvXCEHwx8v8AAuC/Gl+SehcIQ/WXBE4fpnofofKXNGL6DQ160JcUL8DIT1wgy/idk4ZBC4SHsXqXC9SXD4XFGxjKMUTKN+h+l6aEs/4b4hBr1o3w9jWOC4f4Jwhr0pUfD9TwPJBcL03h86nb4XE/DPTS0n4kvUpZFy/VPQuJzpcsfrSkIQbFykPicMd8F+KetcwZfwLh8L0T0r0tGi83lj4Q2ZM25vG+D50uFw0aY1Rt+AkQfrnpaGuZyuV+CfiZCel+hiYNiEIMQ3wlw+WLPBAagilLylw36p+Getli479KFw/QuV6GLxeHoXCZeFwyedmiED4aEPVLnhWCyx+S6e4sLyQZ4hBDXG/TOX+VJwuZ6V6SHgW70JnaFXofqacLlIs0UbKS98s8LQxPAlbaIa8fZ7j6tb/+IZFVJ5MFli46Ey/lf4GP0z8K4deiqxn3Z14YjLpbnYkbeq4fH0IFw9RlVaXnvll4gkMpfAxfQumSjLXFqIMjmOp5EZYz7vBKNbkFP9rFgv1jVWL80/wlw+Fv1IC8ns69zToafJ27NpL138kM4VuSBw2KhIYwxLyNEeEXkyBwZELigodICGoONB9xeQN7m6V0hdPLZ5Yh191I01fDEsMn7DRazLyF8ACX4VwyfmnE/HqUpiHoRJ2UamFgcmn7Hk8dO2kWE08seiwvN1fT/wBMhTY8GNdi0NjfDcHQjcHvEVLCZRRWNbvBEwJ0w+/BTRgrZF1h00eVpEXjR+AR2P5Y6zfoQ1tF75HsafyjAsCi+jEv8Z+iC9D5X4KEuH9GOySy08JHsp7mTs10z+xSP+WYMT86Fm6/TtRi7SYLNn8RtHsKWkS4NlmuextIbSHVeDESOvozJZGyhdDJ5ZVjW6GxGRMFi41LQ9CZdbNU23shDAb5sWLB8wm278t/0UFL7ZCM6tP3zwfIwvQnqf8AhsXqfDBiNkvImSrVjxbeDr00Leu2Nf8AolrXzt/JEs/hSh4hew6EGETDT2YRV7rvAjNV9EPgQjUNwPoTz8s/rKRv9PdmCvk+xX/z+SWWkMTnwLAmez0OdBGlrTrZi2zSomaPsjehPtOl0KyWj3YkX0EFyM+hm55MQtpS8JQswvlj3mN7lplZBOEuF6n6teiE4fN5f4WLEKGw80g5UTwuoklJl4EwEy1eCiu1TrbgSlc3x/Ydwt7XVLWi78H7mcsL+hNE7R0fsJEmmPTDjJ9BaPK0JF2f8HzEMue3/oRqtsTX4ZrNuituzRkPaCw97EJ/AmRb2yI11FEUl57fPg3N15ZWld9QERf9jIyq9hPcnxViyyv2CbyPcQmKb6M+hBIQaFwtj/E8csn5F6mPEL2Ey9oRKofyx/FJ+fs0BO62zvW+Rsiu25L5Ggsdr14cHfYev+KNVrTSvseB4atfQVasm3X7PYzF33/oeezfnI9O4Pu9vlMW0zWvkdviB4eRGflmaBKJPTFqLJj7BOSYbSMi9/2FQzksCYczaVKxEWjYbjAj/dJEPSeCWP4HUm8h4C92hby681FXlV8DyIQLQuC9DZn2M8r1T0P0aET8D5ZaGHI5NtMWifRoaReW4M/lKoVBU9t3+9fcNos+/wDx1Mq21ZTMi42jTWgr+Yx5/QjsKNN5RWY+HTYPRa8B7BV1r3FRpRdW+h+yMHlcjoqrevnf+iMfkL7V4f8A99DrfTY7n4zBsJ9IjliCLeLUIHtKw4U76Z9Mown2wbC27KJnFZa+xiXexpseyoiG7yi/KIC4on6n/gIhPQ/Q+JzmJgzSnlbKSiR1vo+7lVMSe18n/AbMSa6zH0yqCbrSP+hCtPsoxjaxRLN/+iXSG0DtqV4ybq7+TAawJNNrHt0JjRPcj2eH8GCavTK98szVE6hDH7DJmCZJ/FC0JhODVfBYJAQ8web+SYJaQzHp7+wlTrsOFSnhjSyfQyMfyJs6+GKpe4hcIn+JOEL8L9RryMMbQ2wxjyIYT2sFPvtjP0Muk6VU/wD7wNU1t/OzKJkyvKJrndXock72oozG12tEFX6fRDpaYzw5QySiK2ZJWQ1Aiv0T/kbDfwXBoTDMumydDflDpCvYjqHYmOWexoljBZwnlst8EWhnAsWOHfBv0IXpb/Mhem+h7EJE4Z9jMd7RukUvGvZzI/Hv2MjGz5JjRRHHnKy+yBGLPc+R97G+un8MUlUmr1senXEIqkgVdZ8HTa2mKcHhizPA6GSHvYqWmOhImesmotkX6CFpK62z5aDr+yf8hbF0v0TNNIyBjwlB+yjGgdRMoa1h2cISLAlgnoXrpf8AEfEJzQwhvhjEFLeakf6bFMZeia06np0/f2NWH3X9C8GG/PY017rZsI12oZIrY5/BbHRTPCP+kuT3BjVu/wD3HD6B0UK5Cm6jMIaE2QK/Hlic14Zbb+xpYiS2Yes+XWfZjRoRpH0U7XEg2Bv0G5yuaX8c/G+Vy9iwuEihh4Eotoa73KCfkRM9rnyYLSSZZqqQWo1lcEQ28H+4ArOJc4qmea+RK3EZVV8L/pkeRTIPGQ5LTAwj/wBkQee14GBVrZ2xRrNPwyOssjcbEMVfkq4z9klX0Y20keGD0UukOqjEIotQ1TewuOyfnRPyPlcqnRkGx8EJx6CfIdt9t/gaoS/wESeTPBcHOpk8C93ZgFwhKc/ZsSLXC/Qr+vYtGTDKZteRb1/uTltC+zIMuFB1ZZ5jq7O2i430aimZXNw7ECeVGCXoyzJ9FPPqCKZDBPYX4F+Jf4WxIfDUar40ikKfYngashXTI8eBLK58EwC8L57TJpX7EJNFX7iPVYKeV0NuT/ok9wk5lMlL/Q/NpmzYfRFh58ix8CUhh4EXQhYOhGw24cMmXgavpwakm4ZIfEOzXifgd8elcopfwL8CThj5OUNmSF3QqQ9HYwhI8B/MPAngWtNoj4I9hUaDHY2JE6HuEV6QhTkUv3nWj3EAS+Bgn+zJdrA8Iz7oeqj8K6KrBfIzabHNDMWXyJ1IJjicaGxemcIT0z0Qg0T8K4eiDwewbHaR7BjM7AiNmNEZjYP3N7B5iY5aLht9C/3R1lfweJBCRYfY25mYC9V3HuQvKFXylDdGk0Sb6ETYOXggk4jYw9hd2As1CFufoeY/oimJ/RTIXSlbavwLI3X8lnBF5XMJ+alKX8b9CDRkTsQbGpmKNWf7DXCQvgy2X7KDtYf0OM4eUobe/lU+L9CwyLLYWdUiVkvFE6SeBEEwH51tFp9NiklCNobpltEd5LjAf0Fzv+D4JlToN9/sem57dC3iPA/2K/INPRbrXDF+BsvpvqovxsS4wIJRejETM8tew1tfwNZRLqEIX8mKRqgiZhexsQ3AmhpCSyvsTR/9YtXgY9hDZ+yJbY9glUs0Ylws7CmB6LoXWcCxHW3g9w/gTMwNbNmxKsNjqezITN+RJnHsZEzNu2jWNQLAh8sgvW2Un4H/AIbHgosCW3aE7NOcjHNPC6K5b7IZtqQzVG/JlpT+WJ9w0u6YXQ37IaPePhDryK8FsxcHsASkxOfKiSLycmzVkxghr7wJNoSbIUdt9K7KtfJ5Jhii19sb+S+R9oJWq/BU4NDPWwuErwRERPXAjYkIfM5fDfK/HRtlMBu8ELRZRpL+hW4n8jnyBgTXPRnMR16TXySpttmnYzzAiqj37gvT/s8IQpn9A8acl5Z+2RkRPoVvIPUw3DQtUgULCo7yt0yAXQ76aH3lmMuV1e2+FDk8e50x8MTZjuIFzBIReGITLg3yuKJCS/E+Uxepq79Dc45Y0ZH6DcHZXvOlJNLwbKeexaTapOxzWUEVaT5F+AMwah1htz6PA8nS0jBWfAlrRv5EhgvsRjBRz9i/dwC2yiCHEeFUrhivwj3mGizKV8ogAkcvg3ShZe53MlgWt9iCvcQWuxYDYEFw3cIkNG/RPQ/S0L8M9ARxb8GPjaqt6ITL/RgFvvN+h17U3/r2GOwkFsfwLmFWPYENZFCLskapUZXoRl/I1gw8BPRqJxj0toufIm26h2mFK6bXwbvwg6xIaRwfEXCE5kqdyooMA+sFQeWUpMWUQbEI2zXrvrX5GvQxPA+PTVdEFOaPb3EBsZmodFG02I2h3wzyIbNI9qHWoXdEhPonD/wF34WwJXwSNvyXDFwnOVk8Kg1CNrh8Nj7LXwZl/tka5q9sIzLRQ0WQuKQ7JyJU6iykQLA22VzIymXVMbjs74aRCehst/xWhjY37lROxP0Pa6HPQNjyOyn/AM8/0L3MxtsPqsw/mWJizzROLpitcUXyRTkOJ1k6YRF5lFYdeRKFSJaErX7C4mkhemF5OipmGZjMk+haOlTiIOb8BqW2hrTyU6KT57GylPYZ4hFxPUtfivLZR5QrILBoJBRUX1kaiwhqTqVg1ONovgS/0C7sWfEgCUUXcyZBHwhD1hGXBlNeFHomCYyIIY9GfbKuz/Y0k3UeC2PeYRodbO0y3Do0HbHuQrMVpmIaa/YnWZJ2zybdhzfaZrbwbXQ+NPyP8t9EJwtWCx54WULWNsMs34Ho1dseyRCrSMj4+IOWQvCDRTBdmChdnwCLYY2KoSpJwx2I0UQM6Y00RuRjS6He4YXECot7JKNdv4GAIKr5BgYvYMxQkXHHixbuAu7e2LSwsXjoYuLzP8hoKikgnHBcfFCV3oSxq+4F7L+SOofQxX5N9FcpD6cvbBvGRbCaJR0ykyxhyNBQQd7EobwN+eMnkaifKNlx5NYZnzeReLFEyNjA22ix2eTe2YraCALh7EZEvSVl/Ch8L13hCu8FyJmogN4MzERNlA72GKgJoPZGXQgafkl2hSGFYe45eX8iXkSJwaEvRRtnhyxK7JwlzY1OjKtzRG5ECQ2idrIVt9tHvFXWkMtzIqpvTMZvYsKC4fBcvhIhPTknFKe5Hx67BBM0IpVq4NQ4F0LEmDG64mYjAk634WEhfCMdhkukSw3sYfQhrbMEEnRpHfDjQjRRit6INaLhOxAltxlRI7rIQWhVaQNYcnkjoCGYSBLMDeBvfgKJyz2UR0IXohPyQnqhODjQnOMXx64EzzM6iwjPDESURL4E4QJELhMwaEyi3zfMIMcfAwtKNXSLZhF2eHjGRrcoYyjGw76mkxRpoUuyEnkxLLwJaQpRvIhDQQhLhL0N/kvC+pm0YtFBPJ0WBjFp0NH9xLuYq1R8eMFg7AkeVB8b+BeYgSeRq7H5BNE83ielsd/MZN70MbIQYQxb+RkZyKlcj7grE+ySLAvTKvclhtX54hVrQpZh7RC46IXrfF/FS+i8LIyilh5kDBMBseVDON/RkoZFcvkcSxjwNJMDHCK9ngfVfyF5nGLJs9aY2+yNsdjEkt7Le7wuDSrF5Y2MNcGlgbPuDH2f8mMMz5ZVo1J2Mcmmwlt9hMpmHWYJ8DiswXE1wrCNlEI0N+F6Xw/TS+l+miFo2hYfFoMuI+PAqRkpbCMlCT2kJR/6h5CRaFWJBiUwIiUA0SJj+hZCJL3EuCT538DGxxYXDMjfSGICLw7RJMq+Sccv0aONaTox3vtDGFfLMR+Bryau15MjXHZbYYWRjZClLxeH6NFL6l9FKNlxk6BA2CjVISnZDE0JF7Bqpu2V00F6S/Lo2/yM0z60cns2Y8BC8uttmMqxX/6NClwPD0MamhcpcNkYbFGCPkyIgjOfQ1FlH2Z1GWv5TwU8DKpUY6jMCADmSFirEqrYuRxiiZRInovo0N8QpRMbHv1PlsmYbxx0NVnUTNjRbGZZ/YxzrwOZvTsW59BU+FpYFQ4NpvsgjofQxkdRSGK8gqDHE6Ji5bNg9rHyn9mN8MlSe/A7JrYlRQIX7gidJIQm28+RZyUJvApGDGy8OP7D+2j2gyXY1CFwvDfoqQ60aVY2RMbpOG8DfLITlonGQNhjZoQ0h9mdzVFxY+SFpPfsTsL27ZDSRheBsNHR4Hju5v6MmvdGQ8DUk1wUstFYt5GyY5BRc4Yb4Xht9C7PBTBMgqytFgdW9CdWNmTjXxmiTITRnjYl3eG1idpgprJ0USCwuFIIvFGKfGjb2FshOXNiUH6ZwnBIPPCjKivcxq6pGer5gkQeC/YmMNrM6/liESK23EiVdsiGpR6zeE2Y6FnjTE8YKe/Db7cDcsfdBK7fCLmJMVooPg6/KEbVo3UKmsm1pj+B5EqyNmGkWXD2FSdmKcpzPfBVF4Hp/J5EcJheqg0UQZO2PjiiHxBKDOxIhCE9GSOxu8m+RtuREYozaCrv6Q0Rj8i1e82nRqm0lO7RxIRo3sNkPHrImae5M2n8lyBjMJBpNDmxi8WkR9DI2M0Xse5H2iq17CM2k3kWXUG6ZO+BO46Exs+SLDyeVZEO0/ISTMNpQ/g/RV6CKUoww3BG9jwN8LlLjPopS8P0Fo0LRDEWOn9xYZ14P2DBLf6EKPLJt/gyU87IM5pGK/swPsMaNBN/OGYNr3MvZk4mHCWVlDec4NB+bMzJxIyTNb7HvqyCW2qCvJJztC+toYJq6aotXBlpvBko2fIiPgjathGrj8ujDikaFg04vCirHjhEKTicUbKXkq9YN8uxiZFIyPN+jOPs8ESYvhEY9ozrPYYqLeivj4F6ag8L5KaabyGh+VsbRYH/AGti7dcQxa4nwbDSXRXTLwuM1iRXtmIwqs4wfKGGkjB3A6eSBlibGiulQpNnpnkhreHwtv6GaUsmT8mBkNjgQzvhIvC4b4XD9OOIj5EaNjTG2no+AtlHo0GIanwLgbw/I3bhbHqf6G5rI2ZcE/R7GV/Qd/6FpHVLP3S2ezDPoJqfviXwKMWUIKOuFTsy3oaB6EcbeFkmj2/UNSijOlPcfGIzjbIRYuv9fI1OVeXTN4UfyeXP9TIqq6aMZZ7jJlr4IrTyCQaIWRDY1eL68kIP8AL6PDyvDB8OjBiFprRkbt8BNNXos6H/AHohuRf+BMSnU+BKnSQ500zqdltfosjWmfqErq3/AGbRudHQSdidx0XS8E7ZgZ2xbfwRGtGK1rIotPIRTUEvZdwIS1k6GjEXsImCd6g5zP4HvLJIcXIhr0Lhi9FGxu8T0CCCCZea5Q/TGWiFEMzEJcIaKeMC4xseEmWvPg6Jdsq7NYEKLoeFBGlWdlPT9jFr3bZsngWczon3/Y0fwYfBsl2aNswekTNGMekrcEI6v7AqiSwY3uxqLqikG1owxAw7yxSdjsR0fRixTwL2EhIXNEiZ4XL5pshoZli5zQmIJjP7GxM0bxeAy4GjdGeTqRfCHtvZeQP2RQl9kiV7FtRfRA2yOPn/AGUkvk8CWDwh84NsI/jJzyLEr10aQum2RThDJt8yDnpsl+hUkK7awOVf2ONNEt4MdecmQEjMFSVOgK2QvEXJE4XMx6Lwx8JcMzzSl4fhw0EL3wZ2RudBSdRkMOEEsk1LWzJl7IUGq+RLNL7HKNhj7f8A5STby0J46jA2yyx5Xxf2LbZkQrn9hSnoYJoZLdJgrjEWxCFoaZZlHRXeGmvkzSbGvI52aGuxqSUS6JOSoZdOn0MloyEGwgmIiMcXijyaKilFw2X0UtY2RBBpMagmU2hvjMJwJc8ASPeDYVfIbSTbH39A3zf4G/VvbwaXS39Cga8l4V2YA9YMa26Je8wNrTo1Ly9j/YZuWBOtPpm+jQQ2eafCXZqJzne4M/7BtDNMao/I97M9f2SVDGdjLq34eCZf8iuiXAoFxSl5vjiEIJetjbHhcVcJl8jXgTLni2eRj4FHePdwK5+zNzpaM1eyGsMQ5citzOkIj3ETk9mOTAUp7Di+xpHyPKCpG7RX2nV8GaNYpJkHoy6GFwngXdE4nf0BgldBtm1BhVl+XodnWn4IaZ4m8X3AxvDtBuu2LBh8IeXDFw+Ey80pfTLsSSGr6K8KB+UNlqGNxjZE8mxSyE3mb8i8MkhnEnkaNEeAn6ITLeBj9ozTQtFUll2yRZpbRMPsKr20MbXoqv0bWLh6I0MuuCeDZ2Iap0dkPcgiSI1/I1CZpPSbZKN8hmmv7ZkTWkY57H3bMmMXEGX0XhD9N9F9GiURoT9BuRvVw/DMa46MUtseQuhxsLwRKQkv5Cqv9uTEI/gPLDoTKZ7KFo8iMkLv6FSZa58DYGxOGAaGGUJu6NFaKzZ8JjNDmGWJXwGKmjVYnx+1Lfwd2/ZMrCM0XW8GJRn0OuI9mheayL+O+mlLw1oTMeExmxc8WKMRMto2BWf/AMB4WXv7i18ilLqXAwaU+glpZ87J+whDaob7n0FoEx33IZ8ilC2/gycyK9ibKaFtmJpiTgVmawNlUM8kXpid0n9jUiafa8isEXon2RDuUZZngaUQjmEYbFytEjEIyIvN4vNKXhaZG2uhCwT8G0PAmN8tGOOLbHjLICaSspNiX8iYqeyIXyHf/wBM8yvkxdz3ExMsdDT5H4DAzMl34GR5B7V2CbvsJtKhGiyUE4JEERM0/YyGSYbwN4GeViXl7Jlr4KryvDFWpJDGxDKk0oknpDFaM7yPDkXwDfuGLdLBaEMwGEUwaKXmlKUpRcoaMa05Qn3+hex5XCY8jGhkMfMRwsK6TsxBiTl8h44fA3Q2/kY6fvCqs37jzg3ryROxZmKVFD26k8CxFeETaJFEr4nD9zoTsoaejAIzFvR8lLeT2GtK6OxhinhjWGp0yJVJEgrbOq8RNZ0NbwWJ9uLYsCjluHxSlKX0T007EJ35LPjlRscQxoaFfIc4DpaLj3CmWfJhltjfYog3V/LKtmmLCVlHykv4FTzge0UuR03qi6muCFzSoYi6bPIvgQnR4ovYyxngL8DH/wChH34Ok38CXuv2ImjwM06QgggiLxwghZRofoXBj4bKIpSlKUpS8U+T3bWxPweSKUYhsaDa7KjTKqF/6BuI3HiDdL8sdap0vJYXZ/wf1MaS+BsicZwVLYT4Zqmn8DYGvWTKGz6EXi+Ck6yzLIm6+zbh/Ii0bAl3GeYJv15KqWrytofgHTRgTfcR2cEqJcCFoSEzyjT1UvLEL0OOKyK8M1x5jeaF7b4T5Q08jXtiekNH1jCDM+RnWJjbNNrIRYZG/JC1scm+v5MpmGzC3pTXgrSabEqcs/AtJ1wpS4Hg3BXoTg1QnyNHZLcHSws+B2iezANU0Ypl2xvyOJgJRPLyQ2z7dib/AHEx3wLSFzRqLhCF6T1+OeqMUvgm0KuWJHg+cCSt0TbD9jsB44nPcqPB0KyGT9zIKIzuZZvH+h6P02hLTvZmafVGuNW+5I2kKLAjoi4JEM7zgUYQ2Wxnge6h8mrjIpmoUq0es+TZWXYF5w0Gv7CZlkGtVGOlD+OHYuxaFoQi4E+X+K80peKIanOG9G9DFGeD4D9nBDJ6M+BnC+xz0T3CSlt+B1gwQWg0WzyymM+tI72nsan5ZaJeSa8Be4EhKyxGD9y+BhjdaEvsi9IxU1giRRZ4MVVfJnmfUPpmOIlsGjbXDJHlD67R8cn5gjAwykzNCGVpieClMcGQmLlpoXD9b5hJxRMo0MjY8C+yleSMyN8GQVDfTKMdeRK4Ks1DUSRoe0h0S+BeSGzDDL0mOaVXcIa8jNu2xVR8GyIwtDd49gshfFGbPY1I+lsTNWPTGbO6GrXYnlCRymlxdnlwNjY1yNKcZISDKc4IvDUKLlfRSlKJkcUlIN3+ha0YhjVNDY2M6Q6xMomTQMMKMIhH/IEzFwpDGYdDJZKGd1SjMOjmZYX8FbPxDzKho7fkV2SNGxZdiRt8jysktaMl+P5JBiRmRe6I+xHC2SRomew5s1L55YIoxF46G8HwJjNF4ZkXi8vAmLxSFQi9w0TuAmTybIMR8PkPgxJllCphGc8CrGuiphf6MjXhahzqhlHVsPzeTL7GYQtjZay3sasJwS7dMbMtYO0NySJSCRE94Qlsx4RXnBTHcpNP0KRC4o1BE1kXJv0KzqhEjBG+dKN8Gylxy+EFxoLi54QkL3Gy1lF9F48Qm2J8lXkcKVDbWmVLArykJElPZsTCSIaW2U9vritcNZNsofiNNoyUis79juBW6GO1GffAJJ9Cb7k/6Y+/yiXhOskWSvkz97B2DALQ+DDGZpij4E5HnsWrPAb4InC0UonjjThhrncXDVIIRRBBAatOobmhIylKUMmSPzwwKMRAZ8BEBVNfZkzSP3BU3toTx2NkTqfHibOhbY8IwEPGIVPYjrI6wObmXwRfbfhDAqn3Ezw8jaoZpZEgzk1wz5MBCwNmpQeIGMXZFBTwh+2BFY7GwXilrEIo3gomJ3k0YtC9dgmGlujfTIMsryw8CCyNcDE9jyjoi49gTl5Y2PhDfubA6gxL4DG/zODfGg4bImPyLc308iwkr4FPJut7G51WOThItzWyxFiixmVfuaBRohcsfaM0m9mQh6OxH/IMuRbHRp+g+BvImPng9D3yhCXH/9oADAMBAAIAAwAAABAJlQA+wxDzyjhQihxvGvm4eIH/APUo46EMrnscjt5PObHAkk44YeAsgAcg/wA30BlrIXGzE2HAHE4eLE+/S17P6pCCRbfKL95gwMz72+KhTP8A8i/stNO9kQBG+sDyv4AC98tNfPc/smFzwgP7AmLQbDGncEfGWV9M+duz9+Qe2/U0XUGUnPgzS7L70kZ6iouOmXkfeen/AHyLQDJbrFdZRffXvNpFGbL9+Wavn2ny31V5P/8AgfV/+95KeRw27bW2i6x1RKwQSGlceeWoP/d+ze356sxUy6xEeW4tuxFZrUQXTLsXBekdT5uaNnn22zU37385/YHs6c28qDlUNqo5+yIabE5G9WuPa3N/x8U049tt/TGBbZ7476w1aCQt9ApyKL2omt0EP1iGM8+7958+3aOP+QmJbB7fqinjHjrbkYszdwdpmQ67UN53on66f+BByapOIj90ERcHrQ623+RKCd0pHSGGcnzppo/y3ar42E8gyDsG23NGDl4w5jM3Sfm2gM0Vdtgkkr+y+c+WSqGFAMPDaOzg0C7nSzKNqr8D9M+CQLhxhnz7yyyWapvIwL/r3evuyIVZa+JO5FwZ1ZtnEaQttg73v67Uits7IBFcIAZlB9T/APk93r4/blUZp7MnQJ4PL5MFU8bKcDDxIZgpLI0+JEDmXBAnzTG5YCWIboaroIY+P0+IrfG+O9VBb9ib/KSdXSzi7BRDjUxKlWtVul3kNGlMgXZt2Qk8ethqRu8Q2qhgr3uVuqH11lVHV2t/n+aWuGVKr0fSIcgirTxytBPc0Jk5a8xy00FF9Xd0996/8bkJ7p6rRVVeoRFbG0QECJpLk603d+NEnF81n0m5ZIf2VPMEihb82wvwyaFT7KHEVe+6TtMEwXON30nF+XhvCK5VwaJmTzblGtyEhqvJ1Ucz/cvmm12DNk02CObrJupU4Jv0kG2dHUFefi/qQjd52WF3mfdwJcRPwR2vOh0ApQK7DZDan9ALfm+Dutce/Xn/AL5VV5aMm4MnrODnkj+ClMU6UdpSy5JtgW6rBjTkDbHcjN5YrIF0tY0Yz5NwDLFa0h0BBHUXqfJVvOSLs4kOMOjPECr4D2PpLgOUSCq3vxFGVVLsel+P9IIMW0cl7AAneQX8pmHIQzptCUQKYb2Lwm9+UizQ8w3YM1Y/ZcjUgJW+HuWfqlJW9GEDscrCTIOej01eTkHIMwIYDt5yAsHsj51CdxGN8R358ArML8Gs5lB5rTok83vIic639zuv6HUoBzT2Xro1lcwlBvQ52IsgEv0kx3Pbfgh6e6WxjhaJ1auJUAOA59zwNO0gz7FeKaDkQcH/AGUhZUicpulxrUfSzSSfTmRDWMJ/UZsGT0aqfRFAEAAUEktara2sxK9BkKfKcLK7ZoBXXhQYegXiPL4LG9RqNtQgVXO5/wAyEk7dQsjbCUPWOErHrcili5qXGL3z3fl5qrVV7XX+E5mcgQERSqeEVObR8XCbkXXlBYXJb64eVKpz0THyHBPHDufieHg18O2qd32InfkVZu2Nm8tA31kUh8sX1IPQ+RGW+eSNTn758UisgL6HQSo/LJ33QVHVuJ+8EL9s9m1fePflCBRGiy8kk43gB1b/xAAhEQEBAQADAAIDAQEBAAAAAAABABEQITEgQTBAUVBhcf/aAAgBAwEBPxD9QPyPwfiv+Pv+2fDLJ/wQs+OSz/g7e/F9/Pn5zg/Am2Wfq5as+J8D4ibJMZ/TLqLoeWXGS5ZHGbwOQXUasAwhrJHb+sHTdiWODG9RwIcWrVjdl/3Y8LHMJuv3DD+q6iAGrL0+pMNdXd1KOMifXUE9QGZnxsPLR6IfywO9S36zi/pZepYjDOSry7dS9ZY9wMvseymRsGHU5S9F0bGOSZ/5C9jl2pzwbP0DgclbEATG9EERYxlrK6TUFhYWXq7XXW8pDeyP7kLqO09T/MflvLJ27A9gfpFM+Q1qhI9DH28lowy9QC++er4XXvbCYyr0jQZl4f0du+Dsu0HTgJYocBDM71Cl8Mu6vfkgx9WFyRK7pbi8Y8b+kWwzhR6tbzEr1tPq+kljrNWTY0WVWWpSKMhi6T+i8ERw7CQJ6DCd30CDvY5ZaCCzrf59TOL213XgWyrdYw7+D88s+T8Cc+yF4vR9wrOuHX7jUwfRP5WNn1famfLedw5se5JbZ5z8pZwT2xYR+jKSj2eMjm9opqh6CF17d2GXR6hvcZG9lk/7v+7abeEsOH8+28EsYybMel/Mey/hKLWXIt2sfYSCF7M8eQsC7M2QDxd++NpFn6IcK2MZQxZX0z/LJvLT1DghBBfuUbHonjCwBEYRLmQA7mUPJ/RWc/McervhRMH6TETif4l32/gghCE1uwPJPqwdYftIGH3Pxz8YxA6jjLDq3YfwltjpL6mbe2Wf26LtkU2Y3HnpPbuEdcQV6z+cvVnA1bFgWQlWLbPqTjYjfbs7Cs9OA33Z77KuD7+PPgX3PkOoR16tXZBTpYfLpP8Ac94CCF+uL1yT6bb2Yeh7aTscPv8AMkWRGO5wh+3eTCHVn08ngOdZZO/TGYQ4jMLtZZ+AONtttgshC6QayhiDuwHrh1nvkkWR3dl0DZKMSRmWCe22M6kz+HYficKPJdRwlrb8JHtITbH8hxhZ3F6vcdRDT9oP4zZL3YTqUwWWfHPiFkcu5Mvi+4f5HZ0tnyTY7J9hyV9LpjCCeTK6ce565HD8DgOGcbewcnLuzqDuROr1hPaG2D1bnCwy9SlqzYHl/ZKZ4S7PwflttslkRHsE8hp1a8gDtuvYZN/5ATZ31MWUdujkh1IdF364Fw/iyCzkjgRhBhYfYRk6kyDu3ICdX1N5atsvZwEnG99WhoTfdvGWfhG3nIgvHIZFiJ5B9JB2RnssibLxuieOyB7bFY8yTWzvg7ss/Bll58Agy6ydd8IBfWQmdJMsy+18c3i6dMjOpf2YteGGPJsk+e/HYhsdncx7vrLIh7mpbPG8Ms4mmwB20Xb2RIyRMyHhOMs5yzk74xhRRyfGECGwr3ASA64MhNq7tlHY0bKW3mwnUp4fxNt48hthyNW8CHqEgkcr97ZFGCb3KeWvS19vfIt7lks4G38JZwQQS+oInk5JTaeyEk9QW4GSOpI7PYfue3U+kc4XLZ4PhllnOQpe22xsE9IfcF7ngxYluAGtn3al0ZbdsAQJfyD7hpNJ8Dzscsl2R3OOBtiCHcQ64M3kxae5B5O+DR1LJbDnKL2ERMFnwPH/xAAhEQEBAQEAAgMBAQEBAQAAAAABABEhEDEgMEFRQGGhcf/aAAgBAgEBPxBiD7n4Px35nwPiH+TP8G2/5X/Ufcnx2O/PLLPofAfczfhvgR9OfI+5+GXr4+n37974fVl68bZ5WMw2+N+jPGeD4vjFtvwfD4fJEgu4Yg+4+Ldi61tt0gu+W0PB818oVdZBCPqI+4+KljtxhF1aXpeBjqcsEquZINw0nGDN1jmc/kjaW/4/W7ciuEHX7DJgxcOx5pD9IUcnux3JRAyL7L9lidZf7YXTFgPd3B/i29Y6ZdLP7uOwO7a5OkmP5eo3aNr4A326BumWnYdlexj8G5eow/4V8Jvgz7OrS79kSHiDDsDOBJY0H7B3Z5drXUk43fqCOzWDsOeQx9R8s8i+rDGcJDPc2R+1jgNse5L1e44J4OyYg/63XMgjpAHsDXwLYt+8LLl/xDYIQ/gBtVjneROs7NkfyAnDnuJu/toINjMbN3DJ8+J97ZJyH9gx3zKfmX6G/RgjCw7AJgCwNseQAYJZb8z7nZjvucLlqukS3Lbqt9IJ2DKMRB/9iHT1YZngn8sgBuUT534H+JhBFIK0Z+S5z/2/reuRn8sFm1+25+LW398Az3I3k2hekMFnwWPkfJbfAuS1bP8ACV1YX1HWqSnExwT+1pfryf2Did92Dha/4XryAOXt1r4Ppz4tllnhglOL1Bu+z60x7hbkGbHC4L0iRl5ARPb3B1bQ3Mup6ZvPssp+W/YuW7G1EjOz34f+3HuHGsD6eA4k8GH5C2vWRMLE4ZEDbO2qQBi379hsXHYOy07YXvJVu8n77LCGNcj+ox6se2WRZ3Ody/cPeWx21eWlr+R8NLfhvx9Ww74LHZ6WwQxP+sA+rCdvSRSZj4f4lW4O2JyY4idwP8gE7OdHwyzznnbfLy9bZbYBA6YOS/hEwGwW37LyzE5f5Jjp20dYTjJzkA18Pz69ttjsz6j3ZMt8fURHssOXuqWe/EfxYHhclsH7IPVoNhzs8cIA5AQl7nh+WfLbfG+WGbZmbZmsFnPGM0J12xaXERZ4P7MRadznpaXLfoeM3WVtv0L4yyyyXkt/aRvZ7LhA6SOJjtpIQMcYfC+7jtyloWwJ5y0aNsCD0t72AR8O/HJ+RjscY9lryGTPtjOIIFo/ZMSvzwXL1t7Yv8lk5K7ieAHII9hBNtvx347bPl20lpt7DBhkncZZuRkXfYcnjHqTwcjYdLugcZlDO/3woDI6+bZHy3w3wmyZbN1DYcW9niA9sZrHEstDGzfASQeINDuQXuRwIAj0hkfVllkTfBT62UdZaxse7VYs3H8tob37kHI8s8NrRLPUXshm0c7ZgEYLYs+hZt8DM+AnrwbuLAwtVsLpvwbhGp5hMeMFs4+OU093rjIwWM9WWW2/TnwbMt7WPc+wdsFkO+odx9QJjGXDb43Jf29ke2hI+Wol6hxHrw8hh+e223vyyyu+S7yxT+pGFAGjEm7fkj4OOX6XLYH2h3kTA+DyPA/HLJNvU+Hw1knd5JORvW2eXpG5ngyb8CGt3OGMoyS+7l0hbC2FEHYeB8DbDb4YfDLluyyCRIiHSepZ7vcMkVbmGpJJ/tyyCMnDlgZPU1Yx2CIPiPjnhvgaWM6lSePqecuvd74SXWOzmS+IATxyA93sWfSzDsz8vSCG2JLLLPkTpYbUnGXwf0lvjphNjL/JJ2YykmWCQYCZHGGmRx2PRLbIbMImbfG22/DBvVhZMscZ/lg5GyZvYYtLhD+QDDZepVkx/soclkCHfBvUM+EmPO3udGxqeyWTK7JOz78W+CdTjyS+4xy042EFhJePU3qb1d+GJbb38GX/xAAnEAEAAgICAgICAgMBAQAAAAABABEhMUFRYXEQgZGhscHR4fDxIP/aAAgBAQABPxDiO4mdwgwiQSoGMRMfGj4I17lHwCVEvUDMJVnwqVbBKzEwzSblpXzO0DxKiQPgoMu5dQ7TcSVmVAti0VCXWY5b+KzKjRHtHJnhnl8NILTmJBiMq3xAB/8AASo6juMqBFiOMwLfAxmJlA8R8QMXBUCHaJbUbMC4JVfD8HmFcR1KuVAiYxKxAqBKjNwPhUT4cotwXqXqFPcCmHwbzEziCsxW0Q+FYlSpmDuZT0gOIdogfBSsrBH4pKqNsqJ8VMxIxUqVNVmNOJVKgdRjxK+QESVmBAgSvgYwhAldQSqImKlRfhXwEDMIxgqOfw8J7fHwlSpUCPUDEqOWErEqYEzhSODEubRlSsSoPkkCV8VOJUcR+QiofgIJWI4ywgYiQMSpXwMIFQMRI1BmUj8BQUpuO5zKhBSPiJbOYfC01BhBmVPqXEuXW5uVKzKjvEqOoGJzAuBBbEx8WFnxUM4xUr8QzDzK7gTSJK9zUvxCLFjEgSoLu5UCoGZUpY+UNwgZj0lSpUSBuBUSyGMPmU8RoRgLqBAzAjqVGbalURijM2iWzSECuJxKuEr4XUFyqiTRAgiZxBRFnMHwAED8TJgQXAqXcEwD41FqXGajKlfBPgxKlMCViVAzEhmVAmUrxAiUysQWxMzUtedQIOoSoioUIEYLlTCJcKcRgOYgET41LlxpmPi5bAtlG4nwwL+MmDEZpgfBdHBC0SBGUHwxKizLLS7PKE1lBFuMc/HL4gdQJUqYlY+CsQww1iMDHxq8fCokD4FfBMSvx8PiAvMqBmUX4vqVUpgTKFJsTRMNx+ExCiBNMuXGBMOJjBR8BcSVMVNQMyo8xajmVcMPiqVlOokcRjFjmVG5WcwSuZhKsxucxIGfgYlXAx8cZpMklETECBmBAr4HHwzSDFwVlhKwx3NYhGGWYbTCKoVZK3BjUzLixKtmsTUWXmDBzcqXi2szJqXHfxdQRJmNy57mSVUqcYlRIxjmIwMQJtuBiO5xBH5TzH4XOCDGZXUMQWTgTIhlA+XErqB8EqMzKWSqJt+NcQ+SswiAgdxlWnUdqQpIEogZ+WMcTaK6h3iuYy5UqJKgfAsnlD5GSV8sIOJQNRt8cfCxz8LjHwMwKktZEqXshZviHiDNSqJgCG4GPjRNzmBNZXUXDucSiepWZ/Ewf/Jfw6JZ3KHMbOJkir8TBH4h8qbixcwWSrdMqB+ZVSvhlQI18MvqbgSsfASo0R3qUu56/MSVKlUxgQ1UqlmyBmGvgK3VzFmmDNTRAtmjHxz8BCESLuWZIeYtNQjLniI0cR+BrEsJbHUrMVJZTAyTB1Eb1HwxCIfF4jFXn4bgYqdkNXcEH4Vc8IkqVOIkz8VC0qJKl1HCKwJeIktl3GJE+GVbMXxoyqYNMaT4guJbKivEDEqJKgahSBEuVFTTEvJHLMcQFwR0G/hgxMINwlR2TDEunUEoU2REqZ5iXDeWcyr1BvKRhNs0YDKGmJQe44VykxPUuNf/ABzAhGD5Y4jmCURI2MbliWl/CSoV8ExjmGyEGYFM3qEcoSo7zAuCvgn3CWGoLCXiCQjZmPUTqCoXggZ+GCLJHlKxfEGvULRaJXwYEu5a6jeSUrbCViFMGWgkI4Kdcw4lTXwkWZYiyu4ge42wJUqMqH/wxCZSypUYqDc3gYl9x2VOIkPgZxDMeXxXLD45zCNwcw4ghbUKR1KAm5kJS9xIpdEvECyi/wABaV6+D0RNYleLzFuYoAe4FcrAfqc0SwBzDtLAqdmBMaKuYEaSsBxLgXuUbigRGVmBcqsfFYjFUV/8D8p4jFVElWwvmZRalQFTZGD5JtMrGVU0gwcyyvMReZYyhyRcMQeZQczH1ANEe24OIwsULMXJMGo4yxfMBNGonRuAvK+kaHmBXcCir1BtmCyUPcGghbLUEM3iVecd8EptgYN0Lt6JQ52gI2Bk4jSaiuILkZbxRABUM5Y5RJUCowisR+S4gtwlSpWIkaLjGUholZ+AQxGCOIZIFMeWXSMOn6Y6gTSOlxR5bQrd03uGCkzBqXcUOYjiVHEvqLnMczoggMWcwY2s5tSuAV7jjmUmaIB4iYXDDETbG5dY7luMRjSYe5RRhNQ2sTJscqV14Ilv068nStEuFfQr/HEOZL1mGYGmM4lZgnqQzuDRAttjuV1KhGB8MX5ViUHwf/DKJGblTtAphAjOY6hhhPJxGDkOY4huGmExoI4iE4Lg8efD/UCAbbhdmf5PszNwT5quR34PEzRZ8B/xCpBPEbwuHmLemIuaIFtsWIqzqe4KclxBEcs8Uou43NwbSmbVmGdQKPqOi4/mIWRfUB3LWWIVgHKxgbNIxXg3XmDUgqkqfUWggt22twGA8nFRN3c7ZjAF4FPWUyhtxK/+Ki1CGvh1GVBRKlRPlix3GMD4JUIajrPyFyknLLzCYJBLl0TAgvC4AwKtkOEbRRsLMxFEIc5BcIcJCOQm9RzS8Pk+4uRkdh84bPXf1AdVNWJkTsZeJTuJpqVSniJFihzMtwDmVaW9RHJHggWC2ZlS27AdKLEGsSwzPAAuFxXLiZwzxH7xzHo1HlOYbLQx5/1Da+5PyO5UGfIB/PEJze5WX6jf0XtP6hBRsW0/k1LclpMn0wq8r2o/cNBxUDfMqcyqlP18Mq4EGIlE0mUAIv4lXKr4YxiRnuJDEICaQItMXG4XxCViViBU4lxUGbeIBlWIXO6e5Ygy5ywoM2ut15IhKjbwaHZ6pgAps2jY/wDdwSimCq31dag2ltBfVfZ4/ITRoMlS86/qIe/XUqCqqUFyxqMDJ4iBAsEWj3FMOJS22heOdRJd07lEMOovYxmKH5JWraIG8IV/31D4F6f993AUD2/xHIR4I6q4DPLGSow6JVS3Nj7SX2q2Zh+CN2qL3lcTJacT+UBW/YKfsuahvHf8QqCbwaJ6NQW+jBqCLhlwualy5Ur4IzfEr/5csYsdRRPhIKD4SjESCpzmHj4VExKlRJpURuUohN5CAc1eWYfMeR4lapFy0gFa+/WYsfIUUnkeoYYG1AfsP1AUBeiAX2MUFBNCvWuz7P8AE2KVlzdY3z7g2osM3wxrV5ThhiKWhuP1+PMFgURAa1QzHUo6TnESGzaqvqOTVyvcNwU0P9w7rNK+SAsquYzLgckwfmGkLQs9QC103+oQZQ75biWGs/cRFlqeqgD2rY5Ns2dF513qLXPBAo/EM7WD37nqRh+gf6mcm9WJ9x2FaUD9Kv8AUrLbkV/g/mWRHstFgB4loBlDTL+Jd7gCYgTylSiVKlTD5YzRHolUZ3Nyrmoyr1DBLuHw5ieYZvcIfCUY3CUSZly1l1Eu9xJeChmAg7INCPGueoDg70ZC+X0EupXbKNa05yuuIQPCzAPwqc9Oz8B/xcfu9zX2y6/EU8sJUjSN5/7qGIIMrRpeOf8AyWsnHImyW/wm2qWCMlW+pfXoesRWilUe4VYXNC8MujahoG0Q/USrbrfVERbWgs8YMn4St0F5NierGIlGyFt881/MW6P9n+oULS3Q5GrPzGs45J9s3J39Y/coqcA90fuCmCuHHuClJEcdxMNpauB/mHwA6D9EMlyzgntxHc7yAj8pc/N0b8G4AWpSEPohV6Sp/W4GJZ6MLjAMLYwEB9wUlfBUFxlTPzt8O/hjKpfMcuY6+C5n4VFcvqEw3Lv4FyqYFzU4majgJZ8HQ1iXXLVo5bixE7upiwtUqPJv/veo2A5KAdq7fFfUCClWqqvqvy1HjeUH9NV/EVu6ygoeQLfqEZKq1Opzk9j9RBIW7ynR1fr3RcSgtRej/lsMtCxs7HI/9zDtZSuGf9kXVPhMnLX6x6qIst5FNF/+zhYWvi//ACVClCH/AD+IIMCFbyaH/eIW8ECvA3X+WXAqCW8bD/f5mOKrsXI2V+z9+Ia4B84vKr9ZqZzk35c/zPvbd7wn9Etr0iL94ZlAVQXTi/2sqbc0o4/6iIvpQNOhqv39syQy82y6HNXg8Af9gjUdNc024uUUDAC80hmD6C7G0fRiE7kWtiv1LYS5Jf0RAu8gP7I82OcsBPDB0QLuhfBKiXSiLUVYqbgqDTKlRjqV3ElZj1Et+DN5gWwXqFJUUjn4wOowtywjAsgXfxpwTWI6i3ZCWbgBeImryj3hV43UvFsDAnqXY1wGn0cP5YawEos328+P/Ig3axNo8aLP3MHCi2E4ADH0e5ij6gJW2Zjw1V+8W/qoWuQd/efcKzCud93Cn8WamREGxxdEz5uK4VGGW2/LiUWgYCsHtddjwnUscBldYC88Ul+L8ZrVyBsznBf5/UuukQh3Cv5IApNIONs/pGJJg0O6v9P8ka3qDTvFYjAGdCdV/tiQBOXkwv8AEITYb7E/8lolSinm0zNobZef9k1eSXvK/wCIIoi4Dyv+CVwLC6NH+vwxEhZoXvR/MBgcCtUOoavMrb34mGcKsKD/ADEjY8Uq/ROIxjC9gU9TjlTG/ohAW7gD9LmEcwqlhKJW3asY1imaxACwhjCaRFRCV1BzLNxbYw8zLk+aJmMfE5iyrjASswKjoxH45i8NwWQipUqiBmBTDc5mODiVb5gUQRjTOYxWkJMUVqNT8q6lAEOZAIdnAH0OL/IzhmRTHhQW8fYxtqytb5GkemM6XTQXZTs9a/cu42Qab6d/8c0xQt2CTxnb7IXHIMgxf1r3iFtzu1d4XkfMVTICUTrO2tO8wIaEzfYV/AfuYE5HRCJ9i/z6lZIbNbgHzznsgjhT7DA95EbtFthTSmH9ERwAJvdNwMqCwBsrj+ZbFCMR2zPLEP5q/TFrGEp9ViAbChy+44AoHoKL/ll50uj0f9cuOH/sAvsJS6v/AK2V1oUgpWU36OCKA6BJ1Bg7cHi43JLdv6gKq7stPzLtWfIkCBZdlahFexRj+JWxfJInTZnuYBcEGFJfLg5j8M6ENZlQI4i3HP18MCPUMRjuJ8DMEviFKlQJUGIEdwiol58x5QjDhdHHcXpUTBbUWgBFRgylyuIpnYfcqaHB6JvjwwF1ACO6Ft6a8S/FVP0QWPhBleizJHnDq/ZmEx7pS/shBD4EONL/AC3HVtVSKHD/AE8I57gCKirVynLhTZ48ygDJs4L2I1h97+1l3zMrD/x41dJDUyhvBql+yvwMzFYFN3dGP4P3HcqwSiuy5irClz/Zpr7IQZLdj7/nH5htLhHkt/3MmWVGsV/7MvUB/MshdYmKWq1f4geLCW17eev+3+J45mjxOfayC1mMQItlW18LKoGL9QxObSHEcPXMXEClLRLffUsdd3fEu1LopGH7AIiW3G3qCVzBaQ6MDEWvlMjzAz8YqMZXEdwm4Ed/DqVcO0oIL3Bm4+Y+IY+ExFCX8zLiA3NGJS3EOcXHN/xALndCYjOq0bqWiIAjpmKSA4KbyN3GakIxt5HkTLY5pz4xdnKzEKIsAUPFy9Vu7QnCdb9NR1YYih5f93KPngbPzjUeMU4xWPD/ABMkIaNn0lkIhLBg1Zzv/wAlLG9xeEg3GxpQI43uv4IGBwlY6T/LEGgcDxqn8pMRHWT6/wDYGoQbUNMyqrbh5iIwGbuvuPhTls+u/caFxWEz1g6fqAhF5tEa7zG+hXu41FvAf7iioLtrFsAVZy0j3NI7QGvZYylWNzdLOyCkO4DkRNTxQYNkvzBfPwKH4J/EAl3CVmJmVKqOvivgJzGoIcZjKlRjF5zuGZollVqEOYi4g+Y9E96jRdL8QmkruGLKRwy7KaVjmOxNt4Q8PZHXKQ2qI+Si0vGmYdQjhPH6GmHGsh8h6HXrZxE4C1wLZtXeQa/9lywArtTvg9JDaXJ1W/cIAmsXT7sh1aYFIBDcWKrKJcKUJlg39f8AXFagQadPdeZYPYz58zc5qKEuxReOoQHh7YD/AL8TFswHlyP8wIQbx+5WIINsYbufR8fzqHA6i8nlqOCPKGbvOD6hYAhwKJfD8IMUhPQQ4iBsYAXnxFFVjJcujNt6W+JjbJQHMqGK8RsQA3lgMcbyzIuDCFQ1GvhBFPiVK/8An3HMqo/BGMC0+OZqJFiOoWmETEdsxKlDjcslc3NtMFmJhlpRuEcdOogCnYHLziIDgtVphPSazHEj8GLREB4j2upeuKzSj2rT5lEcZTq/7vDDDKFYX3dzeB02ty+MGK99XdR++I411KwHazv1Aq72s16MwkgNq9FA/ETgDCkPyQsqrFwYB4grBRYTGbt5vZLjyRrZ3Kyqq5LoOwuvNQMnEKy87RFGjhr+IUXnRv8AiWcVrP4yNNhHTUuRsV0uZjYcLajMurxAKscwLnDuXKL8s3Q1Uq8XAzUqgGYK1e4GMwVqVBzLwi2e5Xw/Fw1Lom9RUqUyu/h8yiGIZnmbYoxLIPhMVBVCoPsiLuLFOIxxHleKgFspoK8x2UwLXTCOCApsQp/SzGr4ssO/8xa6A9VE/s5gMQKE1PJq5SYOzErTGmFFfzUCAVHUdhioSKvTtBSxG+SvrMNoG6uj+kahEG/X1HZLKTp+4WalS1DRoOb63AZgYdyvMFbar3eoIDKhmFVFhujMTWaLophUijqoYUTUKKlGdajBcQLBMeiHJoffcBtmiO4LfyK1/EFaGDshAxbzEGBeUuXzdoIdcOeI6mbgi22ZIncD4JRcRjvAgVFhKxAnHwfGokTPwO411LdErGpUYxlQ+L0S8RZm5Xw4lbhWCCAlB1C0CxfJ+4qF48wuHBDSlRao5iFZSjW3JATklUZcM4MckoOlcEsVuIXYDhAbf8RADE0FAeXvxGAiFIAEqqfsP8RxY93X7ECghlhy/mKVBfp+4vKQ7P8ABxE+JYNU11j/AI5iNVkMgLtONg9WTcEC60dEzGMO6vUENJd1ogKZFhb8niMLZh3p7IHxgH0OcO9S1wFrbRFq0EqCcGa0f5gXFTiqCWqzGGc2X0QRX8o6K+28T0a5FZmYt+5lYwm4qXao7pi2xw7g36gR/wDhcv4JjqNTcdQ8wFRzrUMfLF8Ri18GYTcqBmV8HiBapQBMIYt6iXi0DUUmb9x0GO3FEfoFyq6ZuZng03kgCpXuLg2RQZbygcR9791BR8dL9DVQxwmgAmeTsVstgCma/wAwFRnoZ+hmZqOG8j+f5gBlSqzv/fkl7OhdJiBeClW2q8YKu4kzdQpLxX4jmq5qmbYWQXizqA0vKxN3EFkquIQrK1iEIRQIAqg8MNgzXUodKhVUr1uVCgOBiaQeAtUSkoJ9/iCGLxzDAV8F3H5D3UfZRFyPMWGYYzCzADEG4xal9w+EKq2c5lkWFsC4KiblRQrC0uor1FYjyxqMdeYFgTXwEqVjMJQt3NzNgy8zOWNMSWzEA9n3HJoPqENxCP8AeOqBFStP3GwEDQofmYjgKuD+EIEBn/dzsqORy9RN2VLCPPJs8wWN1m+zp7hjT0uXqL8xRmx0pGAPZI4SkfT/AFBhAXLkRAJSqsagNe+pTZMLfMlsVfmFsDME20HcHI+oFShNY8zSCvgx+YVYDigH1UKVRw8MXBkMF1GKWHW4QoxlekoNkS0hhKLlgxlljiDuWS5qFrPObQnFv5UPg8JXxniXjIxg+GJD4fg22y8+JhBZlRmKqDcZmVQkzy/Yy0iF17hWYMrwVquZ/noZUpTfUqTyi38TF4Npf9QaPoVEUC+Cbn9B/mGbpwGJqunKguHbk4uyIQpl4IeF6jIvCcEBTj3GUVgaumXUo2jl+mD4WzyEbXnSbtL7I78tr8vBMFo5Y+lV4ZhViK05nHUobjzbEHL/AM7iqtPqwUa/tfqMtnpsgF/wVFqw5Vh/Mxe2MYEC0ozFZRBFLQ4lpKV/mC/ioWYCV83L+GGZiEITEYYfAj4Qh/8AHMJdwaKhMkhiZO54I88zLnLCnqXlNy5zcIEG4OR04qHYHNQkyVCLQnbl1af3/UrPoph8NPyioLgRfsnIBdGD8EtxSQ4Sw7dnTNMfcajuk/aOfKYqBhQbpywgGkRFiShmaqXuZuDhg1Qr+oY1xCwAx3EM0n4rjFgtR5WDVUHkmGVT0gcFJ4J/can4CBFD+zFBVXwcxALHo/g4mMAa0vps96lPy7buKwxahiArlolkmH8po5ib6+JhgwXxLeYsrE1KNR7QeyFMCYjSLcqXUWLA9RWZlhzL/wDkgzbLZ5LME5iLcEyMoIxgfwhVnEYNmOahZiLjZIpIt8mvzUFFYtrq+lz9xJMPYstyj1X8xwtLhGvTFv1MA6Ggr9f5Y2zxr/qiB6DCYiB5t/uWF19JcwtebIMCji9pSE7O5TbBW2EEoqrkgiCr9dQ5yG+kUNphY1gV4dxFXdzJoPaVqB77MddB0scSi6bigyP1UVv6TC8ufh/3EJIHVGvsnaRGw/yRBTK2L08f9mF01+GZKNRK5ipgWkCp0jb6hTiEqPj4UnEA5gGN9Sq3Kl9RamXLKx8I7lroiQgPUq3MDxK+D4qV8E3uCHMs5jTrDMHWI+mJZH0i4CckP2JbIG1Yljbwle3+IWAF4cEWEZxgr3Ab0vG69Dv7r6jFydNr7H+iCA0P1/35iNqeMEP9yOa/GsAxF9kKbD5UmBRRAKU4tR0XtvazEVBm9ZlAy2SUcRjGEwD3DevOooIHkG4i0rzcZskvWIpAToBb2yiS0mMeqhmWWeJSOM9dzRBOKIYgANZLT5ikqa4yPs0kRUVqlynjs8bhetWXh8+Tz+ZQCoYP/Znl/MHHmVLbJhLlRniC4HJEk5gwa3Lm40Spjcs2rExUCGcRdTMc/DUZZmCJMpmUXNTMIFyvhLmvmouI8+Z9SCMXBbNwBY/URTWtRXlhpHXiYR1KG69PPcQvYWusaIZy1f4JSLbRWL57/v0QbBQCgqjr/REJQPo/j+pa+QHB9SwMKEq6lVrwVn/URDVmlgeUKvwXBxZecKX8xRd17YEEV7Yagv8ASLgQoXcdmUzYwEr9cJRWWXfDEgUsN15l6YctPHqI+d0NXNqSZDMAE1oOagDE9ziEcFw+ATKgB17lViscNkKDhocf6l4VDfL4RP5hEBm0a8nz55/cdHB54mEMWYhhxChBtmVZOYV2gUsi1BnaLRG+tEVywWyKGCWsCYJYcRb1EixZaBcqNp45mfwEpn7lQBWkqVEo3EChzLe4o7WWCwl2ahjUAlM63MGQ63MqJn+obNi8HBApQMo4jIJGFlnk+YJSp28+CJw5x/Acv8QAuHQ7fLKeo8H+I6VXZwM0QdXA0bHUWlLTYjH+4LNrNrEGzovljeQpWOSXtnl3Du8V1gmtlxQfliBUWvaBQVSHihWyJEA8FQLrFcx23R5if5EAIwcJcUck9BNv8YnPvwRwUcYq8L1CNJhG9/mv42ecrYqN2gxGXkXMZzaIFkQ20G8whYVreIWfAuZ14qExVkmW4RnAIzuWC3cyLIE1Et+CTTFi+KnuMtbIIEJfxfyEyxLXcXxqB5hJDqAyMGKYLdwUowiJxHZDbTNyvKXaiC+7/j8xBS3hCWXAX9xWl24oofPqYFaowFhBkPfEXtmOBojpuWuNUVHkvsor93mElgv8VLgi3niDbDeooGz11DHYRAAGaVeLUhvIrKQS86MFam+GBWcQjhf8yllrZAakOGCvA8kQbHpKFKJd3BEqHNQrF9qCXlI0hjOns/jjqAUaTVOyIQ1gICWMxZzG7mXw4mUOhRrMYkpxeagodmcwysDFgZg7mCbbnd0Qtl+poHMNfF1Liy+45UQtlhFz8MrEsMFl9y//AID4rzL4v4x2QSLiX5lEzMNw6bNw4aYS9wJIB3rPT/gRM60ULKaM2tfzFKsuhp66x7gx5YQcQcwfiBVFA6IqgB7mQAPASmoH6WaeLwOZu4GL6gUQ74uuO5YWZ2xB9wuyXHS6uNRb9yk/cvWHhBK7HiWlyMbbPZHWHJBbp3itQ7B37R6v45H+iAXgKBKCtUFVdxALmApoUBLOVVHCo1FpGbK3uOUVcRERYLbYDpPJ0xFOTGZ0s23NxVUiUAdzRW4cmeERlRogktAVl3BjOYzmGTMKl9QO34HPzcG5UMcSyDAvG5c1KN1OsQlTB04nI6biWPCo8NWLdEK62p0Hhf4fUJNjkUA8rn7ZYDtYTBwYgxRtsMemJH0Tb6XD+YIgUSxERgu0imiL2E0iOpmMPd4ilcs0Et3iiUmfLMou4CoQlaxcoAO45unh0wVIXYU3pZKDCQUHPppiC4vAgbpzfRMQm+6mQuu4jR9z4iDtDu8rHRMBuWDeaIFjfSBGWJngm2DeKriE3AwncFKtOoeOATJmm+IgC3OIVcAygDb+JZ3Css6S2RL2sR2yiYqeUwRjGLMco/qHyMHEPjnU0hFrjcoZ4TMCXIIXLdxKujcWDEF/cCx4qBSEWN9ZmVj+jGv5jeBrbdXiWBjgsfcpFo0lEhsXgVslcotK1v1LpyxY283GG45yNwWwVfcBaMceZksdKuY8t3kmFwKqg3CVLDUwJEZYDD3hgA5E6ZXbtZDIfEsZuRIpDYdxALwExgS5auZVj10TGWNYKgg9i3BQWSXTstTInEy05tcSFQXd7gMZW14lF2POJRFNVcrQaFozDVbNAYrKJojTyg3vcAgEupZNypUqVKnaZYwPghLPnUviDifaD8o4I0cQa3MptFmH7jvhmixAOyUHXJCJsjlXW3+IVBQCy65cfcSWn4jgrvJcxZR9FRDiv3AFP3JeOYL/AA/uBBHMtA+ohtFrd/iILQwqUB5/xCSjgGYEcO4AU3Abb1DmuGFGsM1Ck+vUFGL77hAzHTBjTGkYcZyjzGKAJ1L3C9EacVLtuAbY2mu5hHjzFe4bBea6isEcpvcBK8rXqHHynEco0K1DU51ltx/ZQ5YkgFWjzGmPQDhgMjlPEQNSSTcYWrm+INEFC+4Cwivi5iLHUcEIyvgZiv8A4IEqCSzhg9xOSfnQFXMzGBQ74mfPiZmI1dzm9bl+kFi7ljkqrmRjz81Y/VSug+n/ALAEzT7lA0nuOmMPcTK0fUpbXExeElKoeW9w0JtsM/uZCkMQRKFTIonGVTcCt1EFn3LCGyWLC/DNSq9S1YfzLfKFYJSUJVt9TKWajmfUiDJFZWGiOcmoOSM+heaxDYZVF3CLmFwMUFu4oDCVClvqJmbrDx5IVVcG+I333UE3ivgsP1m2Jk4lu4Ae5dRBHHmP1QTL+F+VJccz0nhuIwVlh83UH6hqCHMsrE3hyY9wA3Yxouo4peeLZ3L3hlAqrzHl7Kgm8rxH7wfA91DhrwOYZij6lesfcyVz3CjGPJAHL7h3B5ZUGz7n7Apn6nCp3l+DiMeU7uZnNrhCDKCV4j/2IhyESNG4htgBXoEVXmvHUtRwQiBaJXy7iAvKxXqUiLDjmBc6FjUOAFt1FIE4tEQN0DuA8rblIFBzHYZpdI1L1FnBEXcC2bQQ4gTW47hkmGWuFOJVR1GPwGucRWCliFoAO30yqx8OT4MRfcWs6lu9QONSr5x4EJuFk0zqWAxGsp3LA8QoyckWC4fCu+V6gPPKn7ECikItaD2w+xPRUO89RqsT7jyMfUo1MbEFapfzKVuvUJpnuUWKSxRKohoOopVqRB7hG2vEdBR2wqKEeyPlIJgz3MHlDG2BQsYxxLUZSEtAwWR6Eu48bhnrmOkdyiQk0aq+IQA8Ade5hZHWYRsBaXqXb0NLExOFwjx5hgLLthbCCzM7hi0IlwdEKg3uOZdc6mHE9fF1LiswxjLt3E4gdEMM/AJeKcka4l9QrU03PNuOFNJL16S9pJu430yzemC06Rlpgw9MwLC+odxRTcLKF1gu4BUGjJfLxArAHuUeT8x2f1GMCRvOfuCkB6jZyDMCij6ng/UtWCBrar/EKcfUusQD/icURK3KXYF9wpvMd71DHUFdGvMa8v4hlorRy8EILxVL1Kg2t/gRK4sgHA9StlP1F3Aap+LiENo5WAbg1DaAr+PuDaieritBtoShRu8tZYMX98xHwnhMUFff4D4KlFsWZYE4SAu5iLLlZjuBTFhmDFmEYycwepZBNMwaxLl/8MaLZHZzKO0oi31Yuo5lizjQGyePK2O9YvC4JXUdhDwi6sdzFRIKT9RlQfzN23OLlo39RGWKwemLYX1TB/5zANGC2I+l52+ITe+oN55h2i1giVllvqL2/EjZjX9BPEsKIu2Og4lL1YHtjgNVQ+CdbOV9zW0tdMq3OS+wO4gHLbuFSIOEgyVSy1n1qCgkarBZgTAvDHDAP3BDAE1Llaqaw/iDBMS5+A1CDFx8rggBHiS57+axGXC4scI5S5mDAe2CBdXEaQ1nTC3UsWjJHAcvMzDLEt2unM1GY1lytvuVp5LIB23W0VDI1jKQgTLOWX3FUVjOX6gpyO43oI+4ODCN48H+YtkpW8K98LFm6C9AP8QgJ2Fxhheg8RpZ5SnC4cSgMj/cVK3aLMEP1A81EHaGTfLJyOjqZJSZi3EQSlvHiIqvyNytGXKtqmK2aI2u0Ky9/gpRmAENt7JZEIC3nsZlyzyOGo+XbOU/Mpbb2OD3LpCq2Gz3MIYWqgHDESXH04SO25iVHhHYgy8DuX8rEvPUUIJLuXGNvEufUv4UuXBtlsPygDTB2riNXmksjXFttlXMzGtXNRwxRlYHmVSspOGyVA2kXYt1niHbJw5IDvUyQ5NvhgaVeM0cfiEKoVl/1ABeyyVax9xgeTGIZlW7xLBh6DJ9piN6hN9alq6Ut4gbtLfMc7xACbc6iWL0j+JnA/cNl7ZQ1qiM4/MyzrPLATHuABoVMdhFjUcDKQwsmw8jLQJDcK1i0L9jkiZBhU2PJXELqr2FynKkTFKtj2XLoEvoVHRWUO5WA13xL88eJalOZVREHbAjuUDB8LXRDUYW9xTc4m2VDbMb6gsLlNzmKjxCzGXL8zKI7mHDBtNCHlOOJTeoHvULNzyIzFRxvuUryCZL6maBlUeGgAGn8xmhhqtxhLcKVtjb0wKMv1LYHSiQU79zJ1EAGnEEm6HKr1cEcjF2cRcghdF2jWikr2zNR4GjZUsc8EWJeYYUSm4X6j4mS5omERxAioEDR7iudugloZHqFFDQxaAQBG3D3EfmsDDcrMIj2lNicXK0xGvbzKWqCxBvxEBBsgZ/2SgepKxAP1ByA8+WFa6OXmEOyqUiKUuytPcKULE7b/coS+YFFTCNV3C3uJXwouLUV+vhdwyyllmmWUGdxbxLcxJouDeIhuBzLuUDuOIsHMYMXiWW05i+WMBO4sx7luxLpi6xG7ZilWdzt6UKqulzTOKTyRX8yxFV8Cr/AETMENuuj/yUgatim/MooGAEpbS/ZjiWh84VevLOXIz5ZZq7YssD1EWG61FgxfUY0jjuJRNrXuGBaWw14g+pdlQlWYhC9ExiaWoCJrMLC2vBArW/UxPPbLmeAZZ+RX5vj+4ihv8AjDUq04i4MtUDPuAlDhalAC/DFPqO+pBUFpD0YY9ZhY21VT6Y7SC2PCJ/duVu2A5H1DsND8VTKBlmemD3MktYEx1GZ1UCSLcJVUVJCKqVZS3WTiDrEqjO5mS3EVNbgYKbIS27iODPmaqsS4OpcDu4n3HNcYGyPTkvATE4YweZkZhtYmQAqzt+2pXC8h+H/MBuNQMEIRZNpr1Cba5fL1GZyS9JvH6IUKU011mOmNMLyys94a/cGrdm/JC2ZHJCeEfMwoBrSRqVE6SEGGoC8am2youMSlUscTFNQ4DdWAG4HOVqwJuM4FscNxDuamdKKplnJ1b5Lb/7xMkBhTdwKEKxK69u+46cIXjbKjVFQqzpP+4iWUeWFY0Qxar1UoemFALQuuyIVUHN5PDFYZA4iENnNzcVylAfiLMeBDtv5BtyzwlBPqQLIUbYrkwILsSnLKEXiBCquIKqCUooB81fBK9TlUabIjqZNaZ5OKYm9UkQbxNpR5j2PBApgfcsAtJtaYlkHLVf+soVinKNePcJMC7eiEaaBhYM0PV9xhKB6H+47EQKPUYhyL+v8y4tDInm/wC4EFKTX5gl0erXYwcKtaR/UqVYOHuIFIP8kXAgoBiy4bVp7gnEuPTRZAtlhbHJP9jRjZ0CZXUvl0BRLMfmVu9spKl8HcYXe1yNU9cl/cwsRewh2FMdEpl0y3ppqXKi9kKBFWabgqApxeGbBaAx0R6hoK9ksRZMJxGLAwens8MzIZ7lA8viWkVGaioz3ABfgbluMkJV1iEAkXWY3cA6JxQxLSHZiGC4CQs9sMXzFi5Sx5fkpPBlM1uXmHQZlph3kmVcGK5lg23CrRf3E1tcSuBHl4g3FgaM0RAaNfY9r/UJTXcYe7XUulZRcSsmFS/ILuBA3mGB2hz9xSi8/klnailvDLcyNh4fEBCQaBsYpUC7HuCF4fMtVSO4l1F68SoCVFNsMMxjjMQih+LuUDXMIg2FEqsOW8EaDoDMwamFa825/iKhUkG6pcfUQHeVQfo3CLUW9mYpY0Hl5l1iZvcTLo5EG4PRjLgfJqKWUVP9DCqK4jmvuCsxVbcVKDfdIa8nuUQSGjHMwM1US+5SgmmOX4FJ5srmdMyUFsQFzI4HBKioiQtaBgSDiXKYj1EHGIevgZ7TCaS8RWS6aYu/EwTMmY33ETL8Jioy2X65jA4XC2wERV/BMBe2Q/uC9q3/AIi0m7fy5hMlbPUNGVYrt1MgFqVdBC4xNPKxyDV6VAMuFB6uIldKTkSOFCJ9r3GgfSIFBRwQDTi9XDQ5Ijxj3GNYPcbkD3MoX8oBSODknJYGfqCHNOmIyAMrxcsJaF7yx0+HCABlpPphEdBKnA6LE8x4DAHBvX3qZepYYSU837l9xr1Ckg0ZVdI1SZZjwcxFXrslAvitWf8Adw6arCX6dkxY1NjqYCQtuHzBQjPCKqLeYckwOZlagrW4C758xqY3LLbcAhT4aReB+LVy4jJbyS93UWtZPEp1AXuIdRXctzGhThl5pcw5RhQrJo3klmGoAtlmpaMrUoJQ3iGhyyxTNLzE2rv9zZDODliIbVV7YW+oDV9Rlra8EyrL7ct7g7ZWl2xGiQMt4zSwtqmH2H+JQgvY+8RD3jGnurlGkJS9MStih/6IuLXowRGtRIDL8P8AiE1T/cVzbgIQC1dEYWH2H5g2GchxEIZfrR/mA/SB1EMstqv3EAqPS1j+LmBxrEWKaXXMohXDUva8ka9n8AgVgrgN/mYsBmreXP61MAGG/Jx/Esqg1smBwMZIA4pDX9kGti+U2AdVs8j/AFAO0DBKX3KGtxqt0S6+4rHiO5hFLWwpcQCYRtYaJqWOJVmICswoIsxrayyLCoEUS7lj1D7iiUjVw2S6lctUL3kRdsdMJzsbIhvzEC+4hM5jpatG5a7fUARydRAugXTglDXnAOjE35y9Sx0rmLnbXiHgGf8AaF2WB2vUwE7PoRgaMXDoeexyFseELqvWohFLRXkzMpLAfRuJUdv7hbFNXK1GFPzGL8JAtFo/iYQW71fMdBu4rT7i6VXTcE1r1g4csVXRWYHAOOag1exjq5Zt1j0oJCNORZb19nmLRwFNC2WEn4Gk+sqxBeu13g34NFyalYh6KW0Yf+5hWIwDxhxf8S9aNtWcvPJ6deszaC5diNSHQMf6jqRcv7zEFfkqJiwsoGMTAcRWe5iZn3SxV0cwonhN8yoxgVmVmxntBJlhSeUffxTuAgOJTVwEA8yi7qJ1EEyYh7P1KXSVBQtquJXTKZ8wwRdSrXUyMNQBppMxFRque1lxdcBCEYHBMaXA2/5lh0Iv8Sw0b9yngyV4IzOzMHEFsPFw7NjQ9aZVDTUIxMyFc1UQVaaX5AiGVSj4JO8Zq67IDXbUoE0+oMt7NjuVkJZsiS78w7L7ihTWogQrlUL2GeCGl/qEVainQy/WP6gYzsDwJctWqkNcH+6mbbr/AJjEvFsgmAF88zh1dQiwDScQRqta0kosDlZYdnqUTW6rDeIYLszXE2XMI34m6q88kXIKOYABzL7dy0NVBvUTxEixXFQ4huJrETyy5ZBIUlG4y8SlhQzFrcRq4dLnYMW8amXJOa5lr8Sx9x8QuM8zfPZG7IVVOSFlxqW4hpVZhUG6qVDYfpnimAO5cercqRlob5uLHkND1K1kNHVBtmUimXH1FPtwWKoNplTggEBTjzxMPUpTwhorSx6lEFdAIqDDOfEENE/gJfI4VJEHL7dRUKNPZECt3qWkBu9MPEvVwPAVEaD3Bm/EyFYkWl2L/wC/cpRiiFXjYdhqHgZo+8RNogwAypEO6xfmbzfAYjYhYxiWt5vwxlUl5ywBaUw8NBUQDaqfMQ7hvioFjlCJgkfqVMWCWpiW1biW4mS2ZWme4KdxlBFHUEqaRtc1CVIS+pS4JnzuEOOIg7lG2Vcw6uZlm4ql3G6BAkH0yxOLiLtjFZ1qUTefEYRgKDNZgzbOLV7lS7l/7txKja4lBpKl0HGg5YRDSCv+/Ma8gDUqm2XBOaBb5Y6QzaE8Z30OIFbhr6All9st+oNQNFn9yymXb1KVOBS+ZceHB5OGVLZ09RzrPmpoAUQ0AfmWHriU0TSGkOJUQFt4mYpb+GnvLMwKxpj4WcvFviIjrizgP7YCjK0ZBwHS/mN+1WFe3oefLolUEB0EyjVdwZSJ2dSxmUFxqiw7Ihe7qAKB3CtBdQqS95ZwgVF1KXnEqAFLCcwxHLzLzmAlkxAqWSgixG0CjMIgiI0hncx3HNOHqIuycnEcqSnHMVmYs6BIdqtMVLrrRslVodyo2XLjMYHDuGEd79TRS1klO42qtB3FFsXxMBthCS7teIrAoFdlfoRw4xbpcv8AMMCwHFytv9EpNFiD55YVoWcnwli3SFEFRYG36/zBjaFPtLG6BluGfGmA1k2OQjFLv+YAN3YxistvkjHLfqb1LUeGXM+4AdJzEOi0VVRASPAMC/y8HEVqVrmC0i/EvOQYxCO+wDl+5mAwgddSqxVlGJZzzyQGw1u4oR3/ANUZXZZxuKUfz1Em2Fd0QxmGlisu3LNVqAGYPSLXVeJSDKHmJgrlmYPiWPgQTRFrqWvPwN7jTcHg1NLiEcwGA8RH4+AQVwxcHUyRaZkPf8xLzhgk6yRK7I5lxRXmAbro5lY3t9s0l1rt6ipvVQ4Jv3ovPCZFCxldnA98vUDYVofL/ZCPYVfMUxfouOZa3b/vUe9CAegN/uG1rUF8svFTQdrcYkFWvzUMYAiP5iEfb3GDrXv7xApCmmIDPimoFo3ZkmBmV0dPMLvEWaa/ibh4gifuI6TXQS4i1PWYoAYxZVkrLr0JzAMv3GqDRgOCcgLAdyu3h3zDvZGq09QsDddOSXhwiXEPWX5lAoQo5VzCSghm25QULMHUJS5ctcdQg4JdeIsg63NJdS+ViYFSFmMF4hKYnmJT8aZuAMtzza/EUMrDywo0sUgXGkrLymBhggpxzMUW0duJdWXoZRi0+YYwfEqyeDDD3s5CI0YLA5YaRg10wBRtXL3FMmVr/wB7YMciafMr1ArfqBAouw8ZtlhmWjQbC+5idDbfeoSdUeB/0iFgqz5y/wCYhrVg9rT/AFKk4QfqOVByHazCHkMPEEG/D/mYuoaUBdJTZW4t5oOpnSH1NhWElIvQ0xLwZxGbvMJGwjVS23Vp/wBxsHTyLGxyrzOgE25T6j6aWLgHolSXS8L/AFDq2nkal6HJyXcRN5dL9sHF6sDL7dxL2djuGC3MK2m2OqjbMSUUg4I8YaiTmCd5lpXZKTUAvmLjEGXCJ5ZThjmYlkWHoThJbzEu5hplJx8GIswi/mPg+xMVmglCBzGHUumocL+oT0U8RytIq1Qe4gL2O2WE3RrrmAVwNHljSwWmF89RsnJQPUcVsJDx6VNhzXuXxmKB/MqwpasqOGbQoPt1CZNBZ93AZwr8X/kgoMUlTjaCg0LBGvEWb2QetcxZShNs7i7PuYtOJYEZSEUgdlqUZWqGogA4nIAcriKgiPu4jlQmXUVvY4L49EaiHZOVYV16huRlRhzUqyVf0S49KrYkpSzg6IAyyxqIszfOI9zhNDFKUR6nTcXiWXuDXwWIueGoPmLc3xDBGkuXLnpDMKlXplu2YgXMqZOSAtTEGjDMhqUtO4Lm4mVjMzd3ETFxNJi4I7l5aj2HMQse9Nh0QlzUL6HqFiXA6iMUtc+4eZQKrQQMsXaJ8aOPbPu0an0f5hQZ0OzKCAi6fxGJl2zkXGLxvaTMd1T83LMMDA0OIBy1TLLNsau88kLR3LlwV5gPXuBQmDrcaix5rEbo6dRCkBgOYAO1XNrPAHWyKhIbyxmoQ4zKLdhq7ngAAC+uYlvu+b2rK6pmr3mOrkN8jqnqbfAtuHjzDgccoRitwC4wLq9wJassfCarmD4iCzFZonELGYZZeYN/BDEUHEvxFl4mUGXFqX1PKVNwd4SuoWMy9tOSCncF7Ndy9MBmLCZBCwuChuBZRK00E+uMGhfqNTYdRll5l2Ipxf5MV4q54K3BkbtaP9x82CaXiWgNeNLMRftUV9wMUYNsrOeCFSuObl7NX9S0DWA8SkttG7uuZR9rKV1Go4LLpcfmBQuIq/zHHYTDLylmfyhKbh2jcJeYOIaUg4ghSgNMJCY7lrQL5iOnXdwjdA8GI6Cjzn9RDdVmyNj0ZfsLuDiaBHPpjjVuuCf6ZSwHHPiVWAbyMCtFTQFvJUwyHmWd2uHFnxqUPMDoYs18GnmKGEHMv8RgYWlx+GkbRQ3Ohpi2wP5iV5HiGuWpZeJy6Rqh1A4uuJkgJmKnMvb1GfRCGO42HeYi6gzT6lWiOw0dwPIIMPhfBDuf4mfBF1pfa8RJROsH+2a8/Ilgup7QAUGjz5gmgyhEHmk/qbHD7upectGhqogWX0g27uYgCF0pz+ZROEEDPNTCNcMM39cx7v8A5jSlfOeIact9xNkFcQBkzG8NEFjnTzLYd4hqOnmPfJcsqMzR9IxlyzRmirmDJC3f5WW9Omx1UvYNm0w+pQ13y08+JwgFXywCIHuV4sHAQbODoJgNv+IxX5iO057mVppq4W3GIaPca8x4GBlIiOXEIPKKRZtDKK8RjKEW5gNXUrolXe4NkLn678y7JnlQ4lqLdruOFJYZ3KYJZNwa3LCWN1o2xKL4iw5TLBcVRsuFWZYV6iygto2yjVVlNFdRELODk+45e/OeahuaqJrc7WjwQKaDX4Iu2Y6Eils48RqpwNHctCThlI+x4QKwC0KcnUUDkeZdNrzDK+uZWi0PExHfUCt2+IZYKgSgZRrKJbYr/tysC6lQjJDtp6hMTh/wlslm0y/MxItpHf3GGHkOYMjZ2OSdgWiz6YmKB51KtVXO5jKq+IhhT1FUD9sqAHtcrjJA+KfqA4wgHAkc3kgPWGXPMECouZ3S/wAMPJLpntNflylfFwHcBJZUx18NjMya3qGk0dkNh/pKJZxBntAMXuFVcEWcZlFxhhN9wX3AVMeEzGE08MaDlOpY9fJ0EJitsF2/3G3XzS/zKu+oaJkwrRioMmD3ULyN3gqANkcsxqql1TUsKbdFywpm+oFeqGKSWkovrcBqXiVQJUNY8zLnECKau2EIC0e48Rp69wS24BQXn+pelPs/zFizbwIGZl1jEyVsz5SjNA7FynEhTaafqaBvKAwScKyfuOwTdtFBXg6mazcRbdxBL1HfFw6R9S41ccrI6Yihjk9Q5sIvc3Nu5wOZY6h5iYPDKZlpiohFowCAxmFiMeUPyltwMzA0wWUBqQXb6mEG5Z+I8YrGPMEimlLnLS3T9wWgm7jaCgh2PZgIWPoT4K/HMqhb7H/R5gVnFxgEAEYcB57ZzOHUyXdcxyWUcXzF1IET/cFeF6eJkfDDNfcywEPxDq4jNnJBgQxzBsPBLtwl8xOmppFCOdQ44Rf1MztrXn1KxermtwElfgzkR1YrzfUQoaXw1/MAoOdViI558rslU0to6hWlwp+GPGRParyRABHAKYjPgOSC+5XwzMVuHBTmHkzyfESVUVbiuFzHMU+NMw+DGb+YK4+Gpd6ldwuUG8Q8LyQRsYNxAeJf0l53iY+RGL+N11DKqae5haZInsoF0ruYmx8S9d3l1EW4PU09IF0eYlWR4hdndYIaiG88QgFd2uo5Vtoos/8AJUCqsLf2lxSqKvolqVYHl1AeSlsfE4rlNrVevUdQnr1GzDMDL2+oKC17upi2r5YRWS9mLiKtH8Qd2j+5Uu6PMpefMAyhCNYwhQqVi5qZrMUBOdjMsjgWo8zGtFPMrzklqbolv1FRW2czFHhYusMqGJiJG+WIVTA6f4lXytZlBZmBRcwrTUsQuAL8zFqHqACXAphkxHpHcItYmEmJUJXcxUd4jSpxAVlJLOY2um/UvNVGZpuCWwpmPaYBrmNl9S/xHZFs0jm1KOpvASx91hLjYnmCjZcdFS7Erhm1hRKFrrO4XTX1DSzSrMviGbV/UayfzR+oFCtbagK4/LbK4V+y0/qIwhwG/ctv2XndN4ibKBKUsXQA/csCrOSHqgP8zJM25Op+KECTAOuyOimjAsN5Pgj7RHh3Mq7yJ/mMVkVTQvAwmxN2o3bLUqtYzKICOSHH+YMoLu7OvcLKLHJDdTXEQoDN0xFhf4QzZrNErdQQzt5TMKQBtnH1A5JWxmWO4X0ayOAJYM38SkWsFWGDEaRdsHqVcrtuYr4ZcXEKGPhZhL1uIeJYGGHjEJmJlxC4lweOXbqKC1iKIkW4X4g1yidliONn7m3MxLpvxADlDCukuYsrWaAV3BIgBfqIkXg0CNyiSg6IzSuSw20tkTrtrXuM0XorvuVkzCvLqCEDAKNbA5OYIFMLp4gkRd07lCNYdzEtLV2TAx6IFG2z+Ig5YmNyD4zL074zBJYnQFyw2PgD+YvBCIagiUYEXKhEq5XmMWEWPBjRCLQkLo4d+JQLScLHMrMV09Qgenx3DVxNUzCEdBT5xqXpdlyg5HhggpjUJchZGt4mgSOF6i65nBc6o9XLoJvEUYKgzwi1FhFrEtvMuopllEQmGpYRU5uWM0zzZhcpiO+IHkSwQOS+oJgAxSYlxVh9wv3GgWkqJlrcsw1NfUM0wbLYbCJg2uwSoJF5Q4jmD7i7a8ARbjk5iUrIlDnlBR+hm4g0cMSFYhtlaD4WVeYvD7FZjNNNW+ZiyJUvKiZFfn1OQ+24ZnCXEWmUNNinmNMIlWJbeI4MnN3qO0QvCoKoVBKWOkKV5Tv3KIZABenhiiWn9yslwcwFqxMJLh5NkNLBJTsHIg1Ys68y+9bnHF5iKg3mFytDqM1FM3cRJFZFiVsgCZNziajOcUHE2lxfhBqG8YYXzBNmYtMB3AciL4bIUptIs4HualuHmbgqgjmDTWfAzZ/JElqxQrP3FVj9wdcPExU1ydQAc1LEVuX0letw4qVZXBKCzvKzVZaw2QDqYxWLhRjlcIKYlUpQzfUYRkYXhzl/qMYud4fHpIYCgKKn1xLANqTzZkv6/iHdsVvuJNLnq9y21Z/UtDwVxAEp/iNV0nqZpnuqZYFV6ojXIuhTfqGKeycS+Y4tUiaWDbW7PEMN08v4QMuPDnES4DQwXiMDBgCXp8k561DDWr5jDfd4/wAyyo3TJ1CGcQKEaxC52i9EV8UQ5GK51COSMKhhqBzLI2kuIOfhDqWqFqjgjozGrE4S7zcU44h7g1GiehNNVM8MJuVBMgOmZsP9SuEPJGjce0u1KcLAcn3AB2iA8wo2QVdVRrehyXBmzMXXGd8x2TQxDu38sd4ba8oFFwLZMVKtN8ytpqpgYDnHcz01fX/cRqqelnMTWDCsazBsar8mE/uWK1HUwi5D+vEEpVxUuTANoZmbJmWgCv4j3+EUYI1vcvk0/RMW7/czLnJ66htpjJuCiYbfRKZZRs6P+YGTdV9OJcmjUGlPcyK0yojepgOx5O41DRwOwYoUadTcqvEsyIKeRlVt2Ql3v4FzcpMVC7CyIaOo6sjpxNgzKJqCpbzFkdz+Mwbjel0Qb1AzuisoWTOfQhluF9ktqCdBCjiWOEmFVFK49QcyD3LeH5lDslO4oZCNbjqFthl7LzBY9kXEbNsW0tx1BNAdTAS/HgNsfoAPBxCFksSlp2uGXCjjUTQwdw0GijuMUPZKBwMvuVh7fOYF0HDbDbGVt/7UqoBx4jvW5ozMMB8rUKglPuDaTFVcVWPa8epY4e+kBxnd8vcUrdo1ysaZbdeMYjXVyEUa0RqHAP5gWHWZiupRSXr1kDznYxnS00PJCDg6T1EBzhe5eFcRU1Pf4XhiqFdwjjcwxEnlObhXUwTUu42FnUY7riEBAE3qDXcLhqB5M9kvVoZZh3cxjhgbw/ULRpCJTT5jCBgYCYUBbcStFyjDOxpizeHxH7pexHm1mZWNEbXcPUCYjTliYSpSno2/cOilWlj6upQPUWqglvBhpACkA4PEISBnEowL1Kg1jHF2c9R/n7UQE2Ozr98ROGO06fK4PcGhewVYi2NzYv7i7D2cxVv9aPccAuWa5lBqC8GY3gIOeoa3r1KRslTINhKqjmpYWaYlAOaxKDTS5IF3tofMphQi41rtgmlQ5H+ZjhbslIDhipdk3MKEKTG5xbivEqFXEyrKOONzslSYS8XGwFw3ZiO4QcRVdwEbdQA1OILSWoc7O5Wt+qiFkrXiMS5eI5KjXTk8wmka2LDENM0wm+IMbcR5eyO8g1m4FZawoSBWMiU7USnQajucP9R8B0P7j2BnKYjoB+kV3faSpfVxaqosSIo0f9/iYGNERFc1qW0hRxM9xkvl/UDo7gCh6lF2vs/qKBZpZX+iiUzBWrdGeotD4wVCkoXSLscnUSuKvqbJRiBR7YMvZSMrgELHxUWSEOd3Bs0ksuvRvmpgmSr9TJVnT5jqcjqVRKA19IJeKahwR1Lbq8wAxNUFEvcHMSjEYTcSNI6hXl3OJpjZk5hVcSf/2Q==;" vertex="1" parent="1">
          <mxGeometry x="-815" y="140" width="149.95" height="149.25" as="geometry" />
        </mxCell>
        <mxCell id="kj3Qjq8MGdwHvv3RqtLf-5" value="Yes" style="edgeStyle=orthogonalEdgeStyle;rounded=0;orthogonalLoop=1;jettySize=auto;html=1;strokeColor=#000000;entryX=0;entryY=0.5;entryDx=0;entryDy=0;" edge="1" parent="1" source="kj3Qjq8MGdwHvv3RqtLf-7" target="kj3Qjq8MGdwHvv3RqtLf-9">
          <mxGeometry relative="1" as="geometry">
            <mxPoint x="-435.25" y="361" as="targetPoint" />
          </mxGeometry>
        </mxCell>
        <mxCell id="kj3Qjq8MGdwHvv3RqtLf-6" value="No" style="edgeStyle=orthogonalEdgeStyle;rounded=0;orthogonalLoop=1;jettySize=auto;html=1;strokeColor=#000000;entryX=0.5;entryY=0;entryDx=0;entryDy=0;" edge="1" parent="1" source="kj3Qjq8MGdwHvv3RqtLf-7" target="kj3Qjq8MGdwHvv3RqtLf-8">
          <mxGeometry relative="1" as="geometry">
            <mxPoint x="-535.25" y="421" as="targetPoint" />
          </mxGeometry>
        </mxCell>
        <UserObject label="Did it help?" odk_type="select_one yesno" name="ask_" required="yes" id="kj3Qjq8MGdwHvv3RqtLf-7">
          <mxCell style="html=1;whiteSpace=wrap;fillColor=none;rounded=0;strokeColor=default;align=left;" vertex="1" parent="1">
            <mxGeometry x="-595" y="360.5" width="120" height="40" as="geometry" />
          </mxCell>
        </UserObject>
        <UserObject label="Thats a pitty" odk_type="note" name="note_" id="kj3Qjq8MGdwHvv3RqtLf-8">
          <mxCell style="html=1;whiteSpace=wrap;fillColor=none;align=left;" vertex="1" parent="1">
            <mxGeometry x="-595" y="488" width="120" height="40" as="geometry" />
          </mxCell>
        </UserObject>
        <mxCell id="kj3Qjq8MGdwHvv3RqtLf-13" style="edgeStyle=orthogonalEdgeStyle;rounded=0;orthogonalLoop=1;jettySize=auto;html=1;" edge="1" parent="1" source="kj3Qjq8MGdwHvv3RqtLf-9" target="kj3Qjq8MGdwHvv3RqtLf-12">
          <mxGeometry relative="1" as="geometry" />
        </mxCell>
        <UserObject label="Super! Enjoy your happy day now" odk_type="note" name="note_" id="kj3Qjq8MGdwHvv3RqtLf-9">
          <mxCell style="html=1;whiteSpace=wrap;fillColor=none;align=left;" vertex="1" parent="1">
            <mxGeometry x="-375" y="360.5" width="120" height="40" as="geometry" />
          </mxCell>
        </UserObject>
        <mxCell id="kj3Qjq8MGdwHvv3RqtLf-11" style="edgeStyle=orthogonalEdgeStyle;rounded=0;orthogonalLoop=1;jettySize=auto;html=1;" edge="1" parent="1" source="kj3Qjq8MGdwHvv3RqtLf-10" target="kj3Qjq8MGdwHvv3RqtLf-2">
          <mxGeometry relative="1" as="geometry" />
        </mxCell>
        <object label="&lt;span style=&quot;color: rgb(0 , 0 , 0) ; font-family: &amp;quot;helvetica&amp;quot; ; font-size: 12px ; font-style: normal ; font-weight: 400 ; letter-spacing: normal ; text-align: center ; text-indent: 0px ; text-transform: none ; word-spacing: 0px ; background-color: rgb(255 , 255 , 255) ; display: inline ; float: none&quot;&gt;Start cat&lt;/span&gt;" name="lki_fever" odk_type="activity_start" id="kj3Qjq8MGdwHvv3RqtLf-10">
          <mxCell style="points=[[0.145,0.145,0],[0.5,0,0],[0.855,0.145,0],[1,0.5,0],[0.855,0.855,0],[0.5,1,0],[0.145,0.855,0],[0,0.5,0]];shape=mxgraph.bpmn.event;html=1;verticalLabelPosition=bottom;labelBackgroundColor=#ffffff;verticalAlign=top;align=center;perimeter=ellipsePerimeter;outlineConnect=0;aspect=fixed;outline=throwing;symbol=general;" vertex="1" parent="1">
            <mxGeometry x="-1040" y="350.5" width="60" height="60" as="geometry" />
          </mxCell>
        </object>
        <object label="end" name="next_" odk_type="activity_end" id="kj3Qjq8MGdwHvv3RqtLf-12">
          <mxCell style="points=[[0.145,0.145,0],[0.5,0,0],[0.855,0.145,0],[1,0.5,0],[0.855,0.855,0],[0.5,1,0],[0.145,0.855,0],[0,0.5,0]];shape=mxgraph.bpmn.event;html=1;verticalLabelPosition=bottom;labelBackgroundColor=#ffffff;verticalAlign=top;align=center;perimeter=ellipsePerimeter;outlineConnect=0;aspect=fixed;outline=end;symbol=terminate2;strokeColor=default;" vertex="1" parent="1">
            <mxGeometry x="-120" y="355.5" width="50" height="50" as="geometry" />
          </mxCell>
        </object>
        <mxCell id="kj3Qjq8MGdwHvv3RqtLf-14" style="edgeStyle=orthogonalEdgeStyle;rounded=0;orthogonalLoop=1;jettySize=auto;html=1;entryX=0.5;entryY=1;entryDx=0;entryDy=0;entryPerimeter=0;" edge="1" parent="1" source="kj3Qjq8MGdwHvv3RqtLf-8" target="kj3Qjq8MGdwHvv3RqtLf-12">
          <mxGeometry relative="1" as="geometry" />
        </mxCell>
      </root>
    </mxGraphModel>
  </diagram>
</mxfile>
